solid ur3edualbody
   facet normal -1.000000e+000 0.000000e+000 0.000000e+000
      outer loop
         vertex 3.600000e+002 -3.150000e+002 1.300000e+003
         vertex 3.600000e+002 -3.150000e+002 1.360000e+003
         vertex 3.600000e+002 -2.850000e+002 1.300000e+003
      endloop
   endfacet
   facet normal -1.000000e+000 0.000000e+000 0.000000e+000
      outer loop
         vertex 3.600000e+002 -2.850000e+002 1.300000e+003
         vertex 3.600000e+002 -3.150000e+002 1.360000e+003
         vertex 3.600000e+002 -2.850000e+002 1.360000e+003
      endloop
   endfacet
   facet normal -1.000000e+000 0.000000e+000 0.000000e+000
      outer loop
         vertex 3.600000e+002 -4.050000e+002 1.300000e+003
         vertex 3.600000e+002 -4.050000e+002 1.360000e+003
         vertex 3.600000e+002 -3.750000e+002 1.300000e+003
      endloop
   endfacet
   facet normal -1.000000e+000 0.000000e+000 0.000000e+000
      outer loop
         vertex 3.600000e+002 -3.750000e+002 1.300000e+003
         vertex 3.600000e+002 -4.050000e+002 1.360000e+003
         vertex 3.600000e+002 -3.750000e+002 1.360000e+003
      endloop
   endfacet
   facet normal 0.000000e+000 0.000000e+000 -1.000000e+000
      outer loop
         vertex 1.200000e+002 -3.750000e+002 1.300000e+003
         vertex 1.200000e+002 -3.150000e+002 1.300000e+003
         vertex 3.300000e+002 -3.750000e+002 1.300000e+003
      endloop
   endfacet
   facet normal 0.000000e+000 0.000000e+000 -1.000000e+000
      outer loop
         vertex 3.300000e+002 -3.750000e+002 1.300000e+003
         vertex 1.200000e+002 -3.150000e+002 1.300000e+003
         vertex 3.300000e+002 -3.150000e+002 1.300000e+003
      endloop
   endfacet
   facet normal -1.000000e+000 0.000000e+000 0.000000e+000
      outer loop
         vertex 3.600000e+002 2.850000e+002 1.360000e+003
         vertex 3.600000e+002 3.150000e+002 1.360000e+003
         vertex 3.600000e+002 2.850000e+002 1.300000e+003
      endloop
   endfacet
   facet normal -1.000000e+000 0.000000e+000 0.000000e+000
      outer loop
         vertex 3.600000e+002 2.850000e+002 1.300000e+003
         vertex 3.600000e+002 3.150000e+002 1.360000e+003
         vertex 3.600000e+002 3.150000e+002 1.300000e+003
      endloop
   endfacet
   facet normal 0.000000e+000 0.000000e+000 1.000000e+000
      outer loop
         vertex 3.300000e+002 -3.750000e+002 1.360000e+003
         vertex 3.300000e+002 -3.150000e+002 1.360000e+003
         vertex 6.000000e+001 -3.750000e+002 1.360000e+003
      endloop
   endfacet
   facet normal 0.000000e+000 0.000000e+000 1.000000e+000
      outer loop
         vertex 6.000000e+001 -3.750000e+002 1.360000e+003
         vertex 3.300000e+002 -3.150000e+002 1.360000e+003
         vertex 1.200000e+002 -3.150000e+002 1.360000e+003
      endloop
   endfacet
   facet normal 0.000000e+000 0.000000e+000 1.000000e+000
      outer loop
         vertex 3.300000e+002 3.150000e+002 1.360000e+003
         vertex 3.300000e+002 3.750000e+002 1.360000e+003
         vertex 1.200000e+002 3.150000e+002 1.360000e+003
      endloop
   endfacet
   facet normal 0.000000e+000 0.000000e+000 1.000000e+000
      outer loop
         vertex 1.200000e+002 3.150000e+002 1.360000e+003
         vertex 3.300000e+002 3.750000e+002 1.360000e+003
         vertex 6.000000e+001 3.750000e+002 1.360000e+003
      endloop
   endfacet
   facet normal 0.000000e+000 0.000000e+000 1.000000e+000
      outer loop
         vertex 6.000000e+001 3.750000e+002 1.360000e+003
         vertex 6.000000e+001 2.100000e+002 1.360000e+003
         vertex 1.200000e+002 3.150000e+002 1.360000e+003
      endloop
   endfacet
   facet normal 0.000000e+000 0.000000e+000 1.000000e+000
      outer loop
         vertex 1.200000e+002 3.150000e+002 1.360000e+003
         vertex 6.000000e+001 2.100000e+002 1.360000e+003
         vertex 6.000000e+001 1.500000e+002 1.360000e+003
      endloop
   endfacet
   facet normal 0.000000e+000 0.000000e+000 1.000000e+000
      outer loop
         vertex 1.200000e+002 3.150000e+002 1.360000e+003
         vertex 6.000000e+001 1.500000e+002 1.360000e+003
         vertex 1.200000e+002 -3.150000e+002 1.360000e+003
      endloop
   endfacet
   facet normal 0.000000e+000 0.000000e+000 1.000000e+000
      outer loop
         vertex 1.665335e-013 1.500000e+002 1.360000e+003
         vertex 1.665335e-013 -1.500000e+002 1.360000e+003
         vertex 6.000000e+001 1.500000e+002 1.360000e+003
      endloop
   endfacet
   facet normal 0.000000e+000 0.000000e+000 1.000000e+000
      outer loop
         vertex 6.000000e+001 1.500000e+002 1.360000e+003
         vertex 1.665335e-013 -1.500000e+002 1.360000e+003
         vertex 6.000000e+001 -1.500000e+002 1.360000e+003
      endloop
   endfacet
   facet normal 0.000000e+000 0.000000e+000 1.000000e+000
      outer loop
         vertex 6.000000e+001 1.500000e+002 1.360000e+003
         vertex 6.000000e+001 -1.500000e+002 1.360000e+003
         vertex 1.200000e+002 -3.150000e+002 1.360000e+003
      endloop
   endfacet
   facet normal 0.000000e+000 0.000000e+000 1.000000e+000
      outer loop
         vertex 1.200000e+002 -3.150000e+002 1.360000e+003
         vertex 6.000000e+001 -1.500000e+002 1.360000e+003
         vertex 6.000000e+001 -2.100000e+002 1.360000e+003
      endloop
   endfacet
   facet normal 0.000000e+000 0.000000e+000 1.000000e+000
      outer loop
         vertex 1.200000e+002 -3.150000e+002 1.360000e+003
         vertex 6.000000e+001 -2.100000e+002 1.360000e+003
         vertex 6.000000e+001 -3.750000e+002 1.360000e+003
      endloop
   endfacet
   facet normal 1.000000e+000 0.000000e+000 0.000000e+000
      outer loop
         vertex 6.000000e+001 -2.100000e+002 1.300000e+003
         vertex 6.000000e+001 -2.100000e+002 7.500000e+002
         vertex 6.000000e+001 -1.500000e+002 1.300000e+003
      endloop
   endfacet
   facet normal 1.000000e+000 0.000000e+000 0.000000e+000
      outer loop
         vertex 6.000000e+001 -1.500000e+002 1.300000e+003
         vertex 6.000000e+001 -2.100000e+002 7.500000e+002
         vertex 6.000000e+001 -1.500000e+002 7.500000e+002
      endloop
   endfacet
   facet normal 1.000000e+000 0.000000e+000 0.000000e+000
      outer loop
         vertex 1.200000e+002 -3.750000e+002 1.300000e+003
         vertex 1.200000e+002 -3.750000e+002 7.500000e+002
         vertex 1.200000e+002 -3.150000e+002 1.300000e+003
      endloop
   endfacet
   facet normal 1.000000e+000 0.000000e+000 0.000000e+000
      outer loop
         vertex 1.200000e+002 -3.150000e+002 1.300000e+003
         vertex 1.200000e+002 -3.750000e+002 7.500000e+002
         vertex 1.200000e+002 -3.150000e+002 7.500000e+002
      endloop
   endfacet
   facet normal 1.000000e+000 0.000000e+000 0.000000e+000
      outer loop
         vertex 1.200000e+002 3.150000e+002 1.360000e+003
         vertex 1.200000e+002 -3.150000e+002 1.360000e+003
         vertex 1.200000e+002 3.150000e+002 1.300000e+003
      endloop
   endfacet
   facet normal 1.000000e+000 0.000000e+000 0.000000e+000
      outer loop
         vertex 1.200000e+002 3.150000e+002 1.300000e+003
         vertex 1.200000e+002 -3.150000e+002 1.360000e+003
         vertex 1.200000e+002 -3.150000e+002 1.300000e+003
      endloop
   endfacet
   facet normal 1.000000e+000 0.000000e+000 0.000000e+000
      outer loop
         vertex 6.000000e+001 -2.100000e+002 1.740000e+003
         vertex 6.000000e+001 -2.100000e+002 1.360000e+003
         vertex 6.000000e+001 -1.500000e+002 1.740000e+003
      endloop
   endfacet
   facet normal 1.000000e+000 0.000000e+000 0.000000e+000
      outer loop
         vertex 6.000000e+001 -1.500000e+002 1.740000e+003
         vertex 6.000000e+001 -2.100000e+002 1.360000e+003
         vertex 6.000000e+001 -1.500000e+002 1.360000e+003
      endloop
   endfacet
   facet normal 1.000000e+000 0.000000e+000 0.000000e+000
      outer loop
         vertex 6.000000e+001 1.500000e+002 1.800000e+003
         vertex 6.000000e+001 -1.500000e+002 1.800000e+003
         vertex 6.000000e+001 1.500000e+002 1.740000e+003
      endloop
   endfacet
   facet normal 1.000000e+000 0.000000e+000 0.000000e+000
      outer loop
         vertex 6.000000e+001 1.500000e+002 1.740000e+003
         vertex 6.000000e+001 -1.500000e+002 1.800000e+003
         vertex 6.000000e+001 -1.500000e+002 1.740000e+003
      endloop
   endfacet
   facet normal 1.000000e+000 0.000000e+000 0.000000e+000
      outer loop
         vertex 3.600000e+002 2.100000e+002 1.740000e+003
         vertex 3.600000e+002 2.100000e+002 1.800000e+003
         vertex 3.600000e+002 -2.100000e+002 1.740000e+003
      endloop
   endfacet
   facet normal 1.000000e+000 0.000000e+000 0.000000e+000
      outer loop
         vertex 3.600000e+002 -2.100000e+002 1.740000e+003
         vertex 3.600000e+002 2.100000e+002 1.800000e+003
         vertex 3.600000e+002 -2.100000e+002 1.800000e+003
      endloop
   endfacet
   facet normal 0.000000e+000 -1.000000e+000 0.000000e+000
      outer loop
         vertex 6.000000e+001 -3.750000e+002 0.000000e+000
         vertex 7.500000e+002 -3.750000e+002 0.000000e+000
         vertex 4.800000e+002 -3.750000e+002 6.000000e+001
      endloop
   endfacet
   facet normal 0.000000e+000 -1.000000e+000 0.000000e+000
      outer loop
         vertex 4.800000e+002 -3.750000e+002 6.000000e+001
         vertex 7.500000e+002 -3.750000e+002 0.000000e+000
         vertex 7.500000e+002 -3.750000e+002 6.000000e+001
      endloop
   endfacet
   facet normal 0.000000e+000 -1.000000e+000 0.000000e+000
      outer loop
         vertex 1.200000e+002 -3.750000e+002 6.900000e+002
         vertex 6.000000e+001 -3.750000e+002 1.360000e+003
         vertex 6.000000e+001 -3.750000e+002 0.000000e+000
      endloop
   endfacet
   facet normal 0.000000e+000 -1.000000e+000 0.000000e+000
      outer loop
         vertex 3.600000e+002 -3.750000e+002 1.300000e+003
         vertex 3.600000e+002 -3.750000e+002 1.360000e+003
         vertex 3.300000e+002 -3.750000e+002 1.300000e+003
      endloop
   endfacet
   facet normal 0.000000e+000 -1.000000e+000 0.000000e+000
      outer loop
         vertex 3.300000e+002 -3.750000e+002 1.300000e+003
         vertex 3.600000e+002 -3.750000e+002 1.360000e+003
         vertex 3.300000e+002 -3.750000e+002 1.360000e+003
      endloop
   endfacet
   facet normal 0.000000e+000 -1.000000e+000 0.000000e+000
      outer loop
         vertex 3.300000e+002 -3.750000e+002 1.300000e+003
         vertex 3.300000e+002 -3.750000e+002 1.360000e+003
         vertex 1.200000e+002 -3.750000e+002 1.300000e+003
      endloop
   endfacet
   facet normal 0.000000e+000 -1.000000e+000 0.000000e+000
      outer loop
         vertex 1.200000e+002 -3.750000e+002 1.300000e+003
         vertex 3.300000e+002 -3.750000e+002 1.360000e+003
         vertex 6.000000e+001 -3.750000e+002 1.360000e+003
      endloop
   endfacet
   facet normal 0.000000e+000 -1.000000e+000 0.000000e+000
      outer loop
         vertex 1.200000e+002 -3.750000e+002 1.300000e+003
         vertex 6.000000e+001 -3.750000e+002 1.360000e+003
         vertex 1.200000e+002 -3.750000e+002 7.500000e+002
      endloop
   endfacet
   facet normal 0.000000e+000 -1.000000e+000 0.000000e+000
      outer loop
         vertex 1.200000e+002 -3.750000e+002 7.500000e+002
         vertex 6.000000e+001 -3.750000e+002 1.360000e+003
         vertex 1.200000e+002 -3.750000e+002 6.900000e+002
      endloop
   endfacet
   facet normal 0.000000e+000 -1.000000e+000 0.000000e+000
      outer loop
         vertex 1.200000e+002 -3.750000e+002 7.500000e+002
         vertex 1.200000e+002 -3.750000e+002 6.900000e+002
         vertex 4.800000e+002 -3.750000e+002 7.500000e+002
      endloop
   endfacet
   facet normal 0.000000e+000 -1.000000e+000 0.000000e+000
      outer loop
         vertex 4.800000e+002 -3.750000e+002 7.500000e+002
         vertex 1.200000e+002 -3.750000e+002 6.900000e+002
         vertex 4.200000e+002 -3.750000e+002 6.900000e+002
      endloop
   endfacet
   facet normal 0.000000e+000 -1.000000e+000 0.000000e+000
      outer loop
         vertex 4.800000e+002 -3.750000e+002 7.500000e+002
         vertex 4.200000e+002 -3.750000e+002 6.900000e+002
         vertex 4.800000e+002 -3.750000e+002 6.000000e+001
      endloop
   endfacet
   facet normal 0.000000e+000 -1.000000e+000 0.000000e+000
      outer loop
         vertex 4.800000e+002 -3.750000e+002 6.000000e+001
         vertex 4.200000e+002 -3.750000e+002 6.900000e+002
         vertex 4.200000e+002 -3.750000e+002 6.000000e+001
      endloop
   endfacet
   facet normal 0.000000e+000 -1.000000e+000 0.000000e+000
      outer loop
         vertex 4.800000e+002 -3.750000e+002 6.000000e+001
         vertex 4.200000e+002 -3.750000e+002 6.000000e+001
         vertex 6.000000e+001 -3.750000e+002 0.000000e+000
      endloop
   endfacet
   facet normal 0.000000e+000 -1.000000e+000 0.000000e+000
      outer loop
         vertex 6.000000e+001 -3.750000e+002 0.000000e+000
         vertex 4.200000e+002 -3.750000e+002 6.000000e+001
         vertex 1.200000e+002 -3.750000e+002 6.000000e+001
      endloop
   endfacet
   facet normal 0.000000e+000 -1.000000e+000 0.000000e+000
      outer loop
         vertex 6.000000e+001 -3.750000e+002 0.000000e+000
         vertex 1.200000e+002 -3.750000e+002 6.000000e+001
         vertex 1.200000e+002 -3.750000e+002 6.900000e+002
      endloop
   endfacet
   facet normal 1.000000e+000 0.000000e+000 0.000000e+000
      outer loop
         vertex 7.500000e+002 -3.750000e+002 6.000000e+001
         vertex 7.500000e+002 -3.750000e+002 0.000000e+000
         vertex 7.500000e+002 3.750000e+002 6.000000e+001
      endloop
   endfacet
   facet normal 1.000000e+000 0.000000e+000 0.000000e+000
      outer loop
         vertex 7.500000e+002 3.750000e+002 6.000000e+001
         vertex 7.500000e+002 -3.750000e+002 0.000000e+000
         vertex 7.500000e+002 3.750000e+002 0.000000e+000
      endloop
   endfacet
   facet normal 0.000000e+000 1.000000e+000 0.000000e+000
      outer loop
         vertex 4.800000e+002 3.750000e+002 6.000000e+001
         vertex 7.500000e+002 3.750000e+002 6.000000e+001
         vertex 7.500000e+002 3.750000e+002 0.000000e+000
      endloop
   endfacet
   facet normal 0.000000e+000 1.000000e+000 0.000000e+000
      outer loop
         vertex 1.200000e+002 3.750000e+002 6.900000e+002
         vertex 1.200000e+002 3.750000e+002 6.000000e+001
         vertex 6.000000e+001 3.750000e+002 0.000000e+000
      endloop
   endfacet
   facet normal 0.000000e+000 1.000000e+000 0.000000e+000
      outer loop
         vertex 6.000000e+001 3.750000e+002 0.000000e+000
         vertex 1.200000e+002 3.750000e+002 6.000000e+001
         vertex 4.200000e+002 3.750000e+002 6.000000e+001
      endloop
   endfacet
   facet normal 0.000000e+000 1.000000e+000 0.000000e+000
      outer loop
         vertex 3.600000e+002 3.750000e+002 1.360000e+003
         vertex 3.600000e+002 3.750000e+002 1.300000e+003
         vertex 3.300000e+002 3.750000e+002 1.360000e+003
      endloop
   endfacet
   facet normal 0.000000e+000 1.000000e+000 0.000000e+000
      outer loop
         vertex 3.300000e+002 3.750000e+002 1.360000e+003
         vertex 3.600000e+002 3.750000e+002 1.300000e+003
         vertex 3.300000e+002 3.750000e+002 1.300000e+003
      endloop
   endfacet
   facet normal 0.000000e+000 1.000000e+000 0.000000e+000
      outer loop
         vertex 3.300000e+002 3.750000e+002 1.360000e+003
         vertex 3.300000e+002 3.750000e+002 1.300000e+003
         vertex 6.000000e+001 3.750000e+002 1.360000e+003
      endloop
   endfacet
   facet normal 0.000000e+000 1.000000e+000 0.000000e+000
      outer loop
         vertex 6.000000e+001 3.750000e+002 1.360000e+003
         vertex 3.300000e+002 3.750000e+002 1.300000e+003
         vertex 1.200000e+002 3.750000e+002 1.300000e+003
      endloop
   endfacet
   facet normal 0.000000e+000 1.000000e+000 0.000000e+000
      outer loop
         vertex 6.000000e+001 3.750000e+002 1.360000e+003
         vertex 1.200000e+002 3.750000e+002 1.300000e+003
         vertex 1.200000e+002 3.750000e+002 7.500000e+002
      endloop
   endfacet
   facet normal 0.000000e+000 1.000000e+000 0.000000e+000
      outer loop
         vertex 7.500000e+002 3.750000e+002 0.000000e+000
         vertex 6.000000e+001 3.750000e+002 0.000000e+000
         vertex 4.800000e+002 3.750000e+002 6.000000e+001
      endloop
   endfacet
   facet normal 0.000000e+000 1.000000e+000 0.000000e+000
      outer loop
         vertex 4.800000e+002 3.750000e+002 6.000000e+001
         vertex 6.000000e+001 3.750000e+002 0.000000e+000
         vertex 4.200000e+002 3.750000e+002 6.000000e+001
      endloop
   endfacet
   facet normal 0.000000e+000 1.000000e+000 0.000000e+000
      outer loop
         vertex 4.800000e+002 3.750000e+002 6.000000e+001
         vertex 4.200000e+002 3.750000e+002 6.000000e+001
         vertex 4.800000e+002 3.750000e+002 7.500000e+002
      endloop
   endfacet
   facet normal 0.000000e+000 1.000000e+000 0.000000e+000
      outer loop
         vertex 4.800000e+002 3.750000e+002 7.500000e+002
         vertex 4.200000e+002 3.750000e+002 6.000000e+001
         vertex 4.200000e+002 3.750000e+002 6.900000e+002
      endloop
   endfacet
   facet normal 0.000000e+000 1.000000e+000 0.000000e+000
      outer loop
         vertex 4.800000e+002 3.750000e+002 7.500000e+002
         vertex 4.200000e+002 3.750000e+002 6.900000e+002
         vertex 1.200000e+002 3.750000e+002 7.500000e+002
      endloop
   endfacet
   facet normal 0.000000e+000 1.000000e+000 0.000000e+000
      outer loop
         vertex 1.200000e+002 3.750000e+002 7.500000e+002
         vertex 4.200000e+002 3.750000e+002 6.900000e+002
         vertex 1.200000e+002 3.750000e+002 6.900000e+002
      endloop
   endfacet
   facet normal 0.000000e+000 1.000000e+000 0.000000e+000
      outer loop
         vertex 1.200000e+002 3.750000e+002 7.500000e+002
         vertex 1.200000e+002 3.750000e+002 6.900000e+002
         vertex 6.000000e+001 3.750000e+002 1.360000e+003
      endloop
   endfacet
   facet normal 0.000000e+000 1.000000e+000 0.000000e+000
      outer loop
         vertex 6.000000e+001 3.750000e+002 1.360000e+003
         vertex 1.200000e+002 3.750000e+002 6.900000e+002
         vertex 6.000000e+001 3.750000e+002 0.000000e+000
      endloop
   endfacet
   facet normal -1.000000e+000 0.000000e+000 0.000000e+000
      outer loop
         vertex 1.665335e-013 -1.500000e+002 7.500000e+002
         vertex 1.665335e-013 1.500000e+002 7.500000e+002
         vertex 1.665335e-013 2.100000e+002 0.000000e+000
      endloop
   endfacet
   facet normal -1.000000e+000 0.000000e+000 0.000000e+000
      outer loop
         vertex 1.665335e-013 1.500000e+002 1.360000e+003
         vertex 1.665335e-013 1.500000e+002 1.300000e+003
         vertex 1.665335e-013 -1.500000e+002 1.360000e+003
      endloop
   endfacet
   facet normal -1.000000e+000 0.000000e+000 0.000000e+000
      outer loop
         vertex 1.665335e-013 -1.500000e+002 1.360000e+003
         vertex 1.665335e-013 1.500000e+002 1.300000e+003
         vertex 1.665335e-013 -1.500000e+002 1.300000e+003
      endloop
   endfacet
   facet normal -1.000000e+000 0.000000e+000 0.000000e+000
      outer loop
         vertex 1.665335e-013 -1.500000e+002 1.360000e+003
         vertex 1.665335e-013 -1.500000e+002 1.300000e+003
         vertex 1.665335e-013 -2.100000e+002 1.800000e+003
      endloop
   endfacet
   facet normal -1.000000e+000 0.000000e+000 0.000000e+000
      outer loop
         vertex 1.665335e-013 -2.100000e+002 1.800000e+003
         vertex 1.665335e-013 -1.500000e+002 1.300000e+003
         vertex 1.665335e-013 -1.500000e+002 7.500000e+002
      endloop
   endfacet
   facet normal -1.000000e+000 0.000000e+000 0.000000e+000
      outer loop
         vertex 1.665335e-013 -2.100000e+002 1.800000e+003
         vertex 1.665335e-013 -1.500000e+002 7.500000e+002
         vertex 1.665335e-013 -2.100000e+002 0.000000e+000
      endloop
   endfacet
   facet normal -1.000000e+000 0.000000e+000 0.000000e+000
      outer loop
         vertex 1.665335e-013 -2.100000e+002 0.000000e+000
         vertex 1.665335e-013 -1.500000e+002 7.500000e+002
         vertex 1.665335e-013 2.100000e+002 0.000000e+000
      endloop
   endfacet
   facet normal -1.000000e+000 0.000000e+000 0.000000e+000
      outer loop
         vertex 1.665335e-013 1.500000e+002 7.500000e+002
         vertex 1.665335e-013 1.500000e+002 1.300000e+003
         vertex 1.665335e-013 2.100000e+002 0.000000e+000
      endloop
   endfacet
   facet normal -1.000000e+000 0.000000e+000 0.000000e+000
      outer loop
         vertex 1.665335e-013 2.100000e+002 0.000000e+000
         vertex 1.665335e-013 1.500000e+002 1.300000e+003
         vertex 1.665335e-013 1.500000e+002 1.360000e+003
      endloop
   endfacet
   facet normal -1.000000e+000 0.000000e+000 0.000000e+000
      outer loop
         vertex 1.665335e-013 2.100000e+002 0.000000e+000
         vertex 1.665335e-013 1.500000e+002 1.360000e+003
         vertex 1.665335e-013 2.100000e+002 1.800000e+003
      endloop
   endfacet
   facet normal -1.000000e+000 0.000000e+000 0.000000e+000
      outer loop
         vertex 1.665335e-013 2.100000e+002 1.800000e+003
         vertex 1.665335e-013 1.500000e+002 1.360000e+003
         vertex 1.665335e-013 1.500000e+002 1.740000e+003
      endloop
   endfacet
   facet normal -1.000000e+000 0.000000e+000 0.000000e+000
      outer loop
         vertex 1.665335e-013 2.100000e+002 1.800000e+003
         vertex 1.665335e-013 1.500000e+002 1.740000e+003
         vertex 1.665335e-013 -2.100000e+002 1.800000e+003
      endloop
   endfacet
   facet normal -1.000000e+000 0.000000e+000 0.000000e+000
      outer loop
         vertex 1.665335e-013 -2.100000e+002 1.800000e+003
         vertex 1.665335e-013 1.500000e+002 1.740000e+003
         vertex 1.665335e-013 -1.500000e+002 1.740000e+003
      endloop
   endfacet
   facet normal -1.000000e+000 0.000000e+000 0.000000e+000
      outer loop
         vertex 1.665335e-013 -2.100000e+002 1.800000e+003
         vertex 1.665335e-013 -1.500000e+002 1.740000e+003
         vertex 1.665335e-013 -1.500000e+002 1.360000e+003
      endloop
   endfacet
   facet normal 0.000000e+000 0.000000e+000 1.000000e+000
      outer loop
         vertex 3.000000e+002 1.500000e+002 1.800000e+003
         vertex 3.600000e+002 2.100000e+002 1.800000e+003
         vertex 6.000000e+001 1.500000e+002 1.800000e+003
      endloop
   endfacet
   facet normal 0.000000e+000 0.000000e+000 1.000000e+000
      outer loop
         vertex 6.000000e+001 1.500000e+002 1.800000e+003
         vertex 3.600000e+002 2.100000e+002 1.800000e+003
         vertex 1.665335e-013 2.100000e+002 1.800000e+003
      endloop
   endfacet
   facet normal 0.000000e+000 0.000000e+000 1.000000e+000
      outer loop
         vertex 6.000000e+001 1.500000e+002 1.800000e+003
         vertex 1.665335e-013 2.100000e+002 1.800000e+003
         vertex 6.000000e+001 -1.500000e+002 1.800000e+003
      endloop
   endfacet
   facet normal 0.000000e+000 0.000000e+000 1.000000e+000
      outer loop
         vertex 6.000000e+001 -1.500000e+002 1.800000e+003
         vertex 1.665335e-013 2.100000e+002 1.800000e+003
         vertex 1.665335e-013 -2.100000e+002 1.800000e+003
      endloop
   endfacet
   facet normal 0.000000e+000 0.000000e+000 1.000000e+000
      outer loop
         vertex 6.000000e+001 -1.500000e+002 1.800000e+003
         vertex 1.665335e-013 -2.100000e+002 1.800000e+003
         vertex 3.000000e+002 -1.500000e+002 1.800000e+003
      endloop
   endfacet
   facet normal 0.000000e+000 0.000000e+000 1.000000e+000
      outer loop
         vertex 3.000000e+002 -1.500000e+002 1.800000e+003
         vertex 1.665335e-013 -2.100000e+002 1.800000e+003
         vertex 3.600000e+002 -2.100000e+002 1.800000e+003
      endloop
   endfacet
   facet normal 0.000000e+000 0.000000e+000 1.000000e+000
      outer loop
         vertex 3.000000e+002 -1.500000e+002 1.800000e+003
         vertex 3.600000e+002 -2.100000e+002 1.800000e+003
         vertex 3.000000e+002 1.500000e+002 1.800000e+003
      endloop
   endfacet
   facet normal 0.000000e+000 0.000000e+000 1.000000e+000
      outer loop
         vertex 3.000000e+002 1.500000e+002 1.800000e+003
         vertex 3.600000e+002 -2.100000e+002 1.800000e+003
         vertex 3.600000e+002 2.100000e+002 1.800000e+003
      endloop
   endfacet
   facet normal 0.000000e+000 0.000000e+000 -1.000000e+000
      outer loop
         vertex 7.500000e+002 -3.750000e+002 0.000000e+000
         vertex 6.000000e+001 -3.750000e+002 0.000000e+000
         vertex 7.500000e+002 3.750000e+002 0.000000e+000
      endloop
   endfacet
   facet normal 0.000000e+000 0.000000e+000 -1.000000e+000
      outer loop
         vertex 7.500000e+002 3.750000e+002 0.000000e+000
         vertex 6.000000e+001 -3.750000e+002 0.000000e+000
         vertex 6.000000e+001 -2.100000e+002 0.000000e+000
      endloop
   endfacet
   facet normal 0.000000e+000 0.000000e+000 -1.000000e+000
      outer loop
         vertex 6.000000e+001 3.750000e+002 0.000000e+000
         vertex 7.500000e+002 3.750000e+002 0.000000e+000
         vertex 6.000000e+001 2.100000e+002 0.000000e+000
      endloop
   endfacet
   facet normal 0.000000e+000 0.000000e+000 -1.000000e+000
      outer loop
         vertex 6.000000e+001 2.100000e+002 0.000000e+000
         vertex 7.500000e+002 3.750000e+002 0.000000e+000
         vertex 6.000000e+001 -2.100000e+002 0.000000e+000
      endloop
   endfacet
   facet normal 0.000000e+000 0.000000e+000 -1.000000e+000
      outer loop
         vertex 6.000000e+001 2.100000e+002 0.000000e+000
         vertex 6.000000e+001 -2.100000e+002 0.000000e+000
         vertex 1.665335e-013 2.100000e+002 0.000000e+000
      endloop
   endfacet
   facet normal 0.000000e+000 0.000000e+000 -1.000000e+000
      outer loop
         vertex 1.665335e-013 2.100000e+002 0.000000e+000
         vertex 6.000000e+001 -2.100000e+002 0.000000e+000
         vertex 1.665335e-013 -2.100000e+002 0.000000e+000
      endloop
   endfacet
   facet normal 0.000000e+000 1.000000e+000 0.000000e+000
      outer loop
         vertex 3.600000e+002 2.100000e+002 1.800000e+003
         vertex 3.600000e+002 2.100000e+002 1.740000e+003
         vertex 1.665335e-013 2.100000e+002 1.800000e+003
      endloop
   endfacet
   facet normal 0.000000e+000 1.000000e+000 0.000000e+000
      outer loop
         vertex 1.665335e-013 2.100000e+002 1.800000e+003
         vertex 3.600000e+002 2.100000e+002 1.740000e+003
         vertex 6.000000e+001 2.100000e+002 1.740000e+003
      endloop
   endfacet
   facet normal 0.000000e+000 1.000000e+000 0.000000e+000
      outer loop
         vertex 1.665335e-013 2.100000e+002 1.800000e+003
         vertex 6.000000e+001 2.100000e+002 1.740000e+003
         vertex 6.000000e+001 2.100000e+002 1.360000e+003
      endloop
   endfacet
   facet normal 0.000000e+000 1.000000e+000 0.000000e+000
      outer loop
         vertex 6.000000e+001 2.100000e+002 1.360000e+003
         vertex 6.000000e+001 2.100000e+002 1.300000e+003
         vertex 1.665335e-013 2.100000e+002 1.800000e+003
      endloop
   endfacet
   facet normal 0.000000e+000 1.000000e+000 0.000000e+000
      outer loop
         vertex 1.665335e-013 2.100000e+002 1.800000e+003
         vertex 6.000000e+001 2.100000e+002 1.300000e+003
         vertex 6.000000e+001 2.100000e+002 7.500000e+002
      endloop
   endfacet
   facet normal 0.000000e+000 1.000000e+000 0.000000e+000
      outer loop
         vertex 1.665335e-013 2.100000e+002 1.800000e+003
         vertex 6.000000e+001 2.100000e+002 7.500000e+002
         vertex 1.665335e-013 2.100000e+002 0.000000e+000
      endloop
   endfacet
   facet normal 0.000000e+000 1.000000e+000 0.000000e+000
      outer loop
         vertex 1.665335e-013 2.100000e+002 0.000000e+000
         vertex 6.000000e+001 2.100000e+002 7.500000e+002
         vertex 6.000000e+001 2.100000e+002 0.000000e+000
      endloop
   endfacet
   facet normal -1.000000e+000 0.000000e+000 0.000000e+000
      outer loop
         vertex 6.000000e+001 2.100000e+002 1.300000e+003
         vertex 6.000000e+001 2.100000e+002 1.360000e+003
         vertex 6.000000e+001 3.150000e+002 1.300000e+003
      endloop
   endfacet
   facet normal -1.000000e+000 0.000000e+000 0.000000e+000
      outer loop
         vertex 6.000000e+001 3.150000e+002 1.300000e+003
         vertex 6.000000e+001 2.100000e+002 1.360000e+003
         vertex 6.000000e+001 3.750000e+002 1.360000e+003
      endloop
   endfacet
   facet normal -1.000000e+000 0.000000e+000 0.000000e+000
      outer loop
         vertex 6.000000e+001 3.150000e+002 1.300000e+003
         vertex 6.000000e+001 3.750000e+002 1.360000e+003
         vertex 6.000000e+001 3.150000e+002 7.500000e+002
      endloop
   endfacet
   facet normal -1.000000e+000 0.000000e+000 0.000000e+000
      outer loop
         vertex 6.000000e+001 3.150000e+002 7.500000e+002
         vertex 6.000000e+001 3.750000e+002 1.360000e+003
         vertex 6.000000e+001 3.750000e+002 0.000000e+000
      endloop
   endfacet
   facet normal -1.000000e+000 0.000000e+000 0.000000e+000
      outer loop
         vertex 6.000000e+001 3.150000e+002 7.500000e+002
         vertex 6.000000e+001 3.750000e+002 0.000000e+000
         vertex 6.000000e+001 2.100000e+002 7.500000e+002
      endloop
   endfacet
   facet normal -1.000000e+000 0.000000e+000 0.000000e+000
      outer loop
         vertex 6.000000e+001 2.100000e+002 7.500000e+002
         vertex 6.000000e+001 3.750000e+002 0.000000e+000
         vertex 6.000000e+001 2.100000e+002 0.000000e+000
      endloop
   endfacet
   facet normal -1.000000e+000 0.000000e+000 0.000000e+000
      outer loop
         vertex 6.000000e+001 -3.150000e+002 7.500000e+002
         vertex 6.000000e+001 -2.100000e+002 7.500000e+002
         vertex 6.000000e+001 -2.100000e+002 0.000000e+000
      endloop
   endfacet
   facet normal -1.000000e+000 0.000000e+000 0.000000e+000
      outer loop
         vertex 6.000000e+001 -3.750000e+002 1.360000e+003
         vertex 6.000000e+001 -2.100000e+002 1.360000e+003
         vertex 6.000000e+001 -2.100000e+002 1.300000e+003
      endloop
   endfacet
   facet normal -1.000000e+000 0.000000e+000 0.000000e+000
      outer loop
         vertex 6.000000e+001 -2.100000e+002 1.300000e+003
         vertex 6.000000e+001 -3.150000e+002 1.300000e+003
         vertex 6.000000e+001 -3.750000e+002 1.360000e+003
      endloop
   endfacet
   facet normal -1.000000e+000 0.000000e+000 0.000000e+000
      outer loop
         vertex 6.000000e+001 -3.750000e+002 1.360000e+003
         vertex 6.000000e+001 -3.150000e+002 1.300000e+003
         vertex 6.000000e+001 -3.150000e+002 7.500000e+002
      endloop
   endfacet
   facet normal -1.000000e+000 0.000000e+000 0.000000e+000
      outer loop
         vertex 6.000000e+001 -3.750000e+002 1.360000e+003
         vertex 6.000000e+001 -3.150000e+002 7.500000e+002
         vertex 6.000000e+001 -3.750000e+002 0.000000e+000
      endloop
   endfacet
   facet normal -1.000000e+000 0.000000e+000 0.000000e+000
      outer loop
         vertex 6.000000e+001 -3.750000e+002 0.000000e+000
         vertex 6.000000e+001 -3.150000e+002 7.500000e+002
         vertex 6.000000e+001 -2.100000e+002 0.000000e+000
      endloop
   endfacet
   facet normal 0.000000e+000 -1.000000e+000 0.000000e+000
      outer loop
         vertex 6.000000e+001 -2.100000e+002 1.300000e+003
         vertex 1.665335e-013 -2.100000e+002 1.800000e+003
         vertex 6.000000e+001 -2.100000e+002 7.500000e+002
      endloop
   endfacet
   facet normal 0.000000e+000 -1.000000e+000 0.000000e+000
      outer loop
         vertex 6.000000e+001 -2.100000e+002 7.500000e+002
         vertex 1.665335e-013 -2.100000e+002 1.800000e+003
         vertex 1.665335e-013 -2.100000e+002 0.000000e+000
      endloop
   endfacet
   facet normal 0.000000e+000 -1.000000e+000 0.000000e+000
      outer loop
         vertex 6.000000e+001 -2.100000e+002 7.500000e+002
         vertex 1.665335e-013 -2.100000e+002 0.000000e+000
         vertex 6.000000e+001 -2.100000e+002 0.000000e+000
      endloop
   endfacet
   facet normal 0.000000e+000 -1.000000e+000 0.000000e+000
      outer loop
         vertex 3.600000e+002 -2.100000e+002 1.740000e+003
         vertex 3.600000e+002 -2.100000e+002 1.800000e+003
         vertex 6.000000e+001 -2.100000e+002 1.740000e+003
      endloop
   endfacet
   facet normal 0.000000e+000 -1.000000e+000 0.000000e+000
      outer loop
         vertex 6.000000e+001 -2.100000e+002 1.740000e+003
         vertex 3.600000e+002 -2.100000e+002 1.800000e+003
         vertex 1.665335e-013 -2.100000e+002 1.800000e+003
      endloop
   endfacet
   facet normal 0.000000e+000 -1.000000e+000 0.000000e+000
      outer loop
         vertex 6.000000e+001 -2.100000e+002 1.740000e+003
         vertex 1.665335e-013 -2.100000e+002 1.800000e+003
         vertex 6.000000e+001 -2.100000e+002 1.360000e+003
      endloop
   endfacet
   facet normal 0.000000e+000 -1.000000e+000 0.000000e+000
      outer loop
         vertex 6.000000e+001 -2.100000e+002 1.360000e+003
         vertex 1.665335e-013 -2.100000e+002 1.800000e+003
         vertex 6.000000e+001 -2.100000e+002 1.300000e+003
      endloop
   endfacet
   facet normal 0.000000e+000 0.000000e+000 1.000000e+000
      outer loop
         vertex 4.800000e+002 -3.750000e+002 7.500000e+002
         vertex 4.800000e+002 3.750000e+002 7.500000e+002
         vertex 1.200000e+002 3.750000e+002 7.500000e+002
      endloop
   endfacet
   facet normal 0.000000e+000 0.000000e+000 1.000000e+000
      outer loop
         vertex 1.200000e+002 3.750000e+002 7.500000e+002
         vertex 1.200000e+002 3.150000e+002 7.500000e+002
         vertex 4.800000e+002 -3.750000e+002 7.500000e+002
      endloop
   endfacet
   facet normal 0.000000e+000 0.000000e+000 1.000000e+000
      outer loop
         vertex 4.800000e+002 -3.750000e+002 7.500000e+002
         vertex 1.200000e+002 3.150000e+002 7.500000e+002
         vertex 6.000000e+001 3.150000e+002 7.500000e+002
      endloop
   endfacet
   facet normal 0.000000e+000 0.000000e+000 1.000000e+000
      outer loop
         vertex 4.800000e+002 -3.750000e+002 7.500000e+002
         vertex 6.000000e+001 3.150000e+002 7.500000e+002
         vertex 6.000000e+001 2.100000e+002 7.500000e+002
      endloop
   endfacet
   facet normal 0.000000e+000 0.000000e+000 1.000000e+000
      outer loop
         vertex 6.000000e+001 2.100000e+002 7.500000e+002
         vertex 6.000000e+001 1.500000e+002 7.500000e+002
         vertex 4.800000e+002 -3.750000e+002 7.500000e+002
      endloop
   endfacet
   facet normal 0.000000e+000 0.000000e+000 1.000000e+000
      outer loop
         vertex 4.800000e+002 -3.750000e+002 7.500000e+002
         vertex 6.000000e+001 1.500000e+002 7.500000e+002
         vertex 1.200000e+002 -3.150000e+002 7.500000e+002
      endloop
   endfacet
   facet normal 0.000000e+000 0.000000e+000 1.000000e+000
      outer loop
         vertex 4.800000e+002 -3.750000e+002 7.500000e+002
         vertex 1.200000e+002 -3.150000e+002 7.500000e+002
         vertex 1.200000e+002 -3.750000e+002 7.500000e+002
      endloop
   endfacet
   facet normal 0.000000e+000 0.000000e+000 1.000000e+000
      outer loop
         vertex 1.665335e-013 1.500000e+002 7.500000e+002
         vertex 1.665335e-013 -1.500000e+002 7.500000e+002
         vertex 6.000000e+001 1.500000e+002 7.500000e+002
      endloop
   endfacet
   facet normal 0.000000e+000 0.000000e+000 1.000000e+000
      outer loop
         vertex 6.000000e+001 1.500000e+002 7.500000e+002
         vertex 1.665335e-013 -1.500000e+002 7.500000e+002
         vertex 6.000000e+001 -1.500000e+002 7.500000e+002
      endloop
   endfacet
   facet normal 0.000000e+000 0.000000e+000 1.000000e+000
      outer loop
         vertex 6.000000e+001 1.500000e+002 7.500000e+002
         vertex 6.000000e+001 -1.500000e+002 7.500000e+002
         vertex 1.200000e+002 -3.150000e+002 7.500000e+002
      endloop
   endfacet
   facet normal 0.000000e+000 0.000000e+000 1.000000e+000
      outer loop
         vertex 1.200000e+002 -3.150000e+002 7.500000e+002
         vertex 6.000000e+001 -1.500000e+002 7.500000e+002
         vertex 6.000000e+001 -2.100000e+002 7.500000e+002
      endloop
   endfacet
   facet normal 0.000000e+000 0.000000e+000 1.000000e+000
      outer loop
         vertex 1.200000e+002 -3.150000e+002 7.500000e+002
         vertex 6.000000e+001 -2.100000e+002 7.500000e+002
         vertex 6.000000e+001 -3.150000e+002 7.500000e+002
      endloop
   endfacet
   facet normal 0.000000e+000 0.000000e+000 -1.000000e+000
      outer loop
         vertex 6.000000e+001 1.500000e+002 1.740000e+003
         vertex 6.000000e+001 2.100000e+002 1.740000e+003
         vertex 3.000000e+002 1.500000e+002 1.740000e+003
      endloop
   endfacet
   facet normal 0.000000e+000 0.000000e+000 -1.000000e+000
      outer loop
         vertex 3.000000e+002 1.500000e+002 1.740000e+003
         vertex 6.000000e+001 2.100000e+002 1.740000e+003
         vertex 3.600000e+002 2.100000e+002 1.740000e+003
      endloop
   endfacet
   facet normal 0.000000e+000 0.000000e+000 -1.000000e+000
      outer loop
         vertex 3.000000e+002 1.500000e+002 1.740000e+003
         vertex 3.600000e+002 2.100000e+002 1.740000e+003
         vertex 3.000000e+002 -1.500000e+002 1.740000e+003
      endloop
   endfacet
   facet normal 0.000000e+000 0.000000e+000 -1.000000e+000
      outer loop
         vertex 3.000000e+002 -1.500000e+002 1.740000e+003
         vertex 3.600000e+002 2.100000e+002 1.740000e+003
         vertex 3.600000e+002 -2.100000e+002 1.740000e+003
      endloop
   endfacet
   facet normal 0.000000e+000 0.000000e+000 -1.000000e+000
      outer loop
         vertex 3.000000e+002 -1.500000e+002 1.740000e+003
         vertex 3.600000e+002 -2.100000e+002 1.740000e+003
         vertex 6.000000e+001 -1.500000e+002 1.740000e+003
      endloop
   endfacet
   facet normal 0.000000e+000 0.000000e+000 -1.000000e+000
      outer loop
         vertex 6.000000e+001 -1.500000e+002 1.740000e+003
         vertex 3.600000e+002 -2.100000e+002 1.740000e+003
         vertex 6.000000e+001 -2.100000e+002 1.740000e+003
      endloop
   endfacet
   facet normal 1.000000e+000 0.000000e+000 0.000000e+000
      outer loop
         vertex 6.000000e+001 2.100000e+002 1.360000e+003
         vertex 6.000000e+001 2.100000e+002 1.740000e+003
         vertex 6.000000e+001 1.500000e+002 1.360000e+003
      endloop
   endfacet
   facet normal 1.000000e+000 0.000000e+000 0.000000e+000
      outer loop
         vertex 6.000000e+001 1.500000e+002 1.360000e+003
         vertex 6.000000e+001 2.100000e+002 1.740000e+003
         vertex 6.000000e+001 1.500000e+002 1.740000e+003
      endloop
   endfacet
   facet normal 0.000000e+000 0.000000e+000 -1.000000e+000
      outer loop
         vertex 3.300000e+002 3.150000e+002 1.300000e+003
         vertex 1.200000e+002 3.150000e+002 1.300000e+003
         vertex 3.300000e+002 3.750000e+002 1.300000e+003
      endloop
   endfacet
   facet normal 0.000000e+000 0.000000e+000 -1.000000e+000
      outer loop
         vertex 3.300000e+002 3.750000e+002 1.300000e+003
         vertex 1.200000e+002 3.150000e+002 1.300000e+003
         vertex 1.200000e+002 3.750000e+002 1.300000e+003
      endloop
   endfacet
   facet normal 1.000000e+000 0.000000e+000 0.000000e+000
      outer loop
         vertex 1.200000e+002 3.750000e+002 7.500000e+002
         vertex 1.200000e+002 3.750000e+002 1.300000e+003
         vertex 1.200000e+002 3.150000e+002 7.500000e+002
      endloop
   endfacet
   facet normal 1.000000e+000 0.000000e+000 0.000000e+000
      outer loop
         vertex 1.200000e+002 3.150000e+002 7.500000e+002
         vertex 1.200000e+002 3.750000e+002 1.300000e+003
         vertex 1.200000e+002 3.150000e+002 1.300000e+003
      endloop
   endfacet
   facet normal 0.000000e+000 1.000000e+000 0.000000e+000
      outer loop
         vertex 1.200000e+002 -3.150000e+002 1.300000e+003
         vertex 1.200000e+002 -3.150000e+002 1.360000e+003
         vertex 3.300000e+002 -3.150000e+002 1.300000e+003
      endloop
   endfacet
   facet normal 0.000000e+000 1.000000e+000 0.000000e+000
      outer loop
         vertex 3.300000e+002 -3.150000e+002 1.300000e+003
         vertex 1.200000e+002 -3.150000e+002 1.360000e+003
         vertex 3.300000e+002 -3.150000e+002 1.360000e+003
      endloop
   endfacet
   facet normal 0.000000e+000 1.000000e+000 0.000000e+000
      outer loop
         vertex 3.300000e+002 -3.150000e+002 1.300000e+003
         vertex 3.300000e+002 -3.150000e+002 1.360000e+003
         vertex 3.600000e+002 -3.150000e+002 1.300000e+003
      endloop
   endfacet
   facet normal 0.000000e+000 1.000000e+000 0.000000e+000
      outer loop
         vertex 3.600000e+002 -3.150000e+002 1.300000e+003
         vertex 3.300000e+002 -3.150000e+002 1.360000e+003
         vertex 3.600000e+002 -3.150000e+002 1.360000e+003
      endloop
   endfacet
   facet normal 0.000000e+000 -1.000000e+000 0.000000e+000
      outer loop
         vertex 3.600000e+002 3.150000e+002 1.300000e+003
         vertex 3.600000e+002 3.150000e+002 1.360000e+003
         vertex 3.300000e+002 3.150000e+002 1.300000e+003
      endloop
   endfacet
   facet normal 0.000000e+000 -1.000000e+000 0.000000e+000
      outer loop
         vertex 3.300000e+002 3.150000e+002 1.300000e+003
         vertex 3.600000e+002 3.150000e+002 1.360000e+003
         vertex 3.300000e+002 3.150000e+002 1.360000e+003
      endloop
   endfacet
   facet normal 0.000000e+000 -1.000000e+000 0.000000e+000
      outer loop
         vertex 3.300000e+002 3.150000e+002 1.300000e+003
         vertex 3.300000e+002 3.150000e+002 1.360000e+003
         vertex 1.200000e+002 3.150000e+002 1.300000e+003
      endloop
   endfacet
   facet normal 0.000000e+000 -1.000000e+000 0.000000e+000
      outer loop
         vertex 1.200000e+002 3.150000e+002 1.300000e+003
         vertex 3.300000e+002 3.150000e+002 1.360000e+003
         vertex 1.200000e+002 3.150000e+002 1.360000e+003
      endloop
   endfacet
   facet normal -1.000000e+000 0.000000e+000 0.000000e+000
      outer loop
         vertex 3.000000e+002 -1.500000e+002 1.800000e+003
         vertex 3.000000e+002 1.500000e+002 1.800000e+003
         vertex 3.000000e+002 -1.500000e+002 1.740000e+003
      endloop
   endfacet
   facet normal -1.000000e+000 0.000000e+000 0.000000e+000
      outer loop
         vertex 3.000000e+002 -1.500000e+002 1.740000e+003
         vertex 3.000000e+002 1.500000e+002 1.800000e+003
         vertex 3.000000e+002 1.500000e+002 1.740000e+003
      endloop
   endfacet
   facet normal 0.000000e+000 -1.000000e+000 0.000000e+000
      outer loop
         vertex 3.000000e+002 1.500000e+002 1.800000e+003
         vertex 6.000000e+001 1.500000e+002 1.800000e+003
         vertex 3.000000e+002 1.500000e+002 1.740000e+003
      endloop
   endfacet
   facet normal 0.000000e+000 -1.000000e+000 0.000000e+000
      outer loop
         vertex 3.000000e+002 1.500000e+002 1.740000e+003
         vertex 6.000000e+001 1.500000e+002 1.800000e+003
         vertex 6.000000e+001 1.500000e+002 1.740000e+003
      endloop
   endfacet
   facet normal 0.000000e+000 1.000000e+000 0.000000e+000
      outer loop
         vertex 6.000000e+001 -1.500000e+002 1.800000e+003
         vertex 3.000000e+002 -1.500000e+002 1.800000e+003
         vertex 6.000000e+001 -1.500000e+002 1.740000e+003
      endloop
   endfacet
   facet normal 0.000000e+000 1.000000e+000 0.000000e+000
      outer loop
         vertex 6.000000e+001 -1.500000e+002 1.740000e+003
         vertex 3.000000e+002 -1.500000e+002 1.800000e+003
         vertex 3.000000e+002 -1.500000e+002 1.740000e+003
      endloop
   endfacet
   facet normal 0.000000e+000 1.000000e+000 0.000000e+000
      outer loop
         vertex 1.665335e-013 -1.500000e+002 1.360000e+003
         vertex 1.665335e-013 -1.500000e+002 1.740000e+003
         vertex 6.000000e+001 -1.500000e+002 1.360000e+003
      endloop
   endfacet
   facet normal 0.000000e+000 1.000000e+000 0.000000e+000
      outer loop
         vertex 6.000000e+001 -1.500000e+002 1.360000e+003
         vertex 1.665335e-013 -1.500000e+002 1.740000e+003
         vertex 6.000000e+001 -1.500000e+002 1.740000e+003
      endloop
   endfacet
   facet normal 0.000000e+000 0.000000e+000 -1.000000e+000
      outer loop
         vertex 1.665335e-013 -1.500000e+002 1.740000e+003
         vertex 1.665335e-013 1.500000e+002 1.740000e+003
         vertex 6.000000e+001 -1.500000e+002 1.740000e+003
      endloop
   endfacet
   facet normal 0.000000e+000 0.000000e+000 -1.000000e+000
      outer loop
         vertex 6.000000e+001 -1.500000e+002 1.740000e+003
         vertex 1.665335e-013 1.500000e+002 1.740000e+003
         vertex 6.000000e+001 1.500000e+002 1.740000e+003
      endloop
   endfacet
   facet normal 0.000000e+000 -1.000000e+000 -2.191230e-016
      outer loop
         vertex 1.665335e-013 1.500000e+002 1.740000e+003
         vertex 1.665335e-013 1.500000e+002 1.360000e+003
         vertex 6.000000e+001 1.500000e+002 1.740000e+003
      endloop
   endfacet
   facet normal 0.000000e+000 -1.000000e+000 -2.191230e-016
      outer loop
         vertex 6.000000e+001 1.500000e+002 1.740000e+003
         vertex 1.665335e-013 1.500000e+002 1.360000e+003
         vertex 6.000000e+001 1.500000e+002 1.360000e+003
      endloop
   endfacet
   facet normal 1.000000e+000 0.000000e+000 0.000000e+000
      outer loop
         vertex 6.000000e+001 2.100000e+002 7.500000e+002
         vertex 6.000000e+001 2.100000e+002 1.300000e+003
         vertex 6.000000e+001 1.500000e+002 7.500000e+002
      endloop
   endfacet
   facet normal 1.000000e+000 0.000000e+000 0.000000e+000
      outer loop
         vertex 6.000000e+001 1.500000e+002 7.500000e+002
         vertex 6.000000e+001 2.100000e+002 1.300000e+003
         vertex 6.000000e+001 1.500000e+002 1.300000e+003
      endloop
   endfacet
   facet normal 0.000000e+000 1.000000e+000 0.000000e+000
      outer loop
         vertex 6.000000e+001 -3.150000e+002 7.500000e+002
         vertex 6.000000e+001 -3.150000e+002 1.300000e+003
         vertex 1.200000e+002 -3.150000e+002 7.500000e+002
      endloop
   endfacet
   facet normal 0.000000e+000 1.000000e+000 0.000000e+000
      outer loop
         vertex 1.200000e+002 -3.150000e+002 7.500000e+002
         vertex 6.000000e+001 -3.150000e+002 1.300000e+003
         vertex 1.200000e+002 -3.150000e+002 1.300000e+003
      endloop
   endfacet
   facet normal 0.000000e+000 0.000000e+000 -1.000000e+000
      outer loop
         vertex 6.000000e+001 -3.150000e+002 1.300000e+003
         vertex 6.000000e+001 -2.100000e+002 1.300000e+003
         vertex 1.200000e+002 -3.150000e+002 1.300000e+003
      endloop
   endfacet
   facet normal 0.000000e+000 0.000000e+000 -1.000000e+000
      outer loop
         vertex 1.200000e+002 -3.150000e+002 1.300000e+003
         vertex 6.000000e+001 -2.100000e+002 1.300000e+003
         vertex 6.000000e+001 -1.500000e+002 1.300000e+003
      endloop
   endfacet
   facet normal 0.000000e+000 0.000000e+000 -1.000000e+000
      outer loop
         vertex 1.200000e+002 -3.150000e+002 1.300000e+003
         vertex 6.000000e+001 -1.500000e+002 1.300000e+003
         vertex 1.200000e+002 3.150000e+002 1.300000e+003
      endloop
   endfacet
   facet normal 0.000000e+000 0.000000e+000 -1.000000e+000
      outer loop
         vertex 1.665335e-013 -1.500000e+002 1.300000e+003
         vertex 1.665335e-013 1.500000e+002 1.300000e+003
         vertex 6.000000e+001 -1.500000e+002 1.300000e+003
      endloop
   endfacet
   facet normal 0.000000e+000 0.000000e+000 -1.000000e+000
      outer loop
         vertex 6.000000e+001 -1.500000e+002 1.300000e+003
         vertex 1.665335e-013 1.500000e+002 1.300000e+003
         vertex 6.000000e+001 1.500000e+002 1.300000e+003
      endloop
   endfacet
   facet normal 0.000000e+000 0.000000e+000 -1.000000e+000
      outer loop
         vertex 6.000000e+001 -1.500000e+002 1.300000e+003
         vertex 6.000000e+001 1.500000e+002 1.300000e+003
         vertex 1.200000e+002 3.150000e+002 1.300000e+003
      endloop
   endfacet
   facet normal 0.000000e+000 0.000000e+000 -1.000000e+000
      outer loop
         vertex 1.200000e+002 3.150000e+002 1.300000e+003
         vertex 6.000000e+001 1.500000e+002 1.300000e+003
         vertex 6.000000e+001 2.100000e+002 1.300000e+003
      endloop
   endfacet
   facet normal 0.000000e+000 0.000000e+000 -1.000000e+000
      outer loop
         vertex 1.200000e+002 3.150000e+002 1.300000e+003
         vertex 6.000000e+001 2.100000e+002 1.300000e+003
         vertex 6.000000e+001 3.150000e+002 1.300000e+003
      endloop
   endfacet
   facet normal 0.000000e+000 -1.000000e+000 0.000000e+000
      outer loop
         vertex 6.000000e+001 3.150000e+002 1.300000e+003
         vertex 6.000000e+001 3.150000e+002 7.500000e+002
         vertex 1.200000e+002 3.150000e+002 1.300000e+003
      endloop
   endfacet
   facet normal 0.000000e+000 -1.000000e+000 0.000000e+000
      outer loop
         vertex 1.200000e+002 3.150000e+002 1.300000e+003
         vertex 6.000000e+001 3.150000e+002 7.500000e+002
         vertex 1.200000e+002 3.150000e+002 7.500000e+002
      endloop
   endfacet
   facet normal 0.000000e+000 1.000000e+000 1.513941e-016
      outer loop
         vertex 1.665335e-013 -1.500000e+002 7.500000e+002
         vertex 1.665335e-013 -1.500000e+002 1.300000e+003
         vertex 6.000000e+001 -1.500000e+002 7.500000e+002
      endloop
   endfacet
   facet normal 0.000000e+000 1.000000e+000 1.513941e-016
      outer loop
         vertex 6.000000e+001 -1.500000e+002 7.500000e+002
         vertex 1.665335e-013 -1.500000e+002 1.300000e+003
         vertex 6.000000e+001 -1.500000e+002 1.300000e+003
      endloop
   endfacet
   facet normal 0.000000e+000 -1.000000e+000 -1.513941e-016
      outer loop
         vertex 1.665335e-013 1.500000e+002 1.300000e+003
         vertex 1.665335e-013 1.500000e+002 7.500000e+002
         vertex 6.000000e+001 1.500000e+002 1.300000e+003
      endloop
   endfacet
   facet normal 0.000000e+000 -1.000000e+000 -1.513941e-016
      outer loop
         vertex 6.000000e+001 1.500000e+002 1.300000e+003
         vertex 1.665335e-013 1.500000e+002 7.500000e+002
         vertex 6.000000e+001 1.500000e+002 7.500000e+002
      endloop
   endfacet
   facet normal 1.000000e+000 0.000000e+000 0.000000e+000
      outer loop
         vertex 4.800000e+002 -3.750000e+002 6.000000e+001
         vertex 4.800000e+002 3.750000e+002 6.000000e+001
         vertex 4.800000e+002 -3.750000e+002 7.500000e+002
      endloop
   endfacet
   facet normal 1.000000e+000 0.000000e+000 0.000000e+000
      outer loop
         vertex 4.800000e+002 -3.750000e+002 7.500000e+002
         vertex 4.800000e+002 3.750000e+002 6.000000e+001
         vertex 4.800000e+002 3.750000e+002 7.500000e+002
      endloop
   endfacet
   facet normal 0.000000e+000 0.000000e+000 1.000000e+000
      outer loop
         vertex 7.500000e+002 3.750000e+002 6.000000e+001
         vertex 4.800000e+002 3.750000e+002 6.000000e+001
         vertex 7.500000e+002 -3.750000e+002 6.000000e+001
      endloop
   endfacet
   facet normal 0.000000e+000 0.000000e+000 1.000000e+000
      outer loop
         vertex 7.500000e+002 -3.750000e+002 6.000000e+001
         vertex 4.800000e+002 3.750000e+002 6.000000e+001
         vertex 4.800000e+002 -3.750000e+002 6.000000e+001
      endloop
   endfacet
   facet normal 0.000000e+000 0.000000e+000 1.000000e+000
      outer loop
         vertex 3.300000e+002 2.850000e+002 1.390000e+003
         vertex 3.650000e+002 2.850000e+002 1.390000e+003
         vertex 3.300000e+002 4.050000e+002 1.390000e+003
      endloop
   endfacet
   facet normal 0.000000e+000 0.000000e+000 1.000000e+000
      outer loop
         vertex 3.300000e+002 4.050000e+002 1.390000e+003
         vertex 3.650000e+002 2.850000e+002 1.390000e+003
         vertex 3.650000e+002 4.050000e+002 1.390000e+003
      endloop
   endfacet
   facet normal 0.000000e+000 -1.000000e+000 0.000000e+000
      outer loop
         vertex 3.300000e+002 2.850000e+002 1.300000e+003
         vertex 3.300000e+002 2.850000e+002 1.270000e+003
         vertex 3.600000e+002 2.850000e+002 1.300000e+003
      endloop
   endfacet
   facet normal 0.000000e+000 -1.000000e+000 0.000000e+000
      outer loop
         vertex 3.600000e+002 2.850000e+002 1.300000e+003
         vertex 3.300000e+002 2.850000e+002 1.270000e+003
         vertex 3.650000e+002 2.850000e+002 1.270000e+003
      endloop
   endfacet
   facet normal 0.000000e+000 -1.000000e+000 0.000000e+000
      outer loop
         vertex 3.600000e+002 2.850000e+002 1.300000e+003
         vertex 3.650000e+002 2.850000e+002 1.270000e+003
         vertex 3.600000e+002 2.850000e+002 1.360000e+003
      endloop
   endfacet
   facet normal 0.000000e+000 -1.000000e+000 0.000000e+000
      outer loop
         vertex 3.600000e+002 2.850000e+002 1.360000e+003
         vertex 3.650000e+002 2.850000e+002 1.270000e+003
         vertex 3.650000e+002 2.850000e+002 1.390000e+003
      endloop
   endfacet
   facet normal 0.000000e+000 -1.000000e+000 0.000000e+000
      outer loop
         vertex 3.600000e+002 2.850000e+002 1.360000e+003
         vertex 3.650000e+002 2.850000e+002 1.390000e+003
         vertex 3.300000e+002 2.850000e+002 1.360000e+003
      endloop
   endfacet
   facet normal 0.000000e+000 -1.000000e+000 0.000000e+000
      outer loop
         vertex 3.300000e+002 2.850000e+002 1.360000e+003
         vertex 3.650000e+002 2.850000e+002 1.390000e+003
         vertex 3.300000e+002 2.850000e+002 1.390000e+003
      endloop
   endfacet
   facet normal 0.000000e+000 0.000000e+000 -1.000000e+000
      outer loop
         vertex 3.300000e+002 4.050000e+002 1.270000e+003
         vertex 3.650000e+002 4.050000e+002 1.270000e+003
         vertex 3.300000e+002 2.850000e+002 1.270000e+003
      endloop
   endfacet
   facet normal 0.000000e+000 0.000000e+000 -1.000000e+000
      outer loop
         vertex 3.300000e+002 2.850000e+002 1.270000e+003
         vertex 3.650000e+002 4.050000e+002 1.270000e+003
         vertex 3.650000e+002 2.850000e+002 1.270000e+003
      endloop
   endfacet
   facet normal 0.000000e+000 1.000000e+000 0.000000e+000
      outer loop
         vertex 3.300000e+002 4.050000e+002 1.360000e+003
         vertex 3.300000e+002 4.050000e+002 1.390000e+003
         vertex 3.600000e+002 4.050000e+002 1.360000e+003
      endloop
   endfacet
   facet normal 0.000000e+000 1.000000e+000 0.000000e+000
      outer loop
         vertex 3.600000e+002 4.050000e+002 1.360000e+003
         vertex 3.300000e+002 4.050000e+002 1.390000e+003
         vertex 3.650000e+002 4.050000e+002 1.390000e+003
      endloop
   endfacet
   facet normal 0.000000e+000 1.000000e+000 0.000000e+000
      outer loop
         vertex 3.600000e+002 4.050000e+002 1.360000e+003
         vertex 3.650000e+002 4.050000e+002 1.390000e+003
         vertex 3.600000e+002 4.050000e+002 1.300000e+003
      endloop
   endfacet
   facet normal 0.000000e+000 1.000000e+000 0.000000e+000
      outer loop
         vertex 3.600000e+002 4.050000e+002 1.300000e+003
         vertex 3.650000e+002 4.050000e+002 1.390000e+003
         vertex 3.650000e+002 4.050000e+002 1.270000e+003
      endloop
   endfacet
   facet normal 0.000000e+000 1.000000e+000 0.000000e+000
      outer loop
         vertex 3.600000e+002 4.050000e+002 1.300000e+003
         vertex 3.650000e+002 4.050000e+002 1.270000e+003
         vertex 3.300000e+002 4.050000e+002 1.300000e+003
      endloop
   endfacet
   facet normal 0.000000e+000 1.000000e+000 0.000000e+000
      outer loop
         vertex 3.300000e+002 4.050000e+002 1.300000e+003
         vertex 3.650000e+002 4.050000e+002 1.270000e+003
         vertex 3.300000e+002 4.050000e+002 1.270000e+003
      endloop
   endfacet
   facet normal 1.000000e+000 0.000000e+000 0.000000e+000
      outer loop
         vertex 3.650000e+002 2.850000e+002 1.270000e+003
         vertex 3.650000e+002 4.050000e+002 1.270000e+003
         vertex 3.650000e+002 2.850000e+002 1.390000e+003
      endloop
   endfacet
   facet normal 1.000000e+000 0.000000e+000 0.000000e+000
      outer loop
         vertex 3.650000e+002 2.850000e+002 1.390000e+003
         vertex 3.650000e+002 4.050000e+002 1.270000e+003
         vertex 3.650000e+002 4.050000e+002 1.390000e+003
      endloop
   endfacet
   facet normal -1.000000e+000 0.000000e+000 0.000000e+000
      outer loop
         vertex 3.600000e+002 3.750000e+002 1.360000e+003
         vertex 3.600000e+002 4.050000e+002 1.360000e+003
         vertex 3.600000e+002 3.750000e+002 1.300000e+003
      endloop
   endfacet
   facet normal -1.000000e+000 0.000000e+000 0.000000e+000
      outer loop
         vertex 3.600000e+002 3.750000e+002 1.300000e+003
         vertex 3.600000e+002 4.050000e+002 1.360000e+003
         vertex 3.600000e+002 4.050000e+002 1.300000e+003
      endloop
   endfacet
   facet normal 0.000000e+000 0.000000e+000 -1.000000e+000
      outer loop
         vertex 3.600000e+002 2.850000e+002 1.360000e+003
         vertex 3.300000e+002 2.850000e+002 1.360000e+003
         vertex 3.600000e+002 3.150000e+002 1.360000e+003
      endloop
   endfacet
   facet normal 0.000000e+000 0.000000e+000 -1.000000e+000
      outer loop
         vertex 3.600000e+002 3.150000e+002 1.360000e+003
         vertex 3.300000e+002 2.850000e+002 1.360000e+003
         vertex 3.300000e+002 3.150000e+002 1.360000e+003
      endloop
   endfacet
   facet normal -1.000000e+000 0.000000e+000 4.625929e-016
      outer loop
         vertex 3.300000e+002 4.050000e+002 1.390000e+003
         vertex 3.300000e+002 4.050000e+002 1.360000e+003
         vertex 3.300000e+002 3.750000e+002 1.360000e+003
      endloop
   endfacet
   facet normal -1.000000e+000 0.000000e+000 4.625929e-016
      outer loop
         vertex 3.300000e+002 4.050000e+002 1.390000e+003
         vertex 3.300000e+002 3.750000e+002 1.360000e+003
         vertex 3.300000e+002 2.850000e+002 1.390000e+003
      endloop
   endfacet
   facet normal -1.000000e+000 0.000000e+000 4.625929e-016
      outer loop
         vertex 3.300000e+002 2.850000e+002 1.390000e+003
         vertex 3.300000e+002 3.750000e+002 1.360000e+003
         vertex 3.300000e+002 3.150000e+002 1.360000e+003
      endloop
   endfacet
   facet normal -1.000000e+000 0.000000e+000 4.625929e-016
      outer loop
         vertex 3.300000e+002 2.850000e+002 1.390000e+003
         vertex 3.300000e+002 3.150000e+002 1.360000e+003
         vertex 3.300000e+002 2.850000e+002 1.360000e+003
      endloop
   endfacet
   facet normal 0.000000e+000 0.000000e+000 -1.000000e+000
      outer loop
         vertex 3.300000e+002 3.750000e+002 1.360000e+003
         vertex 3.300000e+002 4.050000e+002 1.360000e+003
         vertex 3.600000e+002 3.750000e+002 1.360000e+003
      endloop
   endfacet
   facet normal 0.000000e+000 0.000000e+000 -1.000000e+000
      outer loop
         vertex 3.600000e+002 3.750000e+002 1.360000e+003
         vertex 3.300000e+002 4.050000e+002 1.360000e+003
         vertex 3.600000e+002 4.050000e+002 1.360000e+003
      endloop
   endfacet
   facet normal 0.000000e+000 0.000000e+000 1.000000e+000
      outer loop
         vertex 3.300000e+002 2.850000e+002 1.300000e+003
         vertex 3.600000e+002 2.850000e+002 1.300000e+003
         vertex 3.300000e+002 3.150000e+002 1.300000e+003
      endloop
   endfacet
   facet normal 0.000000e+000 0.000000e+000 1.000000e+000
      outer loop
         vertex 3.300000e+002 3.150000e+002 1.300000e+003
         vertex 3.600000e+002 2.850000e+002 1.300000e+003
         vertex 3.600000e+002 3.150000e+002 1.300000e+003
      endloop
   endfacet
   facet normal 0.000000e+000 0.000000e+000 1.000000e+000
      outer loop
         vertex 3.600000e+002 3.750000e+002 1.300000e+003
         vertex 3.600000e+002 4.050000e+002 1.300000e+003
         vertex 3.300000e+002 3.750000e+002 1.300000e+003
      endloop
   endfacet
   facet normal 0.000000e+000 0.000000e+000 1.000000e+000
      outer loop
         vertex 3.300000e+002 3.750000e+002 1.300000e+003
         vertex 3.600000e+002 4.050000e+002 1.300000e+003
         vertex 3.300000e+002 4.050000e+002 1.300000e+003
      endloop
   endfacet
   facet normal -1.000000e+000 0.000000e+000 2.312965e-016
      outer loop
         vertex 3.300000e+002 3.750000e+002 1.300000e+003
         vertex 3.300000e+002 4.050000e+002 1.300000e+003
         vertex 3.300000e+002 4.050000e+002 1.270000e+003
      endloop
   endfacet
   facet normal -1.000000e+000 0.000000e+000 2.312965e-016
      outer loop
         vertex 3.300000e+002 3.750000e+002 1.300000e+003
         vertex 3.300000e+002 4.050000e+002 1.270000e+003
         vertex 3.300000e+002 3.150000e+002 1.300000e+003
      endloop
   endfacet
   facet normal -1.000000e+000 0.000000e+000 2.312965e-016
      outer loop
         vertex 3.300000e+002 3.150000e+002 1.300000e+003
         vertex 3.300000e+002 4.050000e+002 1.270000e+003
         vertex 3.300000e+002 2.850000e+002 1.270000e+003
      endloop
   endfacet
   facet normal -1.000000e+000 0.000000e+000 2.312965e-016
      outer loop
         vertex 3.300000e+002 3.150000e+002 1.300000e+003
         vertex 3.300000e+002 2.850000e+002 1.270000e+003
         vertex 3.300000e+002 2.850000e+002 1.300000e+003
      endloop
   endfacet
   facet normal 0.000000e+000 0.000000e+000 1.000000e+000
      outer loop
         vertex 3.300000e+002 -4.050000e+002 1.390000e+003
         vertex 3.650000e+002 -4.050000e+002 1.390000e+003
         vertex 3.300000e+002 -2.850000e+002 1.390000e+003
      endloop
   endfacet
   facet normal 0.000000e+000 0.000000e+000 1.000000e+000
      outer loop
         vertex 3.300000e+002 -2.850000e+002 1.390000e+003
         vertex 3.650000e+002 -4.050000e+002 1.390000e+003
         vertex 3.650000e+002 -2.850000e+002 1.390000e+003
      endloop
   endfacet
   facet normal 0.000000e+000 -1.000000e+000 0.000000e+000
      outer loop
         vertex 3.300000e+002 -4.050000e+002 1.300000e+003
         vertex 3.300000e+002 -4.050000e+002 1.270000e+003
         vertex 3.600000e+002 -4.050000e+002 1.300000e+003
      endloop
   endfacet
   facet normal 0.000000e+000 -1.000000e+000 0.000000e+000
      outer loop
         vertex 3.600000e+002 -4.050000e+002 1.300000e+003
         vertex 3.300000e+002 -4.050000e+002 1.270000e+003
         vertex 3.650000e+002 -4.050000e+002 1.270000e+003
      endloop
   endfacet
   facet normal 0.000000e+000 -1.000000e+000 0.000000e+000
      outer loop
         vertex 3.600000e+002 -4.050000e+002 1.300000e+003
         vertex 3.650000e+002 -4.050000e+002 1.270000e+003
         vertex 3.600000e+002 -4.050000e+002 1.360000e+003
      endloop
   endfacet
   facet normal 0.000000e+000 -1.000000e+000 0.000000e+000
      outer loop
         vertex 3.600000e+002 -4.050000e+002 1.360000e+003
         vertex 3.650000e+002 -4.050000e+002 1.270000e+003
         vertex 3.650000e+002 -4.050000e+002 1.390000e+003
      endloop
   endfacet
   facet normal 0.000000e+000 -1.000000e+000 0.000000e+000
      outer loop
         vertex 3.600000e+002 -4.050000e+002 1.360000e+003
         vertex 3.650000e+002 -4.050000e+002 1.390000e+003
         vertex 3.300000e+002 -4.050000e+002 1.360000e+003
      endloop
   endfacet
   facet normal 0.000000e+000 -1.000000e+000 0.000000e+000
      outer loop
         vertex 3.300000e+002 -4.050000e+002 1.360000e+003
         vertex 3.650000e+002 -4.050000e+002 1.390000e+003
         vertex 3.300000e+002 -4.050000e+002 1.390000e+003
      endloop
   endfacet
   facet normal 0.000000e+000 0.000000e+000 -1.000000e+000
      outer loop
         vertex 3.300000e+002 -2.850000e+002 1.270000e+003
         vertex 3.650000e+002 -2.850000e+002 1.270000e+003
         vertex 3.300000e+002 -4.050000e+002 1.270000e+003
      endloop
   endfacet
   facet normal 0.000000e+000 0.000000e+000 -1.000000e+000
      outer loop
         vertex 3.300000e+002 -4.050000e+002 1.270000e+003
         vertex 3.650000e+002 -2.850000e+002 1.270000e+003
         vertex 3.650000e+002 -4.050000e+002 1.270000e+003
      endloop
   endfacet
   facet normal 0.000000e+000 1.000000e+000 0.000000e+000
      outer loop
         vertex 3.300000e+002 -2.850000e+002 1.360000e+003
         vertex 3.300000e+002 -2.850000e+002 1.390000e+003
         vertex 3.600000e+002 -2.850000e+002 1.360000e+003
      endloop
   endfacet
   facet normal 0.000000e+000 1.000000e+000 0.000000e+000
      outer loop
         vertex 3.600000e+002 -2.850000e+002 1.360000e+003
         vertex 3.300000e+002 -2.850000e+002 1.390000e+003
         vertex 3.650000e+002 -2.850000e+002 1.390000e+003
      endloop
   endfacet
   facet normal 0.000000e+000 1.000000e+000 0.000000e+000
      outer loop
         vertex 3.600000e+002 -2.850000e+002 1.360000e+003
         vertex 3.650000e+002 -2.850000e+002 1.390000e+003
         vertex 3.600000e+002 -2.850000e+002 1.300000e+003
      endloop
   endfacet
   facet normal 0.000000e+000 1.000000e+000 0.000000e+000
      outer loop
         vertex 3.600000e+002 -2.850000e+002 1.300000e+003
         vertex 3.650000e+002 -2.850000e+002 1.390000e+003
         vertex 3.650000e+002 -2.850000e+002 1.270000e+003
      endloop
   endfacet
   facet normal 0.000000e+000 1.000000e+000 0.000000e+000
      outer loop
         vertex 3.600000e+002 -2.850000e+002 1.300000e+003
         vertex 3.650000e+002 -2.850000e+002 1.270000e+003
         vertex 3.300000e+002 -2.850000e+002 1.300000e+003
      endloop
   endfacet
   facet normal 0.000000e+000 1.000000e+000 0.000000e+000
      outer loop
         vertex 3.300000e+002 -2.850000e+002 1.300000e+003
         vertex 3.650000e+002 -2.850000e+002 1.270000e+003
         vertex 3.300000e+002 -2.850000e+002 1.270000e+003
      endloop
   endfacet
   facet normal 1.000000e+000 0.000000e+000 0.000000e+000
      outer loop
         vertex 3.650000e+002 -4.050000e+002 1.270000e+003
         vertex 3.650000e+002 -2.850000e+002 1.270000e+003
         vertex 3.650000e+002 -4.050000e+002 1.390000e+003
      endloop
   endfacet
   facet normal 1.000000e+000 0.000000e+000 0.000000e+000
      outer loop
         vertex 3.650000e+002 -4.050000e+002 1.390000e+003
         vertex 3.650000e+002 -2.850000e+002 1.270000e+003
         vertex 3.650000e+002 -2.850000e+002 1.390000e+003
      endloop
   endfacet
   facet normal 0.000000e+000 0.000000e+000 -1.000000e+000
      outer loop
         vertex 3.600000e+002 -3.750000e+002 1.360000e+003
         vertex 3.600000e+002 -4.050000e+002 1.360000e+003
         vertex 3.300000e+002 -3.750000e+002 1.360000e+003
      endloop
   endfacet
   facet normal 0.000000e+000 0.000000e+000 -1.000000e+000
      outer loop
         vertex 3.300000e+002 -3.750000e+002 1.360000e+003
         vertex 3.600000e+002 -4.050000e+002 1.360000e+003
         vertex 3.300000e+002 -4.050000e+002 1.360000e+003
      endloop
   endfacet
   facet normal 0.000000e+000 0.000000e+000 -1.000000e+000
      outer loop
         vertex 3.300000e+002 -3.150000e+002 1.360000e+003
         vertex 3.300000e+002 -2.850000e+002 1.360000e+003
         vertex 3.600000e+002 -3.150000e+002 1.360000e+003
      endloop
   endfacet
   facet normal 0.000000e+000 0.000000e+000 -1.000000e+000
      outer loop
         vertex 3.600000e+002 -3.150000e+002 1.360000e+003
         vertex 3.300000e+002 -2.850000e+002 1.360000e+003
         vertex 3.600000e+002 -2.850000e+002 1.360000e+003
      endloop
   endfacet
   facet normal -1.000000e+000 0.000000e+000 4.625929e-016
      outer loop
         vertex 3.300000e+002 -2.850000e+002 1.390000e+003
         vertex 3.300000e+002 -2.850000e+002 1.360000e+003
         vertex 3.300000e+002 -3.150000e+002 1.360000e+003
      endloop
   endfacet
   facet normal -1.000000e+000 0.000000e+000 4.625929e-016
      outer loop
         vertex 3.300000e+002 -2.850000e+002 1.390000e+003
         vertex 3.300000e+002 -3.150000e+002 1.360000e+003
         vertex 3.300000e+002 -4.050000e+002 1.390000e+003
      endloop
   endfacet
   facet normal -1.000000e+000 0.000000e+000 4.625929e-016
      outer loop
         vertex 3.300000e+002 -4.050000e+002 1.390000e+003
         vertex 3.300000e+002 -3.150000e+002 1.360000e+003
         vertex 3.300000e+002 -3.750000e+002 1.360000e+003
      endloop
   endfacet
   facet normal -1.000000e+000 0.000000e+000 4.625929e-016
      outer loop
         vertex 3.300000e+002 -4.050000e+002 1.390000e+003
         vertex 3.300000e+002 -3.750000e+002 1.360000e+003
         vertex 3.300000e+002 -4.050000e+002 1.360000e+003
      endloop
   endfacet
   facet normal 0.000000e+000 0.000000e+000 1.000000e+000
      outer loop
         vertex 3.300000e+002 -3.750000e+002 1.300000e+003
         vertex 3.300000e+002 -4.050000e+002 1.300000e+003
         vertex 3.600000e+002 -3.750000e+002 1.300000e+003
      endloop
   endfacet
   facet normal 0.000000e+000 0.000000e+000 1.000000e+000
      outer loop
         vertex 3.600000e+002 -3.750000e+002 1.300000e+003
         vertex 3.300000e+002 -4.050000e+002 1.300000e+003
         vertex 3.600000e+002 -4.050000e+002 1.300000e+003
      endloop
   endfacet
   facet normal 0.000000e+000 0.000000e+000 1.000000e+000
      outer loop
         vertex 3.600000e+002 -3.150000e+002 1.300000e+003
         vertex 3.600000e+002 -2.850000e+002 1.300000e+003
         vertex 3.300000e+002 -3.150000e+002 1.300000e+003
      endloop
   endfacet
   facet normal 0.000000e+000 0.000000e+000 1.000000e+000
      outer loop
         vertex 3.300000e+002 -3.150000e+002 1.300000e+003
         vertex 3.600000e+002 -2.850000e+002 1.300000e+003
         vertex 3.300000e+002 -2.850000e+002 1.300000e+003
      endloop
   endfacet
   facet normal -1.000000e+000 0.000000e+000 2.312965e-016
      outer loop
         vertex 3.300000e+002 -4.050000e+002 1.270000e+003
         vertex 3.300000e+002 -4.050000e+002 1.300000e+003
         vertex 3.300000e+002 -3.750000e+002 1.300000e+003
      endloop
   endfacet
   facet normal -1.000000e+000 0.000000e+000 2.312965e-016
      outer loop
         vertex 3.300000e+002 -4.050000e+002 1.270000e+003
         vertex 3.300000e+002 -3.750000e+002 1.300000e+003
         vertex 3.300000e+002 -2.850000e+002 1.270000e+003
      endloop
   endfacet
   facet normal -1.000000e+000 0.000000e+000 2.312965e-016
      outer loop
         vertex 3.300000e+002 -2.850000e+002 1.270000e+003
         vertex 3.300000e+002 -3.750000e+002 1.300000e+003
         vertex 3.300000e+002 -3.150000e+002 1.300000e+003
      endloop
   endfacet
   facet normal -1.000000e+000 0.000000e+000 2.312965e-016
      outer loop
         vertex 3.300000e+002 -2.850000e+002 1.270000e+003
         vertex 3.300000e+002 -3.150000e+002 1.300000e+003
         vertex 3.300000e+002 -2.850000e+002 1.300000e+003
      endloop
   endfacet
   facet normal -1.000000e+000 0.000000e+000 1.211553e-016
      outer loop
         vertex 4.200000e+002 3.750000e+002 6.000000e+001
         vertex 4.200000e+002 -3.750000e+002 6.000000e+001
         vertex 4.200000e+002 3.750000e+002 6.900000e+002
      endloop
   endfacet
   facet normal -1.000000e+000 0.000000e+000 1.211553e-016
      outer loop
         vertex 4.200000e+002 3.750000e+002 6.900000e+002
         vertex 4.200000e+002 -3.750000e+002 6.000000e+001
         vertex 4.200000e+002 -3.750000e+002 6.900000e+002
      endloop
   endfacet
   facet normal 0.000000e+000 0.000000e+000 -1.000000e+000
      outer loop
         vertex 4.200000e+002 3.750000e+002 6.900000e+002
         vertex 4.200000e+002 -3.750000e+002 6.900000e+002
         vertex 1.200000e+002 3.750000e+002 6.900000e+002
      endloop
   endfacet
   facet normal 0.000000e+000 0.000000e+000 -1.000000e+000
      outer loop
         vertex 1.200000e+002 3.750000e+002 6.900000e+002
         vertex 4.200000e+002 -3.750000e+002 6.900000e+002
         vertex 1.200000e+002 -3.750000e+002 6.900000e+002
      endloop
   endfacet
   facet normal 1.000000e+000 0.000000e+000 -8.811294e-017
      outer loop
         vertex 1.200000e+002 3.750000e+002 6.900000e+002
         vertex 1.200000e+002 -3.750000e+002 6.900000e+002
         vertex 1.200000e+002 3.750000e+002 6.000000e+001
      endloop
   endfacet
   facet normal 1.000000e+000 0.000000e+000 -8.811294e-017
      outer loop
         vertex 1.200000e+002 3.750000e+002 6.000000e+001
         vertex 1.200000e+002 -3.750000e+002 6.900000e+002
         vertex 1.200000e+002 -3.750000e+002 6.000000e+001
      endloop
   endfacet
   facet normal 0.000000e+000 0.000000e+000 1.000000e+000
      outer loop
         vertex 1.200000e+002 3.750000e+002 6.000000e+001
         vertex 1.200000e+002 -3.750000e+002 6.000000e+001
         vertex 4.200000e+002 3.750000e+002 6.000000e+001
      endloop
   endfacet
   facet normal 0.000000e+000 0.000000e+000 1.000000e+000
      outer loop
         vertex 4.200000e+002 3.750000e+002 6.000000e+001
         vertex 1.200000e+002 -3.750000e+002 6.000000e+001
         vertex 4.200000e+002 -3.750000e+002 6.000000e+001
      endloop
   endfacet
endsolid