solid wholebody
   facet normal -1.000000e+000 0.000000e+000 0.000000e+000
      outer loop
         vertex -1.000000e+001 -5.711733e+000 -2.945125e+001
         vertex -1.000000e+001 -1.014051e+001 -2.823420e+001
         vertex -1.000000e+001 -1.500000e+001 -1.500000e+001
      endloop
   endfacet
   facet normal -1.000000e+000 0.000000e+000 0.000000e+000
      outer loop
         vertex -1.000000e+001 1.227206e+001 -2.737511e+001
         vertex -1.000000e+001 1.500000e+001 -1.500000e+001
         vertex -1.000000e+001 1.630703e+001 -2.518096e+001
      endloop
   endfacet
   facet normal -1.000000e+000 0.000000e+000 0.000000e+000
      outer loop
         vertex -1.000000e+001 1.630703e+001 -2.518096e+001
         vertex -1.000000e+001 1.500000e+001 -1.500000e+001
         vertex -1.000000e+001 1.995977e+001 -2.239660e+001
      endloop
   endfacet
   facet normal -1.000000e+000 0.000000e+000 0.000000e+000
      outer loop
         vertex -1.000000e+001 1.227206e+001 -2.737511e+001
         vertex -1.000000e+001 7.949445e+000 -2.892760e+001
         vertex -1.000000e+001 1.500000e+001 -1.500000e+001
      endloop
   endfacet
   facet normal -1.000000e+000 0.000000e+000 0.000000e+000
      outer loop
         vertex -1.000000e+001 1.500000e+001 -1.500000e+001
         vertex -1.000000e+001 7.949445e+000 -2.892760e+001
         vertex -1.000000e+001 3.440503e+000 -2.980206e+001
      endloop
   endfacet
   facet normal -1.000000e+000 0.000000e+000 0.000000e+000
      outer loop
         vertex -1.000000e+001 1.500000e+001 -1.500000e+001
         vertex -1.000000e+001 3.440503e+000 -2.980206e+001
         vertex -1.000000e+001 -1.500000e+001 -1.500000e+001
      endloop
   endfacet
   facet normal -1.000000e+000 0.000000e+000 0.000000e+000
      outer loop
         vertex -1.000000e+001 -1.500000e+001 -1.500000e+001
         vertex -1.000000e+001 3.440503e+000 -2.980206e+001
         vertex -1.000000e+001 -1.149082e+000 -2.997799e+001
      endloop
   endfacet
   facet normal -1.000000e+000 0.000000e+000 0.000000e+000
      outer loop
         vertex -1.000000e+001 -1.500000e+001 -1.500000e+001
         vertex -1.000000e+001 -1.149082e+000 -2.997799e+001
         vertex -1.000000e+001 -5.711733e+000 -2.945125e+001
      endloop
   endfacet
   facet normal -1.000000e+000 0.000000e+000 0.000000e+000
      outer loop
         vertex -1.000000e+001 -1.014051e+001 -2.823420e+001
         vertex -1.000000e+001 -1.433159e+001 -2.635537e+001
         vertex -1.000000e+001 -1.500000e+001 -1.500000e+001
      endloop
   endfacet
   facet normal -1.000000e+000 0.000000e+000 0.000000e+000
      outer loop
         vertex -1.000000e+001 -1.500000e+001 -1.500000e+001
         vertex -1.000000e+001 -1.433159e+001 -2.635537e+001
         vertex -1.000000e+001 -1.818676e+001 -2.385879e+001
      endloop
   endfacet
   facet normal -1.000000e+000 0.000000e+000 0.000000e+000
      outer loop
         vertex -1.000000e+001 -1.500000e+001 -1.500000e+001
         vertex -1.000000e+001 -1.818676e+001 -2.385879e+001
         vertex -1.000000e+001 -2.161565e+001 -2.080297e+001
      endloop
   endfacet
   facet normal -1.000000e+000 0.000000e+000 0.000000e+000
      outer loop
         vertex -1.000000e+001 2.314468e+001 1.908727e+001
         vertex -1.000000e+001 2.578709e+001 1.533056e+001
         vertex -1.000000e+001 1.500000e+001 1.500000e+001
      endloop
   endfacet
   facet normal -1.000000e+000 0.000000e+000 0.000000e+000
      outer loop
         vertex -1.000000e+001 3.000000e+001 -3.673941e-015
         vertex -1.000000e+001 2.991197e+001 -2.296478e+000
         vertex -1.000000e+001 1.500000e+001 -1.500000e+001
      endloop
   endfacet
   facet normal -1.000000e+000 0.000000e+000 0.000000e+000
      outer loop
         vertex -1.000000e+001 1.500000e+001 -1.500000e+001
         vertex -1.000000e+001 2.991197e+001 -2.296478e+000
         vertex -1.000000e+001 2.921086e+001 -6.835606e+000
      endloop
   endfacet
   facet normal -1.000000e+000 0.000000e+000 0.000000e+000
      outer loop
         vertex -1.000000e+001 1.500000e+001 -1.500000e+001
         vertex -1.000000e+001 2.921086e+001 -6.835606e+000
         vertex -1.000000e+001 2.782508e+001 -1.121451e+001
      endloop
   endfacet
   facet normal -1.000000e+000 0.000000e+000 0.000000e+000
      outer loop
         vertex -1.000000e+001 -1.014051e+001 2.823420e+001
         vertex -1.000000e+001 -1.500000e+001 1.500000e+001
         vertex -1.000000e+001 -1.433159e+001 2.635537e+001
      endloop
   endfacet
   facet normal -1.000000e+000 0.000000e+000 0.000000e+000
      outer loop
         vertex -1.000000e+001 -1.433159e+001 2.635537e+001
         vertex -1.000000e+001 -1.500000e+001 1.500000e+001
         vertex -1.000000e+001 -1.818676e+001 2.385879e+001
      endloop
   endfacet
   facet normal -1.000000e+000 0.000000e+000 0.000000e+000
      outer loop
         vertex -1.000000e+001 7.949445e+000 2.892760e+001
         vertex -1.000000e+001 1.227206e+001 2.737511e+001
         vertex -1.000000e+001 1.500000e+001 1.500000e+001
      endloop
   endfacet
   facet normal -1.000000e+000 0.000000e+000 0.000000e+000
      outer loop
         vertex -1.000000e+001 2.578709e+001 1.533056e+001
         vertex -1.000000e+001 2.782508e+001 1.121451e+001
         vertex -1.000000e+001 1.500000e+001 1.500000e+001
      endloop
   endfacet
   facet normal -1.000000e+000 0.000000e+000 0.000000e+000
      outer loop
         vertex -1.000000e+001 1.500000e+001 1.500000e+001
         vertex -1.000000e+001 2.782508e+001 1.121451e+001
         vertex -1.000000e+001 2.921086e+001 6.835606e+000
      endloop
   endfacet
   facet normal -1.000000e+000 0.000000e+000 0.000000e+000
      outer loop
         vertex -1.000000e+001 1.500000e+001 1.500000e+001
         vertex -1.000000e+001 2.921086e+001 6.835606e+000
         vertex -1.000000e+001 1.500000e+001 -1.500000e+001
      endloop
   endfacet
   facet normal -1.000000e+000 0.000000e+000 0.000000e+000
      outer loop
         vertex -1.000000e+001 1.500000e+001 -1.500000e+001
         vertex -1.000000e+001 2.921086e+001 6.835606e+000
         vertex -1.000000e+001 2.991197e+001 2.296478e+000
      endloop
   endfacet
   facet normal -1.000000e+000 0.000000e+000 0.000000e+000
      outer loop
         vertex -1.000000e+001 1.500000e+001 -1.500000e+001
         vertex -1.000000e+001 2.991197e+001 2.296478e+000
         vertex -1.000000e+001 3.000000e+001 -3.673941e-015
      endloop
   endfacet
   facet normal -1.000000e+000 0.000000e+000 0.000000e+000
      outer loop
         vertex -1.000000e+001 1.227206e+001 2.737511e+001
         vertex -1.000000e+001 1.630703e+001 2.518096e+001
         vertex -1.000000e+001 1.500000e+001 1.500000e+001
      endloop
   endfacet
   facet normal -1.000000e+000 0.000000e+000 0.000000e+000
      outer loop
         vertex -1.000000e+001 1.500000e+001 1.500000e+001
         vertex -1.000000e+001 1.630703e+001 2.518096e+001
         vertex -1.000000e+001 1.995977e+001 2.239660e+001
      endloop
   endfacet
   facet normal -1.000000e+000 0.000000e+000 0.000000e+000
      outer loop
         vertex -1.000000e+001 1.500000e+001 1.500000e+001
         vertex -1.000000e+001 1.995977e+001 2.239660e+001
         vertex -1.000000e+001 2.314468e+001 1.908727e+001
      endloop
   endfacet
   facet normal -1.000000e+000 0.000000e+000 0.000000e+000
      outer loop
         vertex -1.000000e+001 -2.161565e+001 -2.080297e+001
         vertex -1.000000e+001 -2.453788e+001 -1.725956e+001
         vertex -1.000000e+001 -1.500000e+001 -1.500000e+001
      endloop
   endfacet
   facet normal -1.000000e+000 0.000000e+000 0.000000e+000
      outer loop
         vertex -1.000000e+001 -1.500000e+001 -1.500000e+001
         vertex -1.000000e+001 -2.453788e+001 -1.725956e+001
         vertex -1.000000e+001 -2.688497e+001 -1.331159e+001
      endloop
   endfacet
   facet normal -1.000000e+000 0.000000e+000 0.000000e+000
      outer loop
         vertex -1.000000e+001 -1.500000e+001 -1.500000e+001
         vertex -1.000000e+001 -2.688497e+001 -1.331159e+001
         vertex -1.000000e+001 -2.860189e+001 -9.051619e+000
      endloop
   endfacet
   facet normal -1.000000e+000 0.000000e+000 0.000000e+000
      outer loop
         vertex -1.000000e+001 -1.500000e+001 1.500000e+001
         vertex -1.000000e+001 -2.860189e+001 9.051619e+000
         vertex -1.000000e+001 -2.688497e+001 1.331159e+001
      endloop
   endfacet
   facet normal -1.000000e+000 0.000000e+000 0.000000e+000
      outer loop
         vertex -1.000000e+001 2.782508e+001 -1.121451e+001
         vertex -1.000000e+001 2.578709e+001 -1.533056e+001
         vertex -1.000000e+001 1.500000e+001 -1.500000e+001
      endloop
   endfacet
   facet normal -1.000000e+000 0.000000e+000 0.000000e+000
      outer loop
         vertex -1.000000e+001 1.500000e+001 -1.500000e+001
         vertex -1.000000e+001 2.578709e+001 -1.533056e+001
         vertex -1.000000e+001 2.314468e+001 -1.908727e+001
      endloop
   endfacet
   facet normal -1.000000e+000 0.000000e+000 0.000000e+000
      outer loop
         vertex -1.000000e+001 1.500000e+001 -1.500000e+001
         vertex -1.000000e+001 2.314468e+001 -1.908727e+001
         vertex -1.000000e+001 1.995977e+001 -2.239660e+001
      endloop
   endfacet
   facet normal -1.000000e+000 0.000000e+000 0.000000e+000
      outer loop
         vertex -1.000000e+001 -1.014051e+001 2.823420e+001
         vertex -1.000000e+001 -5.711733e+000 2.945125e+001
         vertex -1.000000e+001 -1.500000e+001 1.500000e+001
      endloop
   endfacet
   facet normal -1.000000e+000 0.000000e+000 0.000000e+000
      outer loop
         vertex -1.000000e+001 -1.500000e+001 1.500000e+001
         vertex -1.000000e+001 -5.711733e+000 2.945125e+001
         vertex -1.000000e+001 -1.149082e+000 2.997799e+001
      endloop
   endfacet
   facet normal -1.000000e+000 0.000000e+000 0.000000e+000
      outer loop
         vertex -1.000000e+001 -1.500000e+001 1.500000e+001
         vertex -1.000000e+001 -1.149082e+000 2.997799e+001
         vertex -1.000000e+001 1.500000e+001 1.500000e+001
      endloop
   endfacet
   facet normal -1.000000e+000 0.000000e+000 0.000000e+000
      outer loop
         vertex -1.000000e+001 1.500000e+001 1.500000e+001
         vertex -1.000000e+001 -1.149082e+000 2.997799e+001
         vertex -1.000000e+001 3.440503e+000 2.980206e+001
      endloop
   endfacet
   facet normal -1.000000e+000 0.000000e+000 0.000000e+000
      outer loop
         vertex -1.000000e+001 1.500000e+001 1.500000e+001
         vertex -1.000000e+001 3.440503e+000 2.980206e+001
         vertex -1.000000e+001 7.949445e+000 2.892760e+001
      endloop
   endfacet
   facet normal -1.000000e+000 0.000000e+000 0.000000e+000
      outer loop
         vertex -1.000000e+001 -2.860189e+001 -9.051619e+000
         vertex -1.000000e+001 -2.964841e+001 -4.579478e+000
         vertex -1.000000e+001 -1.500000e+001 -1.500000e+001
      endloop
   endfacet
   facet normal -1.000000e+000 0.000000e+000 0.000000e+000
      outer loop
         vertex -1.000000e+001 -1.500000e+001 -1.500000e+001
         vertex -1.000000e+001 -2.964841e+001 -4.579478e+000
         vertex -1.000000e+001 -3.000000e+001 0.000000e+000
      endloop
   endfacet
   facet normal -1.000000e+000 0.000000e+000 0.000000e+000
      outer loop
         vertex -1.000000e+001 -1.500000e+001 -1.500000e+001
         vertex -1.000000e+001 -3.000000e+001 0.000000e+000
         vertex -1.000000e+001 -1.500000e+001 1.500000e+001
      endloop
   endfacet
   facet normal -1.000000e+000 0.000000e+000 0.000000e+000
      outer loop
         vertex -1.000000e+001 -1.500000e+001 1.500000e+001
         vertex -1.000000e+001 -3.000000e+001 0.000000e+000
         vertex -1.000000e+001 -2.964841e+001 4.579478e+000
      endloop
   endfacet
   facet normal -1.000000e+000 0.000000e+000 0.000000e+000
      outer loop
         vertex -1.000000e+001 -1.500000e+001 1.500000e+001
         vertex -1.000000e+001 -2.964841e+001 4.579478e+000
         vertex -1.000000e+001 -2.860189e+001 9.051619e+000
      endloop
   endfacet
   facet normal -1.000000e+000 0.000000e+000 0.000000e+000
      outer loop
         vertex -1.000000e+001 -2.688497e+001 1.331159e+001
         vertex -1.000000e+001 -2.453788e+001 1.725956e+001
         vertex -1.000000e+001 -1.500000e+001 1.500000e+001
      endloop
   endfacet
   facet normal -1.000000e+000 0.000000e+000 0.000000e+000
      outer loop
         vertex -1.000000e+001 -1.500000e+001 1.500000e+001
         vertex -1.000000e+001 -2.453788e+001 1.725956e+001
         vertex -1.000000e+001 -2.161565e+001 2.080297e+001
      endloop
   endfacet
   facet normal -1.000000e+000 0.000000e+000 0.000000e+000
      outer loop
         vertex -1.000000e+001 -1.500000e+001 1.500000e+001
         vertex -1.000000e+001 -2.161565e+001 2.080297e+001
         vertex -1.000000e+001 -1.818676e+001 2.385879e+001
      endloop
   endfacet
   facet normal 0.000000e+000 9.996740e-001 -2.553307e-002
      outer loop
         vertex -1.000000e+001 2.991197e+001 -2.296478e+000
         vertex -1.000000e+001 3.000000e+001 -1.102182e-014
         vertex 0.000000e+000 3.000000e+001 -3.673941e-015
      endloop
   endfacet
   facet normal 0.000000e+000 9.996740e-001 2.553307e-002
      outer loop
         vertex 0.000000e+000 3.000000e+001 -3.673941e-015
         vertex -1.000000e+001 3.000000e+001 -1.102182e-014
         vertex 0.000000e+000 2.991197e+001 2.296478e+000
      endloop
   endfacet
   facet normal 0.000000e+000 9.986953e-001 5.106615e-002
      outer loop
         vertex -1.000000e+001 3.000000e+001 -1.102182e-014
         vertex -1.000000e+001 2.991197e+001 2.296478e+000
         vertex 0.000000e+000 2.991197e+001 2.296478e+000
      endloop
   endfacet
   facet normal 0.000000e+000 9.918622e-001 1.273160e-001
      outer loop
         vertex 0.000000e+000 2.991197e+001 2.296478e+000
         vertex -1.000000e+001 2.991197e+001 2.296478e+000
         vertex -1.000000e+001 2.921086e+001 6.835606e+000
      endloop
   endfacet
   facet normal 0.000000e+000 9.840517e-001 1.778826e-001
      outer loop
         vertex 0.000000e+000 2.991197e+001 2.296478e+000
         vertex -1.000000e+001 2.921086e+001 6.835606e+000
         vertex 0.000000e+000 2.921086e+001 6.835606e+000
      endloop
   endfacet
   facet normal 0.000000e+000 9.608033e-001 2.772310e-001
      outer loop
         vertex 0.000000e+000 2.921086e+001 6.835606e+000
         vertex -1.000000e+001 2.921086e+001 6.835606e+000
         vertex -1.000000e+001 2.782508e+001 1.121451e+001
      endloop
   endfacet
   facet normal 0.000000e+000 9.453654e-001 3.260127e-001
      outer loop
         vertex 0.000000e+000 2.921086e+001 6.835606e+000
         vertex -1.000000e+001 2.782508e+001 1.121451e+001
         vertex 0.000000e+000 2.782508e+001 1.121451e+001
      endloop
   endfacet
   facet normal 0.000000e+000 9.072239e-001 4.206479e-001
      outer loop
         vertex 0.000000e+000 2.782508e+001 1.121451e+001
         vertex -1.000000e+001 2.782508e+001 1.121451e+001
         vertex -1.000000e+001 2.578709e+001 1.533056e+001
      endloop
   endfacet
   facet normal 0.000000e+000 8.845205e-001 4.665013e-001
      outer loop
         vertex 0.000000e+000 2.782508e+001 1.121451e+001
         vertex -1.000000e+001 2.578709e+001 1.533056e+001
         vertex 0.000000e+000 2.578709e+001 1.533056e+001
      endloop
   endfacet
   facet normal 0.000000e+000 8.323801e-001 5.542051e-001
      outer loop
         vertex 0.000000e+000 2.578709e+001 1.533056e+001
         vertex -1.000000e+001 2.578709e+001 1.533056e+001
         vertex -1.000000e+001 2.314468e+001 1.908727e+001
      endloop
   endfacet
   facet normal 0.000000e+000 8.029432e-001 5.960555e-001
      outer loop
         vertex 0.000000e+000 2.578709e+001 1.533056e+001
         vertex -1.000000e+001 2.314468e+001 1.908727e+001
         vertex 0.000000e+000 2.314468e+001 1.908727e+001
      endloop
   endfacet
   facet normal 0.000000e+000 7.380260e-001 6.747723e-001
      outer loop
         vertex 0.000000e+000 2.314468e+001 1.908727e+001
         vertex -1.000000e+001 2.314468e+001 1.908727e+001
         vertex -1.000000e+001 1.995977e+001 2.239660e+001
      endloop
   endfacet
   facet normal 0.000000e+000 7.025456e-001 7.116387e-001
      outer loop
         vertex 0.000000e+000 2.314468e+001 1.908727e+001
         vertex -1.000000e+001 1.995977e+001 2.239660e+001
         vertex 0.000000e+000 1.995977e+001 2.239660e+001
      endloop
   endfacet
   facet normal 0.000000e+000 6.263731e-001 7.795234e-001
      outer loop
         vertex 0.000000e+000 1.995977e+001 2.239660e+001
         vertex -1.000000e+001 1.995977e+001 2.239660e+001
         vertex -1.000000e+001 1.630703e+001 2.518096e+001
      endloop
   endfacet
   facet normal 0.000000e+000 5.856809e-001 8.105417e-001
      outer loop
         vertex 0.000000e+000 1.995977e+001 2.239660e+001
         vertex -1.000000e+001 1.630703e+001 2.518096e+001
         vertex 0.000000e+000 1.630703e+001 2.518096e+001
      endloop
   endfacet
   facet normal 0.000000e+000 5.000386e-001 8.660032e-001
      outer loop
         vertex 0.000000e+000 1.630703e+001 2.518096e+001
         vertex -1.000000e+001 1.630703e+001 2.518096e+001
         vertex -1.000000e+001 1.227206e+001 2.737511e+001
      endloop
   endfacet
   facet normal 0.000000e+000 4.550884e-001 8.904462e-001
      outer loop
         vertex 0.000000e+000 1.630703e+001 2.518096e+001
         vertex -1.000000e+001 1.227206e+001 2.737511e+001
         vertex 0.000000e+000 1.227206e+001 2.737511e+001
      endloop
   endfacet
   facet normal 0.000000e+000 3.619836e-001 9.321845e-001
      outer loop
         vertex 0.000000e+000 1.227206e+001 2.737511e+001
         vertex -1.000000e+001 1.227206e+001 2.737511e+001
         vertex -1.000000e+001 7.949445e+000 2.892760e+001
      endloop
   endfacet
   facet normal 0.000000e+000 3.138289e-001 9.494795e-001
      outer loop
         vertex 0.000000e+000 1.227206e+001 2.737511e+001
         vertex -1.000000e+001 7.949445e+000 2.892760e+001
         vertex 0.000000e+000 7.949445e+000 2.892760e+001
      endloop
   endfacet
   facet normal 0.000000e+000 2.154440e-001 9.765162e-001
      outer loop
         vertex 0.000000e+000 7.949445e+000 2.892760e+001
         vertex -1.000000e+001 7.949445e+000 2.892760e+001
         vertex -1.000000e+001 3.440503e+000 2.980206e+001
      endloop
   endfacet
   facet normal 0.000000e+000 1.652136e-001 9.862578e-001
      outer loop
         vertex 0.000000e+000 7.949445e+000 2.892760e+001
         vertex -1.000000e+001 3.440503e+000 2.980206e+001
         vertex 0.000000e+000 3.440503e+000 2.980206e+001
      endloop
   endfacet
   facet normal 0.000000e+000 6.385456e-002 9.979592e-001
      outer loop
         vertex 0.000000e+000 3.440503e+000 2.980206e+001
         vertex -1.000000e+001 3.440503e+000 2.980206e+001
         vertex -1.000000e+001 -1.149082e+000 2.997799e+001
      endloop
   endfacet
   facet normal 0.000000e+000 1.272584e-002 9.999190e-001
      outer loop
         vertex 0.000000e+000 3.440503e+000 2.980206e+001
         vertex -1.000000e+001 -1.149082e+000 2.997799e+001
         vertex 0.000000e+000 -1.149082e+000 2.997799e+001
      endloop
   endfacet
   facet normal -0.000000e+000 -8.923154e-002 9.960109e-001
      outer loop
         vertex 0.000000e+000 -1.149082e+000 2.997799e+001
         vertex -1.000000e+001 -1.149082e+000 2.997799e+001
         vertex -1.000000e+001 -5.711733e+000 2.945125e+001
      endloop
   endfacet
   facet normal -0.000000e+000 -1.400602e-001 9.901430e-001
      outer loop
         vertex 0.000000e+000 -1.149082e+000 2.997799e+001
         vertex -1.000000e+001 -5.711733e+000 2.945125e+001
         vertex 0.000000e+000 -5.711733e+000 2.945125e+001
      endloop
   endfacet
   facet normal -0.000000e+000 -2.402261e-001 9.707170e-001
      outer loop
         vertex 0.000000e+000 -5.711733e+000 2.945125e+001
         vertex -1.000000e+001 -5.711733e+000 2.945125e+001
         vertex -1.000000e+001 -1.014051e+001 2.823420e+001
      endloop
   endfacet
   facet normal -0.000000e+000 -2.895634e-001 9.571589e-001
      outer loop
         vertex 0.000000e+000 -5.711733e+000 2.945125e+001
         vertex -1.000000e+001 -1.014051e+001 2.823420e+001
         vertex 0.000000e+000 -1.014051e+001 2.823420e+001
      endloop
   endfacet
   facet normal -0.000000e+000 -3.855900e-001 9.226702e-001
      outer loop
         vertex 0.000000e+000 -1.014051e+001 2.823420e+001
         vertex -1.000000e+001 -1.014051e+001 2.823420e+001
         vertex -1.000000e+001 -1.433159e+001 2.635537e+001
      endloop
   endfacet
   facet normal -0.000000e+000 -4.322794e-001 9.017397e-001
      outer loop
         vertex 0.000000e+000 -1.014051e+001 2.823420e+001
         vertex -1.000000e+001 -1.433159e+001 2.635537e+001
         vertex 0.000000e+000 -1.433159e+001 2.635537e+001
      endloop
   endfacet
   facet normal -0.000000e+000 -5.219160e-001 8.529969e-001
      outer loop
         vertex 0.000000e+000 -1.433159e+001 2.635537e+001
         vertex -1.000000e+001 -1.433159e+001 2.635537e+001
         vertex -1.000000e+001 -1.818676e+001 2.385879e+001
      endloop
   endfacet
   facet normal -0.000000e+000 -5.648633e-001 8.251845e-001
      outer loop
         vertex 0.000000e+000 -1.433159e+001 2.635537e+001
         vertex -1.000000e+001 -1.818676e+001 2.385879e+001
         vertex 0.000000e+000 -1.818676e+001 2.385879e+001
      endloop
   endfacet
   facet normal -0.000000e+000 -6.460088e-001 7.633300e-001
      outer loop
         vertex 0.000000e+000 -1.818676e+001 2.385879e+001
         vertex -1.000000e+001 -1.818676e+001 2.385879e+001
         vertex -1.000000e+001 -2.161565e+001 2.080297e+001
      endloop
   endfacet
   facet normal -0.000000e+000 -6.842071e-001 7.292878e-001
      outer loop
         vertex 0.000000e+000 -1.818676e+001 2.385879e+001
         vertex -1.000000e+001 -2.161565e+001 2.080297e+001
         vertex 0.000000e+000 -2.161565e+001 2.080297e+001
      endloop
   endfacet
   facet normal -0.000000e+000 -7.549596e-001 6.557713e-001
      outer loop
         vertex 0.000000e+000 -2.161565e+001 2.080297e+001
         vertex -1.000000e+001 -2.161565e+001 2.080297e+001
         vertex -1.000000e+001 -2.453788e+001 1.725956e+001
      endloop
   endfacet
   facet normal -0.000000e+000 -7.875138e-001 6.162970e-001
      outer loop
         vertex 0.000000e+000 -2.161565e+001 2.080297e+001
         vertex -1.000000e+001 -2.453788e+001 1.725956e+001
         vertex 0.000000e+000 -2.453788e+001 1.725956e+001
      endloop
   endfacet
   facet normal -0.000000e+000 -8.462148e-001 5.328419e-001
      outer loop
         vertex 0.000000e+000 -2.453788e+001 1.725956e+001
         vertex -1.000000e+001 -2.453788e+001 1.725956e+001
         vertex -1.000000e+001 -2.688497e+001 1.331159e+001
      endloop
   endfacet
   facet normal -0.000000e+000 -8.723617e-001 4.888609e-001
      outer loop
         vertex 0.000000e+000 -2.453788e+001 1.725956e+001
         vertex -1.000000e+001 -2.688497e+001 1.331159e+001
         vertex 0.000000e+000 -2.688497e+001 1.331159e+001
      endloop
   endfacet
   facet normal -0.000000e+000 -9.176354e-001 3.974231e-001
      outer loop
         vertex 0.000000e+000 -2.688497e+001 1.331159e+001
         vertex -1.000000e+001 -2.688497e+001 1.331159e+001
         vertex -1.000000e+001 -2.860189e+001 9.051619e+000
      endloop
   endfacet
   facet normal -0.000000e+000 -9.367623e-001 3.499663e-001
      outer loop
         vertex 0.000000e+000 -2.688497e+001 1.331159e+001
         vertex -1.000000e+001 -2.860189e+001 9.051619e+000
         vertex 0.000000e+000 -2.860189e+001 9.051619e+000
      endloop
   endfacet
   facet normal -0.000000e+000 -9.675475e-001 2.526891e-001
      outer loop
         vertex 0.000000e+000 -2.860189e+001 9.051619e+000
         vertex -1.000000e+001 -2.860189e+001 9.051619e+000
         vertex -1.000000e+001 -2.964841e+001 4.579478e+000
      endloop
   endfacet
   facet normal -0.000000e+000 -9.792060e-001 2.028688e-001
      outer loop
         vertex 0.000000e+000 -2.860189e+001 9.051619e+000
         vertex -1.000000e+001 -2.964841e+001 4.579478e+000
         vertex 0.000000e+000 -2.964841e+001 4.579478e+000
      endloop
   endfacet
   facet normal -0.000000e+000 -9.947811e-001 1.020323e-001
      outer loop
         vertex 0.000000e+000 -2.964841e+001 4.579478e+000
         vertex -1.000000e+001 -2.964841e+001 4.579478e+000
         vertex -1.000000e+001 -3.000000e+001 0.000000e+000
      endloop
   endfacet
   facet normal -0.000000e+000 -9.986978e-001 5.101613e-002
      outer loop
         vertex 0.000000e+000 -2.964841e+001 4.579478e+000
         vertex -1.000000e+001 -3.000000e+001 0.000000e+000
         vertex 0.000000e+000 -3.000000e+001 0.000000e+000
      endloop
   endfacet
   facet normal 0.000000e+000 -9.986978e-001 -5.101613e-002
      outer loop
         vertex 0.000000e+000 -3.000000e+001 0.000000e+000
         vertex -1.000000e+001 -3.000000e+001 0.000000e+000
         vertex -1.000000e+001 -2.964841e+001 -4.579478e+000
      endloop
   endfacet
   facet normal 0.000000e+000 -9.947811e-001 -1.020323e-001
      outer loop
         vertex 0.000000e+000 -3.000000e+001 0.000000e+000
         vertex -1.000000e+001 -2.964841e+001 -4.579478e+000
         vertex 0.000000e+000 -2.964841e+001 -4.579478e+000
      endloop
   endfacet
   facet normal 0.000000e+000 -9.792059e-001 -2.028688e-001
      outer loop
         vertex 0.000000e+000 -2.964841e+001 -4.579478e+000
         vertex -1.000000e+001 -2.964841e+001 -4.579478e+000
         vertex -1.000000e+001 -2.860189e+001 -9.051619e+000
      endloop
   endfacet
   facet normal 0.000000e+000 -9.675475e-001 -2.526891e-001
      outer loop
         vertex 0.000000e+000 -2.964841e+001 -4.579478e+000
         vertex -1.000000e+001 -2.860189e+001 -9.051619e+000
         vertex 0.000000e+000 -2.860189e+001 -9.051619e+000
      endloop
   endfacet
   facet normal 0.000000e+000 -9.367623e-001 -3.499663e-001
      outer loop
         vertex 0.000000e+000 -2.860189e+001 -9.051619e+000
         vertex -1.000000e+001 -2.860189e+001 -9.051619e+000
         vertex -1.000000e+001 -2.688497e+001 -1.331159e+001
      endloop
   endfacet
   facet normal 0.000000e+000 -9.176354e-001 -3.974231e-001
      outer loop
         vertex 0.000000e+000 -2.860189e+001 -9.051619e+000
         vertex -1.000000e+001 -2.688497e+001 -1.331159e+001
         vertex 0.000000e+000 -2.688497e+001 -1.331159e+001
      endloop
   endfacet
   facet normal 0.000000e+000 -8.723617e-001 -4.888609e-001
      outer loop
         vertex 0.000000e+000 -2.688497e+001 -1.331159e+001
         vertex -1.000000e+001 -2.688497e+001 -1.331159e+001
         vertex -1.000000e+001 -2.453788e+001 -1.725956e+001
      endloop
   endfacet
   facet normal 0.000000e+000 -8.462148e-001 -5.328419e-001
      outer loop
         vertex 0.000000e+000 -2.688497e+001 -1.331159e+001
         vertex -1.000000e+001 -2.453788e+001 -1.725956e+001
         vertex 0.000000e+000 -2.453788e+001 -1.725956e+001
      endloop
   endfacet
   facet normal 0.000000e+000 -7.875138e-001 -6.162970e-001
      outer loop
         vertex 0.000000e+000 -2.453788e+001 -1.725956e+001
         vertex -1.000000e+001 -2.453788e+001 -1.725956e+001
         vertex -1.000000e+001 -2.161565e+001 -2.080297e+001
      endloop
   endfacet
   facet normal 0.000000e+000 -7.549596e-001 -6.557713e-001
      outer loop
         vertex 0.000000e+000 -2.453788e+001 -1.725956e+001
         vertex -1.000000e+001 -2.161565e+001 -2.080297e+001
         vertex 0.000000e+000 -2.161565e+001 -2.080297e+001
      endloop
   endfacet
   facet normal 0.000000e+000 -6.842071e-001 -7.292877e-001
      outer loop
         vertex 0.000000e+000 -2.161565e+001 -2.080297e+001
         vertex -1.000000e+001 -2.161565e+001 -2.080297e+001
         vertex -1.000000e+001 -1.818676e+001 -2.385879e+001
      endloop
   endfacet
   facet normal 0.000000e+000 -6.460088e-001 -7.633300e-001
      outer loop
         vertex 0.000000e+000 -2.161565e+001 -2.080297e+001
         vertex -1.000000e+001 -1.818676e+001 -2.385879e+001
         vertex 0.000000e+000 -1.818676e+001 -2.385879e+001
      endloop
   endfacet
   facet normal 0.000000e+000 -5.648632e-001 -8.251846e-001
      outer loop
         vertex 0.000000e+000 -1.818676e+001 -2.385879e+001
         vertex -1.000000e+001 -1.818676e+001 -2.385879e+001
         vertex -1.000000e+001 -1.433159e+001 -2.635537e+001
      endloop
   endfacet
   facet normal 0.000000e+000 -5.219160e-001 -8.529969e-001
      outer loop
         vertex 0.000000e+000 -1.818676e+001 -2.385879e+001
         vertex -1.000000e+001 -1.433159e+001 -2.635537e+001
         vertex 0.000000e+000 -1.433159e+001 -2.635537e+001
      endloop
   endfacet
   facet normal 0.000000e+000 -4.322795e-001 -9.017397e-001
      outer loop
         vertex 0.000000e+000 -1.433159e+001 -2.635537e+001
         vertex -1.000000e+001 -1.433159e+001 -2.635537e+001
         vertex -1.000000e+001 -1.014051e+001 -2.823420e+001
      endloop
   endfacet
   facet normal 0.000000e+000 -3.855900e-001 -9.226702e-001
      outer loop
         vertex 0.000000e+000 -1.433159e+001 -2.635537e+001
         vertex -1.000000e+001 -1.014051e+001 -2.823420e+001
         vertex 0.000000e+000 -1.014051e+001 -2.823420e+001
      endloop
   endfacet
   facet normal 0.000000e+000 -2.895634e-001 -9.571589e-001
      outer loop
         vertex 0.000000e+000 -1.014051e+001 -2.823420e+001
         vertex -1.000000e+001 -1.014051e+001 -2.823420e+001
         vertex -1.000000e+001 -5.711733e+000 -2.945125e+001
      endloop
   endfacet
   facet normal 0.000000e+000 -2.402261e-001 -9.707170e-001
      outer loop
         vertex 0.000000e+000 -1.014051e+001 -2.823420e+001
         vertex -1.000000e+001 -5.711733e+000 -2.945125e+001
         vertex 0.000000e+000 -5.711733e+000 -2.945125e+001
      endloop
   endfacet
   facet normal 0.000000e+000 -1.400602e-001 -9.901430e-001
      outer loop
         vertex 0.000000e+000 -5.711733e+000 -2.945125e+001
         vertex -1.000000e+001 -5.711733e+000 -2.945125e+001
         vertex -1.000000e+001 -1.149082e+000 -2.997799e+001
      endloop
   endfacet
   facet normal 0.000000e+000 -8.923154e-002 -9.960109e-001
      outer loop
         vertex 0.000000e+000 -5.711733e+000 -2.945125e+001
         vertex -1.000000e+001 -1.149082e+000 -2.997799e+001
         vertex 0.000000e+000 -1.149082e+000 -2.997799e+001
      endloop
   endfacet
   facet normal 0.000000e+000 1.272584e-002 -9.999190e-001
      outer loop
         vertex 0.000000e+000 -1.149082e+000 -2.997799e+001
         vertex -1.000000e+001 -1.149082e+000 -2.997799e+001
         vertex -1.000000e+001 3.440503e+000 -2.980206e+001
      endloop
   endfacet
   facet normal 0.000000e+000 6.385456e-002 -9.979592e-001
      outer loop
         vertex 0.000000e+000 -1.149082e+000 -2.997799e+001
         vertex -1.000000e+001 3.440503e+000 -2.980206e+001
         vertex 0.000000e+000 3.440503e+000 -2.980206e+001
      endloop
   endfacet
   facet normal 0.000000e+000 1.652136e-001 -9.862578e-001
      outer loop
         vertex 0.000000e+000 3.440503e+000 -2.980206e+001
         vertex -1.000000e+001 3.440503e+000 -2.980206e+001
         vertex -1.000000e+001 7.949445e+000 -2.892760e+001
      endloop
   endfacet
   facet normal 0.000000e+000 2.154440e-001 -9.765162e-001
      outer loop
         vertex 0.000000e+000 3.440503e+000 -2.980206e+001
         vertex -1.000000e+001 7.949445e+000 -2.892760e+001
         vertex 0.000000e+000 7.949445e+000 -2.892760e+001
      endloop
   endfacet
   facet normal 0.000000e+000 3.138289e-001 -9.494795e-001
      outer loop
         vertex 0.000000e+000 7.949445e+000 -2.892760e+001
         vertex -1.000000e+001 7.949445e+000 -2.892760e+001
         vertex -1.000000e+001 1.227206e+001 -2.737511e+001
      endloop
   endfacet
   facet normal 0.000000e+000 3.619836e-001 -9.321845e-001
      outer loop
         vertex 0.000000e+000 7.949445e+000 -2.892760e+001
         vertex -1.000000e+001 1.227206e+001 -2.737511e+001
         vertex 0.000000e+000 1.227206e+001 -2.737511e+001
      endloop
   endfacet
   facet normal 0.000000e+000 4.550884e-001 -8.904463e-001
      outer loop
         vertex 0.000000e+000 1.227206e+001 -2.737511e+001
         vertex -1.000000e+001 1.227206e+001 -2.737511e+001
         vertex -1.000000e+001 1.630703e+001 -2.518096e+001
      endloop
   endfacet
   facet normal 0.000000e+000 5.000386e-001 -8.660032e-001
      outer loop
         vertex 0.000000e+000 1.227206e+001 -2.737511e+001
         vertex -1.000000e+001 1.630703e+001 -2.518096e+001
         vertex 0.000000e+000 1.630703e+001 -2.518096e+001
      endloop
   endfacet
   facet normal 0.000000e+000 5.856809e-001 -8.105417e-001
      outer loop
         vertex 0.000000e+000 1.630703e+001 -2.518096e+001
         vertex -1.000000e+001 1.630703e+001 -2.518096e+001
         vertex -1.000000e+001 1.995977e+001 -2.239660e+001
      endloop
   endfacet
   facet normal 0.000000e+000 6.263731e-001 -7.795234e-001
      outer loop
         vertex 0.000000e+000 1.630703e+001 -2.518096e+001
         vertex -1.000000e+001 1.995977e+001 -2.239660e+001
         vertex 0.000000e+000 1.995977e+001 -2.239660e+001
      endloop
   endfacet
   facet normal 0.000000e+000 7.025456e-001 -7.116387e-001
      outer loop
         vertex 0.000000e+000 1.995977e+001 -2.239660e+001
         vertex -1.000000e+001 1.995977e+001 -2.239660e+001
         vertex -1.000000e+001 2.314468e+001 -1.908727e+001
      endloop
   endfacet
   facet normal 0.000000e+000 7.380260e-001 -6.747723e-001
      outer loop
         vertex 0.000000e+000 1.995977e+001 -2.239660e+001
         vertex -1.000000e+001 2.314468e+001 -1.908727e+001
         vertex 0.000000e+000 2.314468e+001 -1.908727e+001
      endloop
   endfacet
   facet normal 0.000000e+000 8.029432e-001 -5.960555e-001
      outer loop
         vertex 0.000000e+000 2.314468e+001 -1.908727e+001
         vertex -1.000000e+001 2.314468e+001 -1.908727e+001
         vertex -1.000000e+001 2.578709e+001 -1.533056e+001
      endloop
   endfacet
   facet normal 0.000000e+000 8.323801e-001 -5.542051e-001
      outer loop
         vertex 0.000000e+000 2.314468e+001 -1.908727e+001
         vertex -1.000000e+001 2.578709e+001 -1.533056e+001
         vertex 0.000000e+000 2.578709e+001 -1.533056e+001
      endloop
   endfacet
   facet normal 0.000000e+000 8.845205e-001 -4.665013e-001
      outer loop
         vertex 0.000000e+000 2.578709e+001 -1.533056e+001
         vertex -1.000000e+001 2.578709e+001 -1.533056e+001
         vertex -1.000000e+001 2.782508e+001 -1.121451e+001
      endloop
   endfacet
   facet normal 0.000000e+000 9.072239e-001 -4.206479e-001
      outer loop
         vertex 0.000000e+000 2.578709e+001 -1.533056e+001
         vertex -1.000000e+001 2.782508e+001 -1.121451e+001
         vertex 0.000000e+000 2.782508e+001 -1.121451e+001
      endloop
   endfacet
   facet normal 0.000000e+000 9.453654e-001 -3.260127e-001
      outer loop
         vertex 0.000000e+000 2.782508e+001 -1.121451e+001
         vertex -1.000000e+001 2.782508e+001 -1.121451e+001
         vertex -1.000000e+001 2.921086e+001 -6.835606e+000
      endloop
   endfacet
   facet normal 0.000000e+000 9.608033e-001 -2.772310e-001
      outer loop
         vertex 0.000000e+000 2.782508e+001 -1.121451e+001
         vertex -1.000000e+001 2.921086e+001 -6.835606e+000
         vertex 0.000000e+000 2.921086e+001 -6.835606e+000
      endloop
   endfacet
   facet normal 0.000000e+000 9.840517e-001 -1.778826e-001
      outer loop
         vertex 0.000000e+000 2.921086e+001 -6.835606e+000
         vertex -1.000000e+001 2.921086e+001 -6.835606e+000
         vertex -1.000000e+001 2.991197e+001 -2.296478e+000
      endloop
   endfacet
   facet normal 0.000000e+000 9.918622e-001 -1.273160e-001
      outer loop
         vertex 0.000000e+000 2.921086e+001 -6.835606e+000
         vertex -1.000000e+001 2.991197e+001 -2.296478e+000
         vertex 0.000000e+000 2.991197e+001 -2.296478e+000
      endloop
   endfacet
   facet normal 0.000000e+000 9.986953e-001 -5.106615e-002
      outer loop
         vertex 0.000000e+000 2.991197e+001 -2.296478e+000
         vertex -1.000000e+001 2.991197e+001 -2.296478e+000
         vertex 0.000000e+000 3.000000e+001 -3.673941e-015
      endloop
   endfacet
   facet normal 1.000000e+000 0.000000e+000 0.000000e+000
      outer loop
         vertex 0.000000e+000 2.921086e+001 -6.835606e+000
         vertex 0.000000e+000 2.991197e+001 -2.296478e+000
         vertex 0.000000e+000 0.000000e+000 0.000000e+000
      endloop
   endfacet
   facet normal 1.000000e+000 0.000000e+000 0.000000e+000
      outer loop
         vertex 0.000000e+000 0.000000e+000 0.000000e+000
         vertex 0.000000e+000 2.991197e+001 -2.296478e+000
         vertex 0.000000e+000 3.000000e+001 -1.102182e-014
      endloop
   endfacet
   facet normal 1.000000e+000 0.000000e+000 0.000000e+000
      outer loop
         vertex 0.000000e+000 0.000000e+000 0.000000e+000
         vertex 0.000000e+000 3.000000e+001 -1.102182e-014
         vertex 0.000000e+000 2.991197e+001 2.296478e+000
      endloop
   endfacet
   facet normal 1.000000e+000 0.000000e+000 0.000000e+000
      outer loop
         vertex 0.000000e+000 2.314468e+001 -1.908727e+001
         vertex 0.000000e+000 2.578709e+001 -1.533056e+001
         vertex 0.000000e+000 0.000000e+000 0.000000e+000
      endloop
   endfacet
   facet normal 1.000000e+000 0.000000e+000 0.000000e+000
      outer loop
         vertex 0.000000e+000 0.000000e+000 0.000000e+000
         vertex 0.000000e+000 2.578709e+001 -1.533056e+001
         vertex 0.000000e+000 2.782508e+001 -1.121451e+001
      endloop
   endfacet
   facet normal 1.000000e+000 0.000000e+000 0.000000e+000
      outer loop
         vertex 0.000000e+000 0.000000e+000 0.000000e+000
         vertex 0.000000e+000 2.782508e+001 -1.121451e+001
         vertex 0.000000e+000 2.921086e+001 -6.835606e+000
      endloop
   endfacet
   facet normal 1.000000e+000 0.000000e+000 0.000000e+000
      outer loop
         vertex 0.000000e+000 1.227206e+001 -2.737511e+001
         vertex 0.000000e+000 1.630703e+001 -2.518096e+001
         vertex 0.000000e+000 0.000000e+000 0.000000e+000
      endloop
   endfacet
   facet normal 1.000000e+000 0.000000e+000 0.000000e+000
      outer loop
         vertex 0.000000e+000 0.000000e+000 0.000000e+000
         vertex 0.000000e+000 1.630703e+001 -2.518096e+001
         vertex 0.000000e+000 1.995977e+001 -2.239660e+001
      endloop
   endfacet
   facet normal 1.000000e+000 0.000000e+000 0.000000e+000
      outer loop
         vertex 0.000000e+000 0.000000e+000 0.000000e+000
         vertex 0.000000e+000 1.995977e+001 -2.239660e+001
         vertex 0.000000e+000 2.314468e+001 -1.908727e+001
      endloop
   endfacet
   facet normal 1.000000e+000 0.000000e+000 0.000000e+000
      outer loop
         vertex 0.000000e+000 -1.149082e+000 -2.997799e+001
         vertex 0.000000e+000 3.440503e+000 -2.980206e+001
         vertex 0.000000e+000 0.000000e+000 0.000000e+000
      endloop
   endfacet
   facet normal 1.000000e+000 0.000000e+000 0.000000e+000
      outer loop
         vertex 0.000000e+000 0.000000e+000 0.000000e+000
         vertex 0.000000e+000 3.440503e+000 -2.980206e+001
         vertex 0.000000e+000 7.949445e+000 -2.892760e+001
      endloop
   endfacet
   facet normal 1.000000e+000 0.000000e+000 0.000000e+000
      outer loop
         vertex 0.000000e+000 0.000000e+000 0.000000e+000
         vertex 0.000000e+000 7.949445e+000 -2.892760e+001
         vertex 0.000000e+000 1.227206e+001 -2.737511e+001
      endloop
   endfacet
   facet normal 1.000000e+000 0.000000e+000 0.000000e+000
      outer loop
         vertex 0.000000e+000 -1.433159e+001 -2.635537e+001
         vertex 0.000000e+000 -1.014051e+001 -2.823420e+001
         vertex 0.000000e+000 0.000000e+000 0.000000e+000
      endloop
   endfacet
   facet normal 1.000000e+000 0.000000e+000 0.000000e+000
      outer loop
         vertex 0.000000e+000 0.000000e+000 0.000000e+000
         vertex 0.000000e+000 -1.014051e+001 -2.823420e+001
         vertex 0.000000e+000 -5.711733e+000 -2.945125e+001
      endloop
   endfacet
   facet normal 1.000000e+000 0.000000e+000 0.000000e+000
      outer loop
         vertex 0.000000e+000 0.000000e+000 0.000000e+000
         vertex 0.000000e+000 -5.711733e+000 -2.945125e+001
         vertex 0.000000e+000 -1.149082e+000 -2.997799e+001
      endloop
   endfacet
   facet normal 1.000000e+000 0.000000e+000 0.000000e+000
      outer loop
         vertex 0.000000e+000 -2.453788e+001 -1.725956e+001
         vertex 0.000000e+000 -2.161565e+001 -2.080297e+001
         vertex 0.000000e+000 0.000000e+000 0.000000e+000
      endloop
   endfacet
   facet normal 1.000000e+000 0.000000e+000 0.000000e+000
      outer loop
         vertex 0.000000e+000 0.000000e+000 0.000000e+000
         vertex 0.000000e+000 -2.161565e+001 -2.080297e+001
         vertex 0.000000e+000 -1.818676e+001 -2.385879e+001
      endloop
   endfacet
   facet normal 1.000000e+000 0.000000e+000 0.000000e+000
      outer loop
         vertex 0.000000e+000 0.000000e+000 0.000000e+000
         vertex 0.000000e+000 -1.818676e+001 -2.385879e+001
         vertex 0.000000e+000 -1.433159e+001 -2.635537e+001
      endloop
   endfacet
   facet normal 1.000000e+000 0.000000e+000 0.000000e+000
      outer loop
         vertex 0.000000e+000 -2.964841e+001 -4.579478e+000
         vertex 0.000000e+000 -2.860189e+001 -9.051619e+000
         vertex 0.000000e+000 0.000000e+000 0.000000e+000
      endloop
   endfacet
   facet normal 1.000000e+000 0.000000e+000 0.000000e+000
      outer loop
         vertex 0.000000e+000 0.000000e+000 0.000000e+000
         vertex 0.000000e+000 -2.860189e+001 -9.051619e+000
         vertex 0.000000e+000 -2.688497e+001 -1.331159e+001
      endloop
   endfacet
   facet normal 1.000000e+000 0.000000e+000 0.000000e+000
      outer loop
         vertex 0.000000e+000 0.000000e+000 0.000000e+000
         vertex 0.000000e+000 -2.688497e+001 -1.331159e+001
         vertex 0.000000e+000 -2.453788e+001 -1.725956e+001
      endloop
   endfacet
   facet normal 1.000000e+000 0.000000e+000 0.000000e+000
      outer loop
         vertex 0.000000e+000 -2.860189e+001 9.051619e+000
         vertex 0.000000e+000 -2.964841e+001 4.579478e+000
         vertex 0.000000e+000 0.000000e+000 0.000000e+000
      endloop
   endfacet
   facet normal 1.000000e+000 0.000000e+000 0.000000e+000
      outer loop
         vertex 0.000000e+000 0.000000e+000 0.000000e+000
         vertex 0.000000e+000 -2.964841e+001 4.579478e+000
         vertex 0.000000e+000 -3.000000e+001 0.000000e+000
      endloop
   endfacet
   facet normal 1.000000e+000 0.000000e+000 0.000000e+000
      outer loop
         vertex 0.000000e+000 0.000000e+000 0.000000e+000
         vertex 0.000000e+000 -3.000000e+001 0.000000e+000
         vertex 0.000000e+000 -2.964841e+001 -4.579478e+000
      endloop
   endfacet
   facet normal 1.000000e+000 0.000000e+000 0.000000e+000
      outer loop
         vertex 0.000000e+000 -2.161565e+001 2.080297e+001
         vertex 0.000000e+000 -2.453788e+001 1.725956e+001
         vertex 0.000000e+000 0.000000e+000 0.000000e+000
      endloop
   endfacet
   facet normal 1.000000e+000 0.000000e+000 0.000000e+000
      outer loop
         vertex 0.000000e+000 0.000000e+000 0.000000e+000
         vertex 0.000000e+000 -2.453788e+001 1.725956e+001
         vertex 0.000000e+000 -2.688497e+001 1.331159e+001
      endloop
   endfacet
   facet normal 1.000000e+000 0.000000e+000 0.000000e+000
      outer loop
         vertex 0.000000e+000 0.000000e+000 0.000000e+000
         vertex 0.000000e+000 -2.688497e+001 1.331159e+001
         vertex 0.000000e+000 -2.860189e+001 9.051619e+000
      endloop
   endfacet
   facet normal 1.000000e+000 0.000000e+000 0.000000e+000
      outer loop
         vertex 0.000000e+000 -1.014051e+001 2.823420e+001
         vertex 0.000000e+000 -1.433159e+001 2.635537e+001
         vertex 0.000000e+000 0.000000e+000 0.000000e+000
      endloop
   endfacet
   facet normal 1.000000e+000 0.000000e+000 0.000000e+000
      outer loop
         vertex 0.000000e+000 0.000000e+000 0.000000e+000
         vertex 0.000000e+000 -1.433159e+001 2.635537e+001
         vertex 0.000000e+000 -1.818676e+001 2.385879e+001
      endloop
   endfacet
   facet normal 1.000000e+000 0.000000e+000 0.000000e+000
      outer loop
         vertex 0.000000e+000 0.000000e+000 0.000000e+000
         vertex 0.000000e+000 -1.818676e+001 2.385879e+001
         vertex 0.000000e+000 -2.161565e+001 2.080297e+001
      endloop
   endfacet
   facet normal 1.000000e+000 0.000000e+000 0.000000e+000
      outer loop
         vertex 0.000000e+000 3.440503e+000 2.980206e+001
         vertex 0.000000e+000 -1.149082e+000 2.997799e+001
         vertex 0.000000e+000 0.000000e+000 0.000000e+000
      endloop
   endfacet
   facet normal 1.000000e+000 0.000000e+000 0.000000e+000
      outer loop
         vertex 0.000000e+000 0.000000e+000 0.000000e+000
         vertex 0.000000e+000 -1.149082e+000 2.997799e+001
         vertex 0.000000e+000 -5.711733e+000 2.945125e+001
      endloop
   endfacet
   facet normal 1.000000e+000 0.000000e+000 0.000000e+000
      outer loop
         vertex 0.000000e+000 0.000000e+000 0.000000e+000
         vertex 0.000000e+000 -5.711733e+000 2.945125e+001
         vertex 0.000000e+000 -1.014051e+001 2.823420e+001
      endloop
   endfacet
   facet normal 1.000000e+000 0.000000e+000 0.000000e+000
      outer loop
         vertex 0.000000e+000 1.630703e+001 2.518096e+001
         vertex 0.000000e+000 1.227206e+001 2.737511e+001
         vertex 0.000000e+000 0.000000e+000 0.000000e+000
      endloop
   endfacet
   facet normal 1.000000e+000 0.000000e+000 0.000000e+000
      outer loop
         vertex 0.000000e+000 0.000000e+000 0.000000e+000
         vertex 0.000000e+000 1.227206e+001 2.737511e+001
         vertex 0.000000e+000 7.949445e+000 2.892760e+001
      endloop
   endfacet
   facet normal 1.000000e+000 0.000000e+000 0.000000e+000
      outer loop
         vertex 0.000000e+000 0.000000e+000 0.000000e+000
         vertex 0.000000e+000 7.949445e+000 2.892760e+001
         vertex 0.000000e+000 3.440503e+000 2.980206e+001
      endloop
   endfacet
   facet normal 1.000000e+000 0.000000e+000 0.000000e+000
      outer loop
         vertex 0.000000e+000 2.578709e+001 1.533056e+001
         vertex 0.000000e+000 2.314468e+001 1.908727e+001
         vertex 0.000000e+000 0.000000e+000 0.000000e+000
      endloop
   endfacet
   facet normal 1.000000e+000 0.000000e+000 0.000000e+000
      outer loop
         vertex 0.000000e+000 0.000000e+000 0.000000e+000
         vertex 0.000000e+000 2.314468e+001 1.908727e+001
         vertex 0.000000e+000 1.995977e+001 2.239660e+001
      endloop
   endfacet
   facet normal 1.000000e+000 0.000000e+000 0.000000e+000
      outer loop
         vertex 0.000000e+000 0.000000e+000 0.000000e+000
         vertex 0.000000e+000 1.995977e+001 2.239660e+001
         vertex 0.000000e+000 1.630703e+001 2.518096e+001
      endloop
   endfacet
   facet normal 1.000000e+000 0.000000e+000 0.000000e+000
      outer loop
         vertex 0.000000e+000 2.991197e+001 2.296478e+000
         vertex 0.000000e+000 2.921086e+001 6.835606e+000
         vertex 0.000000e+000 0.000000e+000 0.000000e+000
      endloop
   endfacet
   facet normal 1.000000e+000 0.000000e+000 0.000000e+000
      outer loop
         vertex 0.000000e+000 0.000000e+000 0.000000e+000
         vertex 0.000000e+000 2.921086e+001 6.835606e+000
         vertex 0.000000e+000 2.782508e+001 1.121451e+001
      endloop
   endfacet
   facet normal 1.000000e+000 0.000000e+000 0.000000e+000
      outer loop
         vertex 0.000000e+000 0.000000e+000 0.000000e+000
         vertex 0.000000e+000 2.782508e+001 1.121451e+001
         vertex 0.000000e+000 2.578709e+001 1.533056e+001
      endloop
   endfacet
   facet normal 0.000000e+000 -1.734723e-016 -1.000000e+000
      outer loop
         vertex -5.000000e+001 -1.500000e+001 -1.500000e+001
         vertex -5.000000e+001 1.500000e+001 -1.500000e+001
         vertex -1.000000e+001 -1.500000e+001 -1.500000e+001
      endloop
   endfacet
   facet normal 0.000000e+000 -1.734723e-016 -1.000000e+000
      outer loop
         vertex -1.000000e+001 -1.500000e+001 -1.500000e+001
         vertex -5.000000e+001 1.500000e+001 -1.500000e+001
         vertex -1.000000e+001 1.500000e+001 -1.500000e+001
      endloop
   endfacet
   facet normal 0.000000e+000 -1.000000e+000 0.000000e+000
      outer loop
         vertex -5.000000e+001 -1.500000e+001 1.500000e+001
         vertex -5.000000e+001 -1.500000e+001 -1.500000e+001
         vertex -1.000000e+001 -1.500000e+001 1.500000e+001
      endloop
   endfacet
   facet normal 0.000000e+000 -1.000000e+000 0.000000e+000
      outer loop
         vertex -1.000000e+001 -1.500000e+001 1.500000e+001
         vertex -5.000000e+001 -1.500000e+001 -1.500000e+001
         vertex -1.000000e+001 -1.500000e+001 -1.500000e+001
      endloop
   endfacet
   facet normal 0.000000e+000 1.156482e-016 1.000000e+000
      outer loop
         vertex -5.000000e+001 1.500000e+001 1.500000e+001
         vertex -5.000000e+001 -1.500000e+001 1.500000e+001
         vertex -1.000000e+001 1.500000e+001 1.500000e+001
      endloop
   endfacet
   facet normal 0.000000e+000 1.156482e-016 1.000000e+000
      outer loop
         vertex -1.000000e+001 1.500000e+001 1.500000e+001
         vertex -5.000000e+001 -1.500000e+001 1.500000e+001
         vertex -1.000000e+001 -1.500000e+001 1.500000e+001
      endloop
   endfacet
   facet normal 0.000000e+000 1.000000e+000 0.000000e+000
      outer loop
         vertex -5.000000e+001 1.500000e+001 -1.500000e+001
         vertex -5.000000e+001 1.500000e+001 1.500000e+001
         vertex -1.000000e+001 1.500000e+001 -1.500000e+001
      endloop
   endfacet
   facet normal 0.000000e+000 1.000000e+000 0.000000e+000
      outer loop
         vertex -1.000000e+001 1.500000e+001 -1.500000e+001
         vertex -5.000000e+001 1.500000e+001 1.500000e+001
         vertex -1.000000e+001 1.500000e+001 1.500000e+001
      endloop
   endfacet
   facet normal -1.000000e+000 0.000000e+000 0.000000e+000
      outer loop
         vertex -5.000000e+001 -2.098484e+000 3.634680e+000
         vertex -5.000000e+001 -2.697758e+000 3.215063e+000
         vertex -5.000000e+001 -1.500000e+001 1.500000e+001
      endloop
   endfacet
   facet normal -1.000000e+000 0.000000e+000 0.000000e+000
      outer loop
         vertex -5.000000e+001 -2.098484e+000 3.634680e+000
         vertex -5.000000e+001 -1.500000e+001 1.500000e+001
         vertex -5.000000e+001 -1.435447e+000 3.943859e+000
      endloop
   endfacet
   facet normal -1.000000e+000 0.000000e+000 0.000000e+000
      outer loop
         vertex -5.000000e+001 -2.697758e+000 3.215063e+000
         vertex -5.000000e+001 -3.215063e+000 2.697758e+000
         vertex -5.000000e+001 -1.500000e+001 1.500000e+001
      endloop
   endfacet
   facet normal -1.000000e+000 0.000000e+000 0.000000e+000
      outer loop
         vertex -5.000000e+001 -1.500000e+001 1.500000e+001
         vertex -5.000000e+001 -3.215063e+000 2.697758e+000
         vertex -5.000000e+001 -3.634680e+000 2.098484e+000
      endloop
   endfacet
   facet normal -1.000000e+000 0.000000e+000 0.000000e+000
      outer loop
         vertex -5.000000e+001 -1.500000e+001 1.500000e+001
         vertex -5.000000e+001 -3.634680e+000 2.098484e+000
         vertex -5.000000e+001 -3.943859e+000 1.435447e+000
      endloop
   endfacet
   facet normal -1.000000e+000 0.000000e+000 0.000000e+000
      outer loop
         vertex -5.000000e+001 -3.215063e+000 -2.697758e+000
         vertex -5.000000e+001 -1.500000e+001 -1.500000e+001
         vertex -5.000000e+001 -3.634680e+000 -2.098484e+000
      endloop
   endfacet
   facet normal -1.000000e+000 0.000000e+000 0.000000e+000
      outer loop
         vertex -5.000000e+001 -3.634680e+000 -2.098484e+000
         vertex -5.000000e+001 -1.500000e+001 -1.500000e+001
         vertex -5.000000e+001 -3.943859e+000 -1.435447e+000
      endloop
   endfacet
   facet normal -1.000000e+000 0.000000e+000 0.000000e+000
      outer loop
         vertex -5.000000e+001 3.943859e+000 1.435447e+000
         vertex -5.000000e+001 3.634680e+000 2.098484e+000
         vertex -5.000000e+001 1.500000e+001 1.500000e+001
      endloop
   endfacet
   facet normal -1.000000e+000 0.000000e+000 0.000000e+000
      outer loop
         vertex -5.000000e+001 1.500000e+001 1.500000e+001
         vertex -5.000000e+001 3.634680e+000 2.098484e+000
         vertex -5.000000e+001 3.215063e+000 2.697758e+000
      endloop
   endfacet
   facet normal -1.000000e+000 0.000000e+000 0.000000e+000
      outer loop
         vertex -5.000000e+001 -3.943859e+000 1.435447e+000
         vertex -5.000000e+001 -4.133206e+000 7.287956e-001
         vertex -5.000000e+001 -1.500000e+001 1.500000e+001
      endloop
   endfacet
   facet normal -1.000000e+000 0.000000e+000 0.000000e+000
      outer loop
         vertex -5.000000e+001 -1.500000e+001 1.500000e+001
         vertex -5.000000e+001 -4.133206e+000 7.287956e-001
         vertex -5.000000e+001 -4.196967e+000 0.000000e+000
      endloop
   endfacet
   facet normal -1.000000e+000 0.000000e+000 0.000000e+000
      outer loop
         vertex -5.000000e+001 -1.500000e+001 1.500000e+001
         vertex -5.000000e+001 -4.196967e+000 0.000000e+000
         vertex -5.000000e+001 -1.500000e+001 -1.500000e+001
      endloop
   endfacet
   facet normal -1.000000e+000 0.000000e+000 0.000000e+000
      outer loop
         vertex -5.000000e+001 -1.500000e+001 -1.500000e+001
         vertex -5.000000e+001 -4.196967e+000 0.000000e+000
         vertex -5.000000e+001 -4.133206e+000 -7.287956e-001
      endloop
   endfacet
   facet normal -1.000000e+000 0.000000e+000 0.000000e+000
      outer loop
         vertex -5.000000e+001 -1.500000e+001 -1.500000e+001
         vertex -5.000000e+001 -4.133206e+000 -7.287956e-001
         vertex -5.000000e+001 -3.943859e+000 -1.435447e+000
      endloop
   endfacet
   facet normal -1.000000e+000 0.000000e+000 0.000000e+000
      outer loop
         vertex -5.000000e+001 -3.215063e+000 -2.697758e+000
         vertex -5.000000e+001 -2.697758e+000 -3.215063e+000
         vertex -5.000000e+001 -1.500000e+001 -1.500000e+001
      endloop
   endfacet
   facet normal -1.000000e+000 0.000000e+000 0.000000e+000
      outer loop
         vertex -5.000000e+001 -1.500000e+001 -1.500000e+001
         vertex -5.000000e+001 -2.697758e+000 -3.215063e+000
         vertex -5.000000e+001 -2.098484e+000 -3.634680e+000
      endloop
   endfacet
   facet normal -1.000000e+000 0.000000e+000 0.000000e+000
      outer loop
         vertex -5.000000e+001 -1.500000e+001 -1.500000e+001
         vertex -5.000000e+001 -2.098484e+000 -3.634680e+000
         vertex -5.000000e+001 -1.435447e+000 -3.943859e+000
      endloop
   endfacet
   facet normal -1.000000e+000 0.000000e+000 0.000000e+000
      outer loop
         vertex -5.000000e+001 2.098484e+000 -3.634680e+000
         vertex -5.000000e+001 2.697758e+000 -3.215063e+000
         vertex -5.000000e+001 1.500000e+001 -1.500000e+001
      endloop
   endfacet
   facet normal -1.000000e+000 0.000000e+000 0.000000e+000
      outer loop
         vertex -5.000000e+001 3.215063e+000 2.697758e+000
         vertex -5.000000e+001 2.697758e+000 3.215063e+000
         vertex -5.000000e+001 1.500000e+001 1.500000e+001
      endloop
   endfacet
   facet normal -1.000000e+000 0.000000e+000 0.000000e+000
      outer loop
         vertex -5.000000e+001 1.500000e+001 1.500000e+001
         vertex -5.000000e+001 2.697758e+000 3.215063e+000
         vertex -5.000000e+001 2.098484e+000 3.634680e+000
      endloop
   endfacet
   facet normal -1.000000e+000 0.000000e+000 0.000000e+000
      outer loop
         vertex -5.000000e+001 1.500000e+001 1.500000e+001
         vertex -5.000000e+001 2.098484e+000 3.634680e+000
         vertex -5.000000e+001 1.435447e+000 3.943859e+000
      endloop
   endfacet
   facet normal -1.000000e+000 0.000000e+000 0.000000e+000
      outer loop
         vertex -5.000000e+001 1.435447e+000 3.943859e+000
         vertex -5.000000e+001 7.287956e-001 4.133206e+000
         vertex -5.000000e+001 1.500000e+001 1.500000e+001
      endloop
   endfacet
   facet normal -1.000000e+000 0.000000e+000 0.000000e+000
      outer loop
         vertex -5.000000e+001 1.500000e+001 1.500000e+001
         vertex -5.000000e+001 7.287956e-001 4.133206e+000
         vertex -5.000000e+001 7.709703e-016 4.196967e+000
      endloop
   endfacet
   facet normal -1.000000e+000 0.000000e+000 0.000000e+000
      outer loop
         vertex -5.000000e+001 1.500000e+001 1.500000e+001
         vertex -5.000000e+001 7.709703e-016 4.196967e+000
         vertex -5.000000e+001 -1.500000e+001 1.500000e+001
      endloop
   endfacet
   facet normal -1.000000e+000 0.000000e+000 0.000000e+000
      outer loop
         vertex -5.000000e+001 -1.500000e+001 1.500000e+001
         vertex -5.000000e+001 7.709703e-016 4.196967e+000
         vertex -5.000000e+001 -7.287956e-001 4.133206e+000
      endloop
   endfacet
   facet normal -1.000000e+000 0.000000e+000 0.000000e+000
      outer loop
         vertex -5.000000e+001 -1.500000e+001 1.500000e+001
         vertex -5.000000e+001 -7.287956e-001 4.133206e+000
         vertex -5.000000e+001 -1.435447e+000 3.943859e+000
      endloop
   endfacet
   facet normal -1.000000e+000 0.000000e+000 0.000000e+000
      outer loop
         vertex -5.000000e+001 2.098484e+000 -3.634680e+000
         vertex -5.000000e+001 1.500000e+001 -1.500000e+001
         vertex -5.000000e+001 1.435447e+000 -3.943859e+000
      endloop
   endfacet
   facet normal -1.000000e+000 0.000000e+000 0.000000e+000
      outer loop
         vertex -5.000000e+001 3.943859e+000 -1.435447e+000
         vertex -5.000000e+001 4.133206e+000 -7.287956e-001
         vertex -5.000000e+001 1.500000e+001 -1.500000e+001
      endloop
   endfacet
   facet normal -1.000000e+000 0.000000e+000 0.000000e+000
      outer loop
         vertex -5.000000e+001 1.500000e+001 -1.500000e+001
         vertex -5.000000e+001 4.133206e+000 -7.287956e-001
         vertex -5.000000e+001 4.196967e+000 -1.541941e-015
      endloop
   endfacet
   facet normal -1.000000e+000 0.000000e+000 0.000000e+000
      outer loop
         vertex -5.000000e+001 1.500000e+001 -1.500000e+001
         vertex -5.000000e+001 4.196967e+000 -1.541941e-015
         vertex -5.000000e+001 1.500000e+001 1.500000e+001
      endloop
   endfacet
   facet normal -1.000000e+000 0.000000e+000 0.000000e+000
      outer loop
         vertex -5.000000e+001 1.500000e+001 1.500000e+001
         vertex -5.000000e+001 4.196967e+000 -1.541941e-015
         vertex -5.000000e+001 4.133206e+000 7.287956e-001
      endloop
   endfacet
   facet normal -1.000000e+000 0.000000e+000 0.000000e+000
      outer loop
         vertex -5.000000e+001 1.500000e+001 1.500000e+001
         vertex -5.000000e+001 4.133206e+000 7.287956e-001
         vertex -5.000000e+001 3.943859e+000 1.435447e+000
      endloop
   endfacet
   facet normal -1.000000e+000 0.000000e+000 0.000000e+000
      outer loop
         vertex -5.000000e+001 -1.435447e+000 -3.943859e+000
         vertex -5.000000e+001 -7.287956e-001 -4.133206e+000
         vertex -5.000000e+001 -1.500000e+001 -1.500000e+001
      endloop
   endfacet
   facet normal -1.000000e+000 0.000000e+000 0.000000e+000
      outer loop
         vertex -5.000000e+001 -1.500000e+001 -1.500000e+001
         vertex -5.000000e+001 -7.287956e-001 -4.133206e+000
         vertex -5.000000e+001 -2.569901e-016 -4.196967e+000
      endloop
   endfacet
   facet normal -1.000000e+000 0.000000e+000 0.000000e+000
      outer loop
         vertex -5.000000e+001 -1.500000e+001 -1.500000e+001
         vertex -5.000000e+001 -2.569901e-016 -4.196967e+000
         vertex -5.000000e+001 1.500000e+001 -1.500000e+001
      endloop
   endfacet
   facet normal -1.000000e+000 0.000000e+000 0.000000e+000
      outer loop
         vertex -5.000000e+001 1.500000e+001 -1.500000e+001
         vertex -5.000000e+001 -2.569901e-016 -4.196967e+000
         vertex -5.000000e+001 7.287956e-001 -4.133206e+000
      endloop
   endfacet
   facet normal -1.000000e+000 0.000000e+000 0.000000e+000
      outer loop
         vertex -5.000000e+001 1.500000e+001 -1.500000e+001
         vertex -5.000000e+001 7.287956e-001 -4.133206e+000
         vertex -5.000000e+001 1.435447e+000 -3.943859e+000
      endloop
   endfacet
   facet normal -1.000000e+000 0.000000e+000 0.000000e+000
      outer loop
         vertex -5.000000e+001 2.697758e+000 -3.215063e+000
         vertex -5.000000e+001 3.215063e+000 -2.697758e+000
         vertex -5.000000e+001 1.500000e+001 -1.500000e+001
      endloop
   endfacet
   facet normal -1.000000e+000 0.000000e+000 0.000000e+000
      outer loop
         vertex -5.000000e+001 1.500000e+001 -1.500000e+001
         vertex -5.000000e+001 3.215063e+000 -2.697758e+000
         vertex -5.000000e+001 3.634680e+000 -2.098484e+000
      endloop
   endfacet
   facet normal -1.000000e+000 0.000000e+000 0.000000e+000
      outer loop
         vertex -5.000000e+001 1.500000e+001 -1.500000e+001
         vertex -5.000000e+001 3.634680e+000 -2.098484e+000
         vertex -5.000000e+001 3.943859e+000 -1.435447e+000
      endloop
   endfacet
   facet normal 0.000000e+000 -9.932307e-001 -1.161583e-001
      outer loop
         vertex -5.000000e+001 -4.196967e+000 0.000000e+000
         vertex -1.600000e+002 -4.133206e+000 -7.287956e-001
         vertex -5.000000e+001 -4.133206e+000 -7.287956e-001
      endloop
   endfacet
   facet normal 0.000000e+000 -9.730600e-001 -2.305519e-001
      outer loop
         vertex -5.000000e+001 -4.133206e+000 -7.287956e-001
         vertex -1.600000e+002 -4.133206e+000 -7.287956e-001
         vertex -1.600000e+002 -3.943859e+000 -1.435447e+000
      endloop
   endfacet
   facet normal 0.000000e+000 -9.579706e-001 -2.868663e-001
      outer loop
         vertex -5.000000e+001 -4.133206e+000 -7.287956e-001
         vertex -1.600000e+002 -3.943859e+000 -1.435447e+000
         vertex -5.000000e+001 -3.943859e+000 -1.435447e+000
      endloop
   endfacet
   facet normal 0.000000e+000 -9.182422e-001 -3.960194e-001
      outer loop
         vertex -5.000000e+001 -3.943859e+000 -1.435447e+000
         vertex -1.600000e+002 -3.943859e+000 -1.435447e+000
         vertex -1.600000e+002 -3.634680e+000 -2.098484e+000
      endloop
   endfacet
   facet normal 0.000000e+000 -8.936031e-001 -4.488580e-001
      outer loop
         vertex -5.000000e+001 -3.943859e+000 -1.435447e+000
         vertex -1.600000e+002 -3.634680e+000 -2.098484e+000
         vertex -5.000000e+001 -3.634680e+000 -2.098484e+000
      endloop
   endfacet
   facet normal 0.000000e+000 -8.355240e-001 -5.494540e-001
      outer loop
         vertex -5.000000e+001 -3.634680e+000 -2.098484e+000
         vertex -1.600000e+002 -3.634680e+000 -2.098484e+000
         vertex -1.600000e+002 -3.215063e+000 -2.697758e+000
      endloop
   endfacet
   facet normal 0.000000e+000 -8.020839e-001 -5.972114e-001
      outer loop
         vertex -5.000000e+001 -3.634680e+000 -2.098484e+000
         vertex -1.600000e+002 -3.215063e+000 -2.697758e+000
         vertex -5.000000e+001 -3.215063e+000 -2.697758e+000
      endloop
   endfacet
   facet normal 0.000000e+000 -7.274188e-001 -6.861938e-001
      outer loop
         vertex -5.000000e+001 -3.215063e+000 -2.697758e+000
         vertex -1.600000e+002 -3.215063e+000 -2.697758e+000
         vertex -1.600000e+002 -2.697758e+000 -3.215063e+000
      endloop
   endfacet
   facet normal 0.000000e+000 -6.861938e-001 -7.274188e-001
      outer loop
         vertex -5.000000e+001 -3.215063e+000 -2.697758e+000
         vertex -1.600000e+002 -2.697758e+000 -3.215063e+000
         vertex -5.000000e+001 -2.697758e+000 -3.215063e+000
      endloop
   endfacet
   facet normal 0.000000e+000 -5.972114e-001 -8.020839e-001
      outer loop
         vertex -5.000000e+001 -2.697758e+000 -3.215063e+000
         vertex -1.600000e+002 -2.697758e+000 -3.215063e+000
         vertex -1.600000e+002 -2.098484e+000 -3.634680e+000
      endloop
   endfacet
   facet normal 0.000000e+000 -5.494540e-001 -8.355240e-001
      outer loop
         vertex -5.000000e+001 -2.697758e+000 -3.215063e+000
         vertex -1.600000e+002 -2.098484e+000 -3.634680e+000
         vertex -5.000000e+001 -2.098484e+000 -3.634680e+000
      endloop
   endfacet
   facet normal 0.000000e+000 -4.488580e-001 -8.936031e-001
      outer loop
         vertex -5.000000e+001 -2.098484e+000 -3.634680e+000
         vertex -1.600000e+002 -2.098484e+000 -3.634680e+000
         vertex -1.600000e+002 -1.435447e+000 -3.943859e+000
      endloop
   endfacet
   facet normal 0.000000e+000 -3.960194e-001 -9.182422e-001
      outer loop
         vertex -5.000000e+001 -2.098484e+000 -3.634680e+000
         vertex -1.600000e+002 -1.435447e+000 -3.943859e+000
         vertex -5.000000e+001 -1.435447e+000 -3.943859e+000
      endloop
   endfacet
   facet normal 0.000000e+000 -2.868663e-001 -9.579706e-001
      outer loop
         vertex -5.000000e+001 -1.435447e+000 -3.943859e+000
         vertex -1.600000e+002 -1.435447e+000 -3.943859e+000
         vertex -1.600000e+002 -7.287956e-001 -4.133206e+000
      endloop
   endfacet
   facet normal 0.000000e+000 -2.305519e-001 -9.730600e-001
      outer loop
         vertex -5.000000e+001 -1.435447e+000 -3.943859e+000
         vertex -1.600000e+002 -7.287956e-001 -4.133206e+000
         vertex -5.000000e+001 -7.287956e-001 -4.133206e+000
      endloop
   endfacet
   facet normal 0.000000e+000 -1.161583e-001 -9.932307e-001
      outer loop
         vertex -5.000000e+001 -7.287956e-001 -4.133206e+000
         vertex -1.600000e+002 -7.287956e-001 -4.133206e+000
         vertex -1.600000e+002 -2.569901e-016 -4.196967e+000
      endloop
   endfacet
   facet normal 0.000000e+000 -5.807914e-002 -9.983120e-001
      outer loop
         vertex -5.000000e+001 -7.287956e-001 -4.133206e+000
         vertex -1.600000e+002 -2.569901e-016 -4.196967e+000
         vertex -5.000000e+001 -2.569901e-016 -4.196967e+000
      endloop
   endfacet
   facet normal 0.000000e+000 5.807914e-002 -9.983120e-001
      outer loop
         vertex -5.000000e+001 -2.569901e-016 -4.196967e+000
         vertex -1.600000e+002 -2.569901e-016 -4.196967e+000
         vertex -1.600000e+002 7.287956e-001 -4.133206e+000
      endloop
   endfacet
   facet normal 0.000000e+000 1.161583e-001 -9.932307e-001
      outer loop
         vertex -5.000000e+001 -2.569901e-016 -4.196967e+000
         vertex -1.600000e+002 7.287956e-001 -4.133206e+000
         vertex -5.000000e+001 7.287956e-001 -4.133206e+000
      endloop
   endfacet
   facet normal 0.000000e+000 2.305519e-001 -9.730600e-001
      outer loop
         vertex -5.000000e+001 7.287956e-001 -4.133206e+000
         vertex -1.600000e+002 7.287956e-001 -4.133206e+000
         vertex -1.600000e+002 1.435447e+000 -3.943859e+000
      endloop
   endfacet
   facet normal 0.000000e+000 2.868663e-001 -9.579706e-001
      outer loop
         vertex -5.000000e+001 7.287956e-001 -4.133206e+000
         vertex -1.600000e+002 1.435447e+000 -3.943859e+000
         vertex -5.000000e+001 1.435447e+000 -3.943859e+000
      endloop
   endfacet
   facet normal 0.000000e+000 3.960194e-001 -9.182422e-001
      outer loop
         vertex -5.000000e+001 1.435447e+000 -3.943859e+000
         vertex -1.600000e+002 1.435447e+000 -3.943859e+000
         vertex -1.600000e+002 2.098484e+000 -3.634680e+000
      endloop
   endfacet
   facet normal 0.000000e+000 4.488580e-001 -8.936031e-001
      outer loop
         vertex -5.000000e+001 1.435447e+000 -3.943859e+000
         vertex -1.600000e+002 2.098484e+000 -3.634680e+000
         vertex -5.000000e+001 2.098484e+000 -3.634680e+000
      endloop
   endfacet
   facet normal 0.000000e+000 5.494540e-001 -8.355240e-001
      outer loop
         vertex -5.000000e+001 2.098484e+000 -3.634680e+000
         vertex -1.600000e+002 2.098484e+000 -3.634680e+000
         vertex -1.600000e+002 2.697758e+000 -3.215063e+000
      endloop
   endfacet
   facet normal 0.000000e+000 5.972114e-001 -8.020839e-001
      outer loop
         vertex -5.000000e+001 2.098484e+000 -3.634680e+000
         vertex -1.600000e+002 2.697758e+000 -3.215063e+000
         vertex -5.000000e+001 2.697758e+000 -3.215063e+000
      endloop
   endfacet
   facet normal 0.000000e+000 6.861938e-001 -7.274188e-001
      outer loop
         vertex -5.000000e+001 2.697758e+000 -3.215063e+000
         vertex -1.600000e+002 2.697758e+000 -3.215063e+000
         vertex -1.600000e+002 3.215063e+000 -2.697758e+000
      endloop
   endfacet
   facet normal 0.000000e+000 7.274188e-001 -6.861938e-001
      outer loop
         vertex -5.000000e+001 2.697758e+000 -3.215063e+000
         vertex -1.600000e+002 3.215063e+000 -2.697758e+000
         vertex -5.000000e+001 3.215063e+000 -2.697758e+000
      endloop
   endfacet
   facet normal 0.000000e+000 8.020839e-001 -5.972114e-001
      outer loop
         vertex -5.000000e+001 3.215063e+000 -2.697758e+000
         vertex -1.600000e+002 3.215063e+000 -2.697758e+000
         vertex -1.600000e+002 3.634680e+000 -2.098484e+000
      endloop
   endfacet
   facet normal 0.000000e+000 8.355240e-001 -5.494540e-001
      outer loop
         vertex -5.000000e+001 3.215063e+000 -2.697758e+000
         vertex -1.600000e+002 3.634680e+000 -2.098484e+000
         vertex -5.000000e+001 3.634680e+000 -2.098484e+000
      endloop
   endfacet
   facet normal 0.000000e+000 8.936031e-001 -4.488580e-001
      outer loop
         vertex -5.000000e+001 3.634680e+000 -2.098484e+000
         vertex -1.600000e+002 3.634680e+000 -2.098484e+000
         vertex -1.600000e+002 3.943859e+000 -1.435447e+000
      endloop
   endfacet
   facet normal 0.000000e+000 9.182422e-001 -3.960194e-001
      outer loop
         vertex -5.000000e+001 3.634680e+000 -2.098484e+000
         vertex -1.600000e+002 3.943859e+000 -1.435447e+000
         vertex -5.000000e+001 3.943859e+000 -1.435447e+000
      endloop
   endfacet
   facet normal 0.000000e+000 9.579706e-001 -2.868663e-001
      outer loop
         vertex -5.000000e+001 3.943859e+000 -1.435447e+000
         vertex -1.600000e+002 3.943859e+000 -1.435447e+000
         vertex -1.600000e+002 4.133206e+000 -7.287956e-001
      endloop
   endfacet
   facet normal 0.000000e+000 9.730600e-001 -2.305519e-001
      outer loop
         vertex -5.000000e+001 3.943859e+000 -1.435447e+000
         vertex -1.600000e+002 4.133206e+000 -7.287956e-001
         vertex -5.000000e+001 4.133206e+000 -7.287956e-001
      endloop
   endfacet
   facet normal 0.000000e+000 9.932307e-001 -1.161583e-001
      outer loop
         vertex -5.000000e+001 4.133206e+000 -7.287956e-001
         vertex -1.600000e+002 4.133206e+000 -7.287956e-001
         vertex -1.600000e+002 4.196967e+000 -5.139802e-016
      endloop
   endfacet
   facet normal 0.000000e+000 9.983120e-001 -5.807914e-002
      outer loop
         vertex -5.000000e+001 4.133206e+000 -7.287956e-001
         vertex -1.600000e+002 4.196967e+000 -5.139802e-016
         vertex -5.000000e+001 4.196967e+000 -5.139802e-016
      endloop
   endfacet
   facet normal 0.000000e+000 9.983120e-001 5.807914e-002
      outer loop
         vertex -5.000000e+001 4.196967e+000 -5.139802e-016
         vertex -1.600000e+002 4.196967e+000 -5.139802e-016
         vertex -1.600000e+002 4.133206e+000 7.287956e-001
      endloop
   endfacet
   facet normal 0.000000e+000 9.932307e-001 1.161583e-001
      outer loop
         vertex -5.000000e+001 4.196967e+000 -5.139802e-016
         vertex -1.600000e+002 4.133206e+000 7.287956e-001
         vertex -5.000000e+001 4.133206e+000 7.287956e-001
      endloop
   endfacet
   facet normal 0.000000e+000 9.730600e-001 2.305519e-001
      outer loop
         vertex -5.000000e+001 4.133206e+000 7.287956e-001
         vertex -1.600000e+002 4.133206e+000 7.287956e-001
         vertex -1.600000e+002 3.943859e+000 1.435447e+000
      endloop
   endfacet
   facet normal 0.000000e+000 9.579706e-001 2.868663e-001
      outer loop
         vertex -5.000000e+001 4.133206e+000 7.287956e-001
         vertex -1.600000e+002 3.943859e+000 1.435447e+000
         vertex -5.000000e+001 3.943859e+000 1.435447e+000
      endloop
   endfacet
   facet normal 0.000000e+000 9.182422e-001 3.960194e-001
      outer loop
         vertex -5.000000e+001 3.943859e+000 1.435447e+000
         vertex -1.600000e+002 3.943859e+000 1.435447e+000
         vertex -1.600000e+002 3.634680e+000 2.098484e+000
      endloop
   endfacet
   facet normal 0.000000e+000 8.936031e-001 4.488580e-001
      outer loop
         vertex -5.000000e+001 3.943859e+000 1.435447e+000
         vertex -1.600000e+002 3.634680e+000 2.098484e+000
         vertex -5.000000e+001 3.634680e+000 2.098484e+000
      endloop
   endfacet
   facet normal 0.000000e+000 8.355240e-001 5.494540e-001
      outer loop
         vertex -5.000000e+001 3.634680e+000 2.098484e+000
         vertex -1.600000e+002 3.634680e+000 2.098484e+000
         vertex -1.600000e+002 3.215063e+000 2.697758e+000
      endloop
   endfacet
   facet normal 0.000000e+000 8.020839e-001 5.972114e-001
      outer loop
         vertex -5.000000e+001 3.634680e+000 2.098484e+000
         vertex -1.600000e+002 3.215063e+000 2.697758e+000
         vertex -5.000000e+001 3.215063e+000 2.697758e+000
      endloop
   endfacet
   facet normal 0.000000e+000 7.274188e-001 6.861938e-001
      outer loop
         vertex -5.000000e+001 3.215063e+000 2.697758e+000
         vertex -1.600000e+002 3.215063e+000 2.697758e+000
         vertex -1.600000e+002 2.697758e+000 3.215063e+000
      endloop
   endfacet
   facet normal 0.000000e+000 6.861938e-001 7.274188e-001
      outer loop
         vertex -5.000000e+001 3.215063e+000 2.697758e+000
         vertex -1.600000e+002 2.697758e+000 3.215063e+000
         vertex -5.000000e+001 2.697758e+000 3.215063e+000
      endloop
   endfacet
   facet normal 0.000000e+000 5.972114e-001 8.020839e-001
      outer loop
         vertex -5.000000e+001 2.697758e+000 3.215063e+000
         vertex -1.600000e+002 2.697758e+000 3.215063e+000
         vertex -1.600000e+002 2.098484e+000 3.634680e+000
      endloop
   endfacet
   facet normal 0.000000e+000 5.494540e-001 8.355240e-001
      outer loop
         vertex -5.000000e+001 2.697758e+000 3.215063e+000
         vertex -1.600000e+002 2.098484e+000 3.634680e+000
         vertex -5.000000e+001 2.098484e+000 3.634680e+000
      endloop
   endfacet
   facet normal 0.000000e+000 4.488580e-001 8.936031e-001
      outer loop
         vertex -5.000000e+001 2.098484e+000 3.634680e+000
         vertex -1.600000e+002 2.098484e+000 3.634680e+000
         vertex -1.600000e+002 1.435447e+000 3.943859e+000
      endloop
   endfacet
   facet normal 0.000000e+000 3.960194e-001 9.182422e-001
      outer loop
         vertex -5.000000e+001 2.098484e+000 3.634680e+000
         vertex -1.600000e+002 1.435447e+000 3.943859e+000
         vertex -5.000000e+001 1.435447e+000 3.943859e+000
      endloop
   endfacet
   facet normal 0.000000e+000 2.868663e-001 9.579706e-001
      outer loop
         vertex -5.000000e+001 1.435447e+000 3.943859e+000
         vertex -1.600000e+002 1.435447e+000 3.943859e+000
         vertex -1.600000e+002 7.287956e-001 4.133206e+000
      endloop
   endfacet
   facet normal 0.000000e+000 2.305519e-001 9.730600e-001
      outer loop
         vertex -5.000000e+001 1.435447e+000 3.943859e+000
         vertex -1.600000e+002 7.287956e-001 4.133206e+000
         vertex -5.000000e+001 7.287956e-001 4.133206e+000
      endloop
   endfacet
   facet normal 0.000000e+000 1.161583e-001 9.932307e-001
      outer loop
         vertex -5.000000e+001 7.287956e-001 4.133206e+000
         vertex -1.600000e+002 7.287956e-001 4.133206e+000
         vertex -1.600000e+002 7.709703e-016 4.196967e+000
      endloop
   endfacet
   facet normal 0.000000e+000 5.807914e-002 9.983120e-001
      outer loop
         vertex -5.000000e+001 7.287956e-001 4.133206e+000
         vertex -1.600000e+002 7.709703e-016 4.196967e+000
         vertex -5.000000e+001 7.709703e-016 4.196967e+000
      endloop
   endfacet
   facet normal -0.000000e+000 -5.807914e-002 9.983120e-001
      outer loop
         vertex -5.000000e+001 7.709703e-016 4.196967e+000
         vertex -1.600000e+002 7.709703e-016 4.196967e+000
         vertex -1.600000e+002 -7.287956e-001 4.133206e+000
      endloop
   endfacet
   facet normal -0.000000e+000 -1.161583e-001 9.932307e-001
      outer loop
         vertex -5.000000e+001 7.709703e-016 4.196967e+000
         vertex -1.600000e+002 -7.287956e-001 4.133206e+000
         vertex -5.000000e+001 -7.287956e-001 4.133206e+000
      endloop
   endfacet
   facet normal -0.000000e+000 -2.305519e-001 9.730600e-001
      outer loop
         vertex -5.000000e+001 -7.287956e-001 4.133206e+000
         vertex -1.600000e+002 -7.287956e-001 4.133206e+000
         vertex -1.600000e+002 -1.435447e+000 3.943859e+000
      endloop
   endfacet
   facet normal -0.000000e+000 -2.868663e-001 9.579706e-001
      outer loop
         vertex -5.000000e+001 -7.287956e-001 4.133206e+000
         vertex -1.600000e+002 -1.435447e+000 3.943859e+000
         vertex -5.000000e+001 -1.435447e+000 3.943859e+000
      endloop
   endfacet
   facet normal -0.000000e+000 -3.960194e-001 9.182422e-001
      outer loop
         vertex -5.000000e+001 -1.435447e+000 3.943859e+000
         vertex -1.600000e+002 -1.435447e+000 3.943859e+000
         vertex -1.600000e+002 -2.098484e+000 3.634680e+000
      endloop
   endfacet
   facet normal -0.000000e+000 -4.488580e-001 8.936031e-001
      outer loop
         vertex -5.000000e+001 -1.435447e+000 3.943859e+000
         vertex -1.600000e+002 -2.098484e+000 3.634680e+000
         vertex -5.000000e+001 -2.098484e+000 3.634680e+000
      endloop
   endfacet
   facet normal -0.000000e+000 -5.494540e-001 8.355240e-001
      outer loop
         vertex -5.000000e+001 -2.098484e+000 3.634680e+000
         vertex -1.600000e+002 -2.098484e+000 3.634680e+000
         vertex -1.600000e+002 -2.697758e+000 3.215063e+000
      endloop
   endfacet
   facet normal -0.000000e+000 -5.972114e-001 8.020839e-001
      outer loop
         vertex -5.000000e+001 -2.098484e+000 3.634680e+000
         vertex -1.600000e+002 -2.697758e+000 3.215063e+000
         vertex -5.000000e+001 -2.697758e+000 3.215063e+000
      endloop
   endfacet
   facet normal -0.000000e+000 -6.861938e-001 7.274188e-001
      outer loop
         vertex -5.000000e+001 -2.697758e+000 3.215063e+000
         vertex -1.600000e+002 -2.697758e+000 3.215063e+000
         vertex -1.600000e+002 -3.215063e+000 2.697758e+000
      endloop
   endfacet
   facet normal -0.000000e+000 -7.274188e-001 6.861938e-001
      outer loop
         vertex -5.000000e+001 -2.697758e+000 3.215063e+000
         vertex -1.600000e+002 -3.215063e+000 2.697758e+000
         vertex -5.000000e+001 -3.215063e+000 2.697758e+000
      endloop
   endfacet
   facet normal -0.000000e+000 -8.020839e-001 5.972114e-001
      outer loop
         vertex -5.000000e+001 -3.215063e+000 2.697758e+000
         vertex -1.600000e+002 -3.215063e+000 2.697758e+000
         vertex -1.600000e+002 -3.634680e+000 2.098484e+000
      endloop
   endfacet
   facet normal -0.000000e+000 -8.355240e-001 5.494540e-001
      outer loop
         vertex -5.000000e+001 -3.215063e+000 2.697758e+000
         vertex -1.600000e+002 -3.634680e+000 2.098484e+000
         vertex -5.000000e+001 -3.634680e+000 2.098484e+000
      endloop
   endfacet
   facet normal -0.000000e+000 -8.936031e-001 4.488580e-001
      outer loop
         vertex -5.000000e+001 -3.634680e+000 2.098484e+000
         vertex -1.600000e+002 -3.634680e+000 2.098484e+000
         vertex -1.600000e+002 -3.943859e+000 1.435447e+000
      endloop
   endfacet
   facet normal -0.000000e+000 -9.182422e-001 3.960194e-001
      outer loop
         vertex -5.000000e+001 -3.634680e+000 2.098484e+000
         vertex -1.600000e+002 -3.943859e+000 1.435447e+000
         vertex -5.000000e+001 -3.943859e+000 1.435447e+000
      endloop
   endfacet
   facet normal -0.000000e+000 -9.579706e-001 2.868663e-001
      outer loop
         vertex -5.000000e+001 -3.943859e+000 1.435447e+000
         vertex -1.600000e+002 -3.943859e+000 1.435447e+000
         vertex -1.600000e+002 -4.133206e+000 7.287956e-001
      endloop
   endfacet
   facet normal -0.000000e+000 -9.730600e-001 2.305519e-001
      outer loop
         vertex -5.000000e+001 -3.943859e+000 1.435447e+000
         vertex -1.600000e+002 -4.133206e+000 7.287956e-001
         vertex -5.000000e+001 -4.133206e+000 7.287956e-001
      endloop
   endfacet
   facet normal -0.000000e+000 -9.932307e-001 1.161583e-001
      outer loop
         vertex -5.000000e+001 -4.133206e+000 7.287956e-001
         vertex -1.600000e+002 -4.133206e+000 7.287956e-001
         vertex -1.600000e+002 -4.196967e+000 0.000000e+000
      endloop
   endfacet
   facet normal -0.000000e+000 -9.983120e-001 5.807914e-002
      outer loop
         vertex -5.000000e+001 -4.133206e+000 7.287956e-001
         vertex -1.600000e+002 -4.196967e+000 0.000000e+000
         vertex -5.000000e+001 -4.196967e+000 0.000000e+000
      endloop
   endfacet
   facet normal 0.000000e+000 -9.983120e-001 -5.807914e-002
      outer loop
         vertex -5.000000e+001 -4.196967e+000 0.000000e+000
         vertex -1.600000e+002 -4.196967e+000 0.000000e+000
         vertex -1.600000e+002 -4.133206e+000 -7.287956e-001
      endloop
   endfacet
   facet normal -1.000000e+000 0.000000e+000 0.000000e+000
      outer loop
         vertex -1.600000e+002 3.943859e+000 1.435447e+000
         vertex -1.600000e+002 4.133206e+000 7.287956e-001
         vertex -1.600000e+002 0.000000e+000 0.000000e+000
      endloop
   endfacet
   facet normal -1.000000e+000 0.000000e+000 0.000000e+000
      outer loop
         vertex -1.600000e+002 0.000000e+000 0.000000e+000
         vertex -1.600000e+002 4.133206e+000 7.287956e-001
         vertex -1.600000e+002 4.196967e+000 -5.139802e-016
      endloop
   endfacet
   facet normal -1.000000e+000 0.000000e+000 0.000000e+000
      outer loop
         vertex -1.600000e+002 0.000000e+000 0.000000e+000
         vertex -1.600000e+002 4.196967e+000 -5.139802e-016
         vertex -1.600000e+002 4.133206e+000 -7.287956e-001
      endloop
   endfacet
   facet normal -1.000000e+000 0.000000e+000 0.000000e+000
      outer loop
         vertex -1.600000e+002 2.697758e+000 3.215063e+000
         vertex -1.600000e+002 3.215063e+000 2.697758e+000
         vertex -1.600000e+002 0.000000e+000 0.000000e+000
      endloop
   endfacet
   facet normal -1.000000e+000 0.000000e+000 0.000000e+000
      outer loop
         vertex -1.600000e+002 0.000000e+000 0.000000e+000
         vertex -1.600000e+002 3.215063e+000 2.697758e+000
         vertex -1.600000e+002 3.634680e+000 2.098484e+000
      endloop
   endfacet
   facet normal -1.000000e+000 0.000000e+000 0.000000e+000
      outer loop
         vertex -1.600000e+002 0.000000e+000 0.000000e+000
         vertex -1.600000e+002 3.634680e+000 2.098484e+000
         vertex -1.600000e+002 3.943859e+000 1.435447e+000
      endloop
   endfacet
   facet normal -1.000000e+000 0.000000e+000 0.000000e+000
      outer loop
         vertex -1.600000e+002 7.287956e-001 4.133206e+000
         vertex -1.600000e+002 1.435447e+000 3.943859e+000
         vertex -1.600000e+002 0.000000e+000 0.000000e+000
      endloop
   endfacet
   facet normal -1.000000e+000 0.000000e+000 0.000000e+000
      outer loop
         vertex -1.600000e+002 0.000000e+000 0.000000e+000
         vertex -1.600000e+002 1.435447e+000 3.943859e+000
         vertex -1.600000e+002 2.098484e+000 3.634680e+000
      endloop
   endfacet
   facet normal -1.000000e+000 0.000000e+000 0.000000e+000
      outer loop
         vertex -1.600000e+002 0.000000e+000 0.000000e+000
         vertex -1.600000e+002 2.098484e+000 3.634680e+000
         vertex -1.600000e+002 2.697758e+000 3.215063e+000
      endloop
   endfacet
   facet normal -1.000000e+000 0.000000e+000 0.000000e+000
      outer loop
         vertex -1.600000e+002 -1.435447e+000 3.943859e+000
         vertex -1.600000e+002 -7.287956e-001 4.133206e+000
         vertex -1.600000e+002 0.000000e+000 0.000000e+000
      endloop
   endfacet
   facet normal -1.000000e+000 0.000000e+000 0.000000e+000
      outer loop
         vertex -1.600000e+002 0.000000e+000 0.000000e+000
         vertex -1.600000e+002 -7.287956e-001 4.133206e+000
         vertex -1.600000e+002 7.709703e-016 4.196967e+000
      endloop
   endfacet
   facet normal -1.000000e+000 0.000000e+000 0.000000e+000
      outer loop
         vertex -1.600000e+002 0.000000e+000 0.000000e+000
         vertex -1.600000e+002 7.709703e-016 4.196967e+000
         vertex -1.600000e+002 7.287956e-001 4.133206e+000
      endloop
   endfacet
   facet normal -1.000000e+000 0.000000e+000 0.000000e+000
      outer loop
         vertex -1.600000e+002 -3.215063e+000 2.697758e+000
         vertex -1.600000e+002 -2.697758e+000 3.215063e+000
         vertex -1.600000e+002 0.000000e+000 0.000000e+000
      endloop
   endfacet
   facet normal -1.000000e+000 0.000000e+000 0.000000e+000
      outer loop
         vertex -1.600000e+002 0.000000e+000 0.000000e+000
         vertex -1.600000e+002 -2.697758e+000 3.215063e+000
         vertex -1.600000e+002 -2.098484e+000 3.634680e+000
      endloop
   endfacet
   facet normal -1.000000e+000 0.000000e+000 0.000000e+000
      outer loop
         vertex -1.600000e+002 0.000000e+000 0.000000e+000
         vertex -1.600000e+002 -2.098484e+000 3.634680e+000
         vertex -1.600000e+002 -1.435447e+000 3.943859e+000
      endloop
   endfacet
   facet normal -1.000000e+000 0.000000e+000 0.000000e+000
      outer loop
         vertex -1.600000e+002 -4.133206e+000 7.287956e-001
         vertex -1.600000e+002 -3.943859e+000 1.435447e+000
         vertex -1.600000e+002 0.000000e+000 0.000000e+000
      endloop
   endfacet
   facet normal -1.000000e+000 0.000000e+000 0.000000e+000
      outer loop
         vertex -1.600000e+002 0.000000e+000 0.000000e+000
         vertex -1.600000e+002 -3.943859e+000 1.435447e+000
         vertex -1.600000e+002 -3.634680e+000 2.098484e+000
      endloop
   endfacet
   facet normal -1.000000e+000 0.000000e+000 0.000000e+000
      outer loop
         vertex -1.600000e+002 0.000000e+000 0.000000e+000
         vertex -1.600000e+002 -3.634680e+000 2.098484e+000
         vertex -1.600000e+002 -3.215063e+000 2.697758e+000
      endloop
   endfacet
   facet normal -1.000000e+000 0.000000e+000 0.000000e+000
      outer loop
         vertex -1.600000e+002 -3.943859e+000 -1.435447e+000
         vertex -1.600000e+002 -4.133206e+000 -7.287956e-001
         vertex -1.600000e+002 0.000000e+000 0.000000e+000
      endloop
   endfacet
   facet normal -1.000000e+000 0.000000e+000 0.000000e+000
      outer loop
         vertex -1.600000e+002 0.000000e+000 0.000000e+000
         vertex -1.600000e+002 -4.133206e+000 -7.287956e-001
         vertex -1.600000e+002 -4.196967e+000 0.000000e+000
      endloop
   endfacet
   facet normal -1.000000e+000 0.000000e+000 0.000000e+000
      outer loop
         vertex -1.600000e+002 0.000000e+000 0.000000e+000
         vertex -1.600000e+002 -4.196967e+000 0.000000e+000
         vertex -1.600000e+002 -4.133206e+000 7.287956e-001
      endloop
   endfacet
   facet normal -1.000000e+000 0.000000e+000 0.000000e+000
      outer loop
         vertex -1.600000e+002 -2.697758e+000 -3.215063e+000
         vertex -1.600000e+002 -3.215063e+000 -2.697758e+000
         vertex -1.600000e+002 0.000000e+000 0.000000e+000
      endloop
   endfacet
   facet normal -1.000000e+000 0.000000e+000 0.000000e+000
      outer loop
         vertex -1.600000e+002 0.000000e+000 0.000000e+000
         vertex -1.600000e+002 -3.215063e+000 -2.697758e+000
         vertex -1.600000e+002 -3.634680e+000 -2.098484e+000
      endloop
   endfacet
   facet normal -1.000000e+000 0.000000e+000 0.000000e+000
      outer loop
         vertex -1.600000e+002 0.000000e+000 0.000000e+000
         vertex -1.600000e+002 -3.634680e+000 -2.098484e+000
         vertex -1.600000e+002 -3.943859e+000 -1.435447e+000
      endloop
   endfacet
   facet normal -1.000000e+000 0.000000e+000 0.000000e+000
      outer loop
         vertex -1.600000e+002 -7.287956e-001 -4.133206e+000
         vertex -1.600000e+002 -1.435447e+000 -3.943859e+000
         vertex -1.600000e+002 0.000000e+000 0.000000e+000
      endloop
   endfacet
   facet normal -1.000000e+000 0.000000e+000 0.000000e+000
      outer loop
         vertex -1.600000e+002 0.000000e+000 0.000000e+000
         vertex -1.600000e+002 -1.435447e+000 -3.943859e+000
         vertex -1.600000e+002 -2.098484e+000 -3.634680e+000
      endloop
   endfacet
   facet normal -1.000000e+000 0.000000e+000 0.000000e+000
      outer loop
         vertex -1.600000e+002 0.000000e+000 0.000000e+000
         vertex -1.600000e+002 -2.098484e+000 -3.634680e+000
         vertex -1.600000e+002 -2.697758e+000 -3.215063e+000
      endloop
   endfacet
   facet normal -1.000000e+000 0.000000e+000 0.000000e+000
      outer loop
         vertex -1.600000e+002 1.435447e+000 -3.943859e+000
         vertex -1.600000e+002 7.287956e-001 -4.133206e+000
         vertex -1.600000e+002 0.000000e+000 0.000000e+000
      endloop
   endfacet
   facet normal -1.000000e+000 0.000000e+000 0.000000e+000
      outer loop
         vertex -1.600000e+002 0.000000e+000 0.000000e+000
         vertex -1.600000e+002 7.287956e-001 -4.133206e+000
         vertex -1.600000e+002 -2.569901e-016 -4.196967e+000
      endloop
   endfacet
   facet normal -1.000000e+000 0.000000e+000 0.000000e+000
      outer loop
         vertex -1.600000e+002 0.000000e+000 0.000000e+000
         vertex -1.600000e+002 -2.569901e-016 -4.196967e+000
         vertex -1.600000e+002 -7.287956e-001 -4.133206e+000
      endloop
   endfacet
   facet normal -1.000000e+000 0.000000e+000 0.000000e+000
      outer loop
         vertex -1.600000e+002 3.215063e+000 -2.697758e+000
         vertex -1.600000e+002 2.697758e+000 -3.215063e+000
         vertex -1.600000e+002 0.000000e+000 0.000000e+000
      endloop
   endfacet
   facet normal -1.000000e+000 0.000000e+000 0.000000e+000
      outer loop
         vertex -1.600000e+002 0.000000e+000 0.000000e+000
         vertex -1.600000e+002 2.697758e+000 -3.215063e+000
         vertex -1.600000e+002 2.098484e+000 -3.634680e+000
      endloop
   endfacet
   facet normal -1.000000e+000 0.000000e+000 0.000000e+000
      outer loop
         vertex -1.600000e+002 0.000000e+000 0.000000e+000
         vertex -1.600000e+002 2.098484e+000 -3.634680e+000
         vertex -1.600000e+002 1.435447e+000 -3.943859e+000
      endloop
   endfacet
   facet normal -1.000000e+000 0.000000e+000 0.000000e+000
      outer loop
         vertex -1.600000e+002 4.133206e+000 -7.287956e-001
         vertex -1.600000e+002 3.943859e+000 -1.435447e+000
         vertex -1.600000e+002 0.000000e+000 0.000000e+000
      endloop
   endfacet
   facet normal -1.000000e+000 0.000000e+000 0.000000e+000
      outer loop
         vertex -1.600000e+002 0.000000e+000 0.000000e+000
         vertex -1.600000e+002 3.943859e+000 -1.435447e+000
         vertex -1.600000e+002 3.634680e+000 -2.098484e+000
      endloop
   endfacet
   facet normal -1.000000e+000 0.000000e+000 0.000000e+000
      outer loop
         vertex -1.600000e+002 0.000000e+000 0.000000e+000
         vertex -1.600000e+002 3.634680e+000 -2.098484e+000
         vertex -1.600000e+002 3.215063e+000 -2.697758e+000
      endloop
   endfacet
endsolid