solid bowlblock
   facet normal 1.787322e-016 -9.659258e-001 -2.588190e-001
      outer loop
         vertex 1.151924e+002 -1.151924e+002 1.500000e+002
         vertex -1.151924e+002 -1.151924e+002 1.500000e+002
         vertex 7.500000e+001 -7.500000e+001 0.000000e+000
      endloop
   endfacet
   facet normal 1.787322e-016 -9.659258e-001 -2.588190e-001
      outer loop
         vertex 7.500000e+001 -7.500000e+001 0.000000e+000
         vertex -1.151924e+002 -1.151924e+002 1.500000e+002
         vertex -7.500000e+001 -7.500000e+001 0.000000e+000
      endloop
   endfacet
   facet normal 9.659258e-001 0.000000e+000 -2.588190e-001
      outer loop
         vertex 1.151924e+002 1.151924e+002 1.500000e+002
         vertex 1.151924e+002 -1.151924e+002 1.500000e+002
         vertex 7.500000e+001 7.500000e+001 0.000000e+000
      endloop
   endfacet
   facet normal 9.659258e-001 0.000000e+000 -2.588190e-001
      outer loop
         vertex 7.500000e+001 7.500000e+001 0.000000e+000
         vertex 1.151924e+002 -1.151924e+002 1.500000e+002
         vertex 7.500000e+001 -7.500000e+001 0.000000e+000
      endloop
   endfacet
   facet normal 0.000000e+000 9.659258e-001 -2.588190e-001
      outer loop
         vertex -1.151924e+002 1.151924e+002 1.500000e+002
         vertex 1.151924e+002 1.151924e+002 1.500000e+002
         vertex -7.500000e+001 7.500000e+001 0.000000e+000
      endloop
   endfacet
   facet normal 0.000000e+000 9.659258e-001 -2.588190e-001
      outer loop
         vertex -7.500000e+001 7.500000e+001 0.000000e+000
         vertex 1.151924e+002 1.151924e+002 1.500000e+002
         vertex 7.500000e+001 7.500000e+001 0.000000e+000
      endloop
   endfacet
   facet normal -9.659258e-001 0.000000e+000 -2.588190e-001
      outer loop
         vertex -1.151924e+002 -1.151924e+002 1.500000e+002
         vertex -1.151924e+002 1.151924e+002 1.500000e+002
         vertex -7.500000e+001 -7.500000e+001 0.000000e+000
      endloop
   endfacet
   facet normal -9.659258e-001 0.000000e+000 -2.588190e-001
      outer loop
         vertex -7.500000e+001 -7.500000e+001 0.000000e+000
         vertex -1.151924e+002 1.151924e+002 1.500000e+002
         vertex -7.500000e+001 7.500000e+001 0.000000e+000
      endloop
   endfacet
   facet normal 0.000000e+000 0.000000e+000 1.000000e+000
      outer loop
         vertex -9.519238e+001 9.519238e+001 1.500000e+002
         vertex -1.151924e+002 1.151924e+002 1.500000e+002
         vertex -9.519238e+001 -9.519238e+001 1.500000e+002
      endloop
   endfacet
   facet normal 0.000000e+000 0.000000e+000 1.000000e+000
      outer loop
         vertex -9.519238e+001 -9.519238e+001 1.500000e+002
         vertex -1.151924e+002 1.151924e+002 1.500000e+002
         vertex -1.151924e+002 -1.151924e+002 1.500000e+002
      endloop
   endfacet
   facet normal 0.000000e+000 0.000000e+000 1.000000e+000
      outer loop
         vertex -9.519238e+001 -9.519238e+001 1.500000e+002
         vertex -1.151924e+002 -1.151924e+002 1.500000e+002
         vertex 9.519238e+001 -9.519238e+001 1.500000e+002
      endloop
   endfacet
   facet normal 0.000000e+000 0.000000e+000 1.000000e+000
      outer loop
         vertex 9.519238e+001 -9.519238e+001 1.500000e+002
         vertex -1.151924e+002 -1.151924e+002 1.500000e+002
         vertex 1.151924e+002 -1.151924e+002 1.500000e+002
      endloop
   endfacet
   facet normal 0.000000e+000 0.000000e+000 1.000000e+000
      outer loop
         vertex 9.519238e+001 -9.519238e+001 1.500000e+002
         vertex 1.151924e+002 -1.151924e+002 1.500000e+002
         vertex 9.519238e+001 9.519238e+001 1.500000e+002
      endloop
   endfacet
   facet normal 0.000000e+000 0.000000e+000 1.000000e+000
      outer loop
         vertex 9.519238e+001 9.519238e+001 1.500000e+002
         vertex 1.151924e+002 -1.151924e+002 1.500000e+002
         vertex 1.151924e+002 1.151924e+002 1.500000e+002
      endloop
   endfacet
   facet normal 0.000000e+000 0.000000e+000 1.000000e+000
      outer loop
         vertex 9.519238e+001 9.519238e+001 1.500000e+002
         vertex 1.151924e+002 1.151924e+002 1.500000e+002
         vertex -9.519238e+001 9.519238e+001 1.500000e+002
      endloop
   endfacet
   facet normal 0.000000e+000 0.000000e+000 1.000000e+000
      outer loop
         vertex -9.519238e+001 9.519238e+001 1.500000e+002
         vertex 1.151924e+002 1.151924e+002 1.500000e+002
         vertex -1.151924e+002 1.151924e+002 1.500000e+002
      endloop
   endfacet
   facet normal 0.000000e+000 0.000000e+000 -1.000000e+000
      outer loop
         vertex -7.500000e+001 7.500000e+001 0.000000e+000
         vertex 7.500000e+001 7.500000e+001 0.000000e+000
         vertex -7.500000e+001 -7.500000e+001 0.000000e+000
      endloop
   endfacet
   facet normal 0.000000e+000 0.000000e+000 -1.000000e+000
      outer loop
         vertex -7.500000e+001 -7.500000e+001 0.000000e+000
         vertex 7.500000e+001 7.500000e+001 0.000000e+000
         vertex 7.500000e+001 -7.500000e+001 0.000000e+000
      endloop
   endfacet
   facet normal 0.000000e+000 -9.659258e-001 2.588190e-001
      outer loop
         vertex -6.303848e+001 6.303848e+001 3.000000e+001
         vertex 6.303848e+001 6.303848e+001 3.000000e+001
         vertex -9.519238e+001 9.519238e+001 1.500000e+002
      endloop
   endfacet
   facet normal 0.000000e+000 -9.659258e-001 2.588190e-001
      outer loop
         vertex -9.519238e+001 9.519238e+001 1.500000e+002
         vertex 6.303848e+001 6.303848e+001 3.000000e+001
         vertex 9.519238e+001 9.519238e+001 1.500000e+002
      endloop
   endfacet
   facet normal -9.659258e-001 0.000000e+000 2.588190e-001
      outer loop
         vertex 6.303848e+001 6.303848e+001 3.000000e+001
         vertex 6.303848e+001 -6.303848e+001 3.000000e+001
         vertex 9.519238e+001 9.519238e+001 1.500000e+002
      endloop
   endfacet
   facet normal -9.659258e-001 0.000000e+000 2.588190e-001
      outer loop
         vertex 9.519238e+001 9.519238e+001 1.500000e+002
         vertex 6.303848e+001 -6.303848e+001 3.000000e+001
         vertex 9.519238e+001 -9.519238e+001 1.500000e+002
      endloop
   endfacet
   facet normal -2.112288e-016 9.659258e-001 2.588190e-001
      outer loop
         vertex 6.303848e+001 -6.303848e+001 3.000000e+001
         vertex -6.303848e+001 -6.303848e+001 3.000000e+001
         vertex 9.519238e+001 -9.519238e+001 1.500000e+002
      endloop
   endfacet
   facet normal -2.112288e-016 9.659258e-001 2.588190e-001
      outer loop
         vertex 9.519238e+001 -9.519238e+001 1.500000e+002
         vertex -6.303848e+001 -6.303848e+001 3.000000e+001
         vertex -9.519238e+001 -9.519238e+001 1.500000e+002
      endloop
   endfacet
   facet normal 9.659258e-001 0.000000e+000 2.588190e-001
      outer loop
         vertex -6.303848e+001 -6.303848e+001 3.000000e+001
         vertex -6.303848e+001 6.303848e+001 3.000000e+001
         vertex -9.519238e+001 -9.519238e+001 1.500000e+002
      endloop
   endfacet
   facet normal 9.659258e-001 0.000000e+000 2.588190e-001
      outer loop
         vertex -9.519238e+001 -9.519238e+001 1.500000e+002
         vertex -6.303848e+001 6.303848e+001 3.000000e+001
         vertex -9.519238e+001 9.519238e+001 1.500000e+002
      endloop
   endfacet
   facet normal 0.000000e+000 0.000000e+000 1.000000e+000
      outer loop
         vertex -6.303848e+001 -6.303848e+001 3.000000e+001
         vertex 6.303848e+001 -6.303848e+001 3.000000e+001
         vertex -6.303848e+001 6.303848e+001 3.000000e+001
      endloop
   endfacet
   facet normal 0.000000e+000 0.000000e+000 1.000000e+000
      outer loop
         vertex -6.303848e+001 6.303848e+001 3.000000e+001
         vertex 6.303848e+001 -6.303848e+001 3.000000e+001
         vertex 6.303848e+001 6.303848e+001 3.000000e+001
      endloop
   endfacet
endsolid