solid Mesh
  facet normal 1 0 0
    outer loop
      vertex -0.03 0.023 0.65
      vertex -0.03 -0.037 0.65
      vertex -0.03 0.023 0
    endloop
  endfacet
  facet normal 1 0 0
    outer loop
      vertex -0.03 -0.037 0.65
      vertex -0.03 -0.037 0
      vertex -0.03 0.023 0
    endloop
  endfacet
  facet normal 0 -1 0
    outer loop
      vertex -0.03 -0.037 0.65
      vertex -0.09 -0.037 0.65
      vertex -0.03 -0.037 0
    endloop
  endfacet
  facet normal 0 -1 0
    outer loop
      vertex -0.09 -0.037 0.65
      vertex -0.09 -0.037 0
      vertex -0.03 -0.037 0
    endloop
  endfacet
  facet normal 0 0 1
    outer loop
      vertex -0.09 -0.18 0.65
      vertex -0.03 -0.18 0.65
      vertex -0.09 -0.12 0.65
    endloop
  endfacet
  facet normal 0 0 1
    outer loop
      vertex -0.03 -0.18 0.65
      vertex -0.03 -0.12 0.65
      vertex -0.09 -0.12 0.65
    endloop
  endfacet
  facet normal -1 0 0
    outer loop
      vertex -0.09 0.023 0
      vertex -0.09 0.6 0
      vertex -0.09 0.6 -0.71
    endloop
  endfacet
  facet normal -1 0 0
    outer loop
      vertex -0.09 -0.6 -0.71
      vertex -0.09 -0.6 0
      vertex -0.09 0.6 -0.71
    endloop
  endfacet
  facet normal -1 0 0
    outer loop
      vertex -0.09 -0.6 0
      vertex -0.09 -0.18 0
      vertex -0.09 0.6 -0.71
    endloop
  endfacet
  facet normal -1 0 0
    outer loop
      vertex -0.09 -0.037 0
      vertex -0.09 -0.037 0.65
      vertex -0.09 0.023 0.65
    endloop
  endfacet
  facet normal -1 0 0
    outer loop
      vertex -0.09 0.023 0.65
      vertex -0.09 0.023 0
      vertex -0.09 -0.037 0
    endloop
  endfacet
  facet normal -1 0 0
    outer loop
      vertex -0.09 0.023 0
      vertex -0.09 0.6 -0.71
      vertex -0.09 -0.037 0
    endloop
  endfacet
  facet normal -1 0 0
    outer loop
      vertex -0.09 -0.037 0
      vertex -0.09 0.6 -0.71
      vertex -0.09 -0.12 0
    endloop
  endfacet
  facet normal -1 0 0
    outer loop
      vertex -0.09 0.6 -0.71
      vertex -0.09 -0.18 0
      vertex -0.09 -0.12 0
    endloop
  endfacet
  facet normal -1 0 0
    outer loop
      vertex -0.09 -0.12 0
      vertex -0.09 -0.18 0
      vertex -0.09 -0.12 0.65
    endloop
  endfacet
  facet normal -1 0 0
    outer loop
      vertex -0.09 -0.18 0
      vertex -0.09 -0.18 0.65
      vertex -0.09 -0.12 0.65
    endloop
  endfacet
  facet normal 1 0 0
    outer loop
      vertex -0.03 -0.12 0.65
      vertex -0.03 -0.18 0.65
      vertex -0.03 -0.12 0
    endloop
  endfacet
  facet normal 1 0 0
    outer loop
      vertex -0.03 -0.18 0.65
      vertex -0.03 -0.18 0
      vertex -0.03 -0.12 0
    endloop
  endfacet
  facet normal 0 0 -1
    outer loop
      vertex 0.63 0.6 -0.71
      vertex 0.63 -0.6 -0.71
      vertex -0.09 0.6 -0.71
    endloop
  endfacet
  facet normal 0 0 -1
    outer loop
      vertex 0.63 -0.6 -0.71
      vertex -0.09 -0.6 -0.71
      vertex -0.09 0.6 -0.71
    endloop
  endfacet
  facet normal 0 1 0
    outer loop
      vertex -0.09 -0.12 0.65
      vertex -0.03 -0.12 0.65
      vertex -0.09 -0.12 0
    endloop
  endfacet
  facet normal 0 1 0
    outer loop
      vertex -0.03 -0.12 0.65
      vertex -0.03 -0.12 0
      vertex -0.09 -0.12 0
    endloop
  endfacet
  facet normal 0 0 1
    outer loop
      vertex -0.09 0.6 0
      vertex -0.09 0.023 0
      vertex 0.63 0.6 0
    endloop
  endfacet
  facet normal 0 0 1
    outer loop
      vertex -0.09 0.023 0
      vertex -0.03 0.023 0
      vertex 0.63 0.6 0
    endloop
  endfacet
  facet normal 0 0 1
    outer loop
      vertex 0.63 0.6 0
      vertex -0.03 0.023 0
      vertex 0.63 -0.6 0
    endloop
  endfacet
  facet normal 0 0 1
    outer loop
      vertex -0.03 0.023 0
      vertex -0.03 -0.037 0
      vertex 0.63 -0.6 0
    endloop
  endfacet
  facet normal 0 0 1
    outer loop
      vertex -0.09 -0.18 0
      vertex -0.09 -0.6 0
      vertex -0.03 -0.18 0
    endloop
  endfacet
  facet normal 0 0 1
    outer loop
      vertex -0.09 -0.6 0
      vertex 0.63 -0.6 0
      vertex -0.03 -0.18 0
    endloop
  endfacet
  facet normal 0 0 1
    outer loop
      vertex -0.03 -0.18 0
      vertex 0.63 -0.6 0
      vertex -0.03 -0.12 0
    endloop
  endfacet
  facet normal 0 0 1
    outer loop
      vertex 0.63 -0.6 0
      vertex -0.03 -0.037 0
      vertex -0.03 -0.12 0
    endloop
  endfacet
  facet normal 0 0 1
    outer loop
      vertex -0.03 -0.12 0
      vertex -0.03 -0.037 0
      vertex -0.09 -0.12 0
    endloop
  endfacet
  facet normal 0 0 1
    outer loop
      vertex -0.03 -0.037 0
      vertex -0.09 -0.037 0
      vertex -0.09 -0.12 0
    endloop
  endfacet
  facet normal 0 1 0
    outer loop
      vertex -0.09 0.023 0.65
      vertex -0.03 0.023 0.65
      vertex -0.09 0.023 0
    endloop
  endfacet
  facet normal 0 1 0
    outer loop
      vertex -0.03 0.023 0.65
      vertex -0.03 0.023 0
      vertex -0.09 0.023 0
    endloop
  endfacet
  facet normal 0 1 0
    outer loop
      vertex 0.63 0.6 -0.71
      vertex -0.09 0.6 -0.71
      vertex 0.63 0.6 0
    endloop
  endfacet
  facet normal 0 1 0
    outer loop
      vertex -0.09 0.6 -0.71
      vertex -0.09 0.6 0
      vertex 0.63 0.6 0
    endloop
  endfacet
  facet normal 0 -1 0
    outer loop
      vertex -0.03 -0.18 0.65
      vertex -0.09 -0.18 0.65
      vertex -0.03 -0.18 0
    endloop
  endfacet
  facet normal 0 -1 0
    outer loop
      vertex -0.09 -0.18 0.65
      vertex -0.09 -0.18 0
      vertex -0.03 -0.18 0
    endloop
  endfacet
  facet normal 0 -1 0
    outer loop
      vertex -0.09 -0.6 -0.71
      vertex 0.63 -0.6 -0.71
      vertex -0.09 -0.6 0
    endloop
  endfacet
  facet normal 0 -1 0
    outer loop
      vertex 0.63 -0.6 -0.71
      vertex 0.63 -0.6 0
      vertex -0.09 -0.6 0
    endloop
  endfacet
  facet normal 0 0 1
    outer loop
      vertex -0.09 -0.037 0.65
      vertex -0.03 -0.037 0.65
      vertex -0.09 0.023 0.65
    endloop
  endfacet
  facet normal 0 0 1
    outer loop
      vertex -0.03 -0.037 0.65
      vertex -0.03 0.023 0.65
      vertex -0.09 0.023 0.65
    endloop
  endfacet
  facet normal 1 0 0
    outer loop
      vertex 0.63 -0.6 -0.71
      vertex 0.63 0.6 -0.71
      vertex 0.63 -0.6 0
    endloop
  endfacet
  facet normal 1 0 0
    outer loop
      vertex 0.63 0.6 -0.71
      vertex 0.63 0.6 0
      vertex 0.63 -0.6 0
    endloop
  endfacet
endsolid Mesh
