ply
format ascii 1.0
comment Created by Blender 2.70 (sub 0) - www.blender.org, source file: ''
element vertex 612
property float x
property float y
property float z
property float nx
property float ny
property float nz
element face 408
property list uchar uint vertex_indices
end_header
0.000331 -0.001960 0.000600 0.000000 0.000000 1.000000
0.001328 -0.004801 0.000600 0.000000 0.000000 1.000000
0.000640 -0.001870 0.000600 0.000000 0.000000 1.000000
0.001815 -0.004632 0.000600 0.000000 0.000000 1.000000
0.000931 -0.001732 0.000600 0.000000 0.000000 1.000000
0.001621 -0.001069 0.000600 0.000000 0.000000 1.000000
0.004403 -0.002236 0.000600 0.000000 0.000000 1.000000
0.001771 -0.000784 0.000600 0.000000 0.000000 1.000000
0.004609 -0.001764 0.000600 0.000000 0.000000 1.000000
0.001873 -0.000479 0.000600 0.000000 0.000000 1.000000
-0.000310 -0.001985 0.000600 0.000000 0.000000 1.000000
-0.000198 -0.004998 0.000600 0.000000 0.000000 1.000000
0.000011 -0.001998 0.000600 0.000000 0.000000 1.000000
0.000317 -0.004985 0.000600 0.000000 -0.000000 1.000000
0.000827 -0.004919 0.000600 0.000000 -0.000000 1.000000
-0.000926 -0.001807 0.000600 0.000000 -0.000000 1.000000
-0.001712 -0.004722 0.000600 0.000000 -0.000000 1.000000
-0.000625 -0.001921 0.000600 0.000000 -0.000000 1.000000
-0.001217 -0.004866 0.000600 0.000000 -0.000000 1.000000
-0.000711 -0.004959 0.000600 0.000000 -0.000000 1.000000
0.004766 -0.001273 0.000600 0.000000 0.000000 1.000000
0.004871 -0.000770 0.000600 0.000000 0.000000 1.000000
0.001924 -0.000161 0.000600 0.000000 0.000000 1.000000
0.004924 -0.000257 0.000600 0.000000 0.000000 1.000000
0.001931 0.000000 0.000600 0.000000 0.000000 1.000000
0.004931 0.000000 0.000600 0.000000 0.000000 1.000000
0.001924 0.000161 0.000600 0.000000 0.000000 1.000000
0.001428 -0.001326 0.000600 0.000000 0.000000 1.000000
0.003851 -0.003103 0.000600 0.000000 0.000000 1.000000
0.004150 -0.002684 0.000600 0.000000 0.000000 1.000000
0.002281 -0.004413 0.000600 0.000000 0.000000 1.000000
0.002722 -0.004148 0.000600 0.000000 0.000000 1.000000
0.001196 -0.001549 0.000600 0.000000 0.000000 1.000000
0.003134 -0.003839 0.000600 0.000000 0.000000 1.000000
0.003512 -0.003490 0.000600 0.000000 0.000000 1.000000
-0.001205 -0.001646 0.000600 0.000000 -0.000000 1.000000
-0.002643 -0.004287 0.000600 0.000000 -0.000000 1.000000
-0.002189 -0.004529 0.000600 0.000000 -0.000000 1.000000
-0.001966 -0.000633 0.000600 0.000000 -0.000000 1.000000
-0.004651 -0.002002 0.000600 0.000000 -0.000000 1.000000
-0.001840 -0.000929 0.000600 0.000000 -0.000000 1.000000
-0.004420 -0.002463 0.000600 0.000000 -0.000000 1.000000
-0.001668 -0.001202 0.000600 0.000000 -0.000000 1.000000
-0.002069 0.000000 0.000600 0.000000 -0.000000 1.000000
-0.005043 -0.000514 0.000600 0.000000 -0.000000 1.000000
-0.002043 -0.000321 0.000600 0.000000 -0.000000 1.000000
-0.004963 -0.001023 0.000600 0.000000 -0.000000 1.000000
-0.004832 -0.001521 0.000600 0.000000 -0.000000 1.000000
-0.000926 0.001807 0.000600 -0.000000 -0.000000 1.000000
-0.002643 0.004286 0.000600 -0.000000 -0.000000 1.000000
-0.001205 0.001646 0.000600 -0.000000 -0.000000 1.000000
-0.003070 0.003999 0.000600 -0.000000 0.000000 1.000000
-0.001454 0.001442 0.000600 -0.000000 -0.000000 1.000000
-0.004144 -0.002897 0.000600 0.000000 0.000000 1.000000
-0.003825 -0.003301 0.000600 0.000000 -0.000000 1.000000
-0.001454 -0.001442 0.000600 0.000000 -0.000000 1.000000
-0.003465 -0.003669 0.000600 0.000000 -0.000000 1.000000
-0.003070 -0.003999 0.000600 0.000000 -0.000000 1.000000
-0.002043 0.000321 0.000600 -0.000000 -0.000000 1.000000
-0.005043 0.000514 0.000600 -0.000000 -0.000000 1.000000
-0.005069 0.000000 0.000600 -0.000000 0.000000 1.000000
0.000011 0.001998 0.000600 -0.000000 0.000000 1.000000
-0.000198 0.004998 0.000600 -0.000000 0.000000 1.000000
-0.000310 0.001985 0.000600 -0.000000 0.000000 1.000000
-0.000711 0.004958 0.000600 -0.000000 0.000000 1.000000
-0.000625 0.001921 0.000600 -0.000000 -0.000000 1.000000
-0.001840 0.000929 0.000600 -0.000000 -0.000000 1.000000
-0.004651 0.002002 0.000600 -0.000000 -0.000000 1.000000
-0.001966 0.000633 0.000600 -0.000000 -0.000000 1.000000
-0.004832 0.001520 0.000600 -0.000000 0.000000 1.000000
-0.004963 0.001023 0.000600 -0.000000 0.000000 1.000000
-0.003465 0.003669 0.000600 0.000000 -0.000000 1.000000
-0.003825 0.003301 0.000600 -0.000000 0.000000 1.000000
-0.001668 0.001201 0.000600 -0.000000 -0.000000 1.000000
-0.004144 0.002897 0.000600 -0.000000 0.000000 1.000000
-0.004420 0.002463 0.000600 -0.000000 0.000000 1.000000
-0.001217 0.004866 0.000600 0.000000 -0.000000 1.000000
-0.001712 0.004722 0.000600 -0.000000 0.000000 1.000000
-0.002189 0.004528 0.000600 -0.000000 0.000000 1.000000
0.001196 0.001549 0.000600 -0.000000 0.000000 1.000000
0.002722 0.004148 0.000600 -0.000000 0.000000 1.000000
0.000931 0.001732 0.000600 -0.000000 0.000000 1.000000
0.002281 0.004413 0.000600 0.000000 0.000000 1.000000
0.000640 0.001870 0.000600 -0.000000 0.000000 1.000000
0.001815 0.004631 0.000600 -0.000000 0.000000 1.000000
0.001328 0.004801 0.000600 0.000000 0.000000 1.000000
0.000331 0.001959 0.000600 -0.000000 0.000000 1.000000
0.000827 0.004919 0.000600 0.000000 0.000000 1.000000
0.000317 0.004985 0.000600 0.000000 0.000000 1.000000
0.001621 0.001069 0.000600 -0.000000 0.000000 1.000000
0.003851 0.003103 0.000600 -0.000000 0.000000 1.000000
0.001428 0.001326 0.000600 -0.000000 0.000000 1.000000
0.003512 0.003490 0.000600 0.000000 0.000000 1.000000
0.003134 0.003839 0.000600 0.000000 0.000000 1.000000
0.001771 0.000784 0.000600 -0.000000 0.000000 1.000000
0.004403 0.002235 0.000600 -0.000000 0.000000 1.000000
0.004150 0.002683 0.000600 0.000000 0.000000 1.000000
0.004924 0.000257 0.000600 -0.000000 0.000000 1.000000
0.004871 0.000769 0.000600 0.000000 0.000000 1.000000
0.001873 0.000479 0.000600 -0.000000 0.000000 1.000000
0.004766 0.001273 0.000600 0.000000 0.000000 1.000000
0.004609 0.001764 0.000600 0.000000 0.000000 1.000000
-0.002069 0.000000 -0.000600 0.000000 0.000000 -1.000000
-0.002043 -0.000321 -0.000600 0.000000 0.000000 -1.000000
-0.005043 -0.000514 -0.000600 0.000000 0.000000 -1.000000
-0.001966 0.000633 -0.000600 -0.000000 -0.000000 -1.000000
-0.004651 0.002002 -0.000600 -0.000000 -0.000000 -1.000000
-0.001840 0.000929 -0.000600 -0.000000 -0.000000 -1.000000
-0.004420 0.002463 -0.000600 0.000000 -0.000000 -1.000000
-0.001668 0.001201 -0.000600 -0.000000 -0.000000 -1.000000
-0.005069 0.000000 -0.000600 -0.000000 -0.000000 -1.000000
-0.005043 0.000514 -0.000600 0.000000 -0.000000 -1.000000
-0.002043 0.000321 -0.000600 -0.000000 -0.000000 -1.000000
-0.004963 0.001023 -0.000600 0.000000 -0.000000 -1.000000
-0.004832 0.001520 -0.000600 0.000000 -0.000000 -1.000000
-0.004144 0.002897 -0.000600 -0.000000 0.000000 -1.000000
-0.003825 0.003301 -0.000600 0.000000 -0.000000 -1.000000
-0.001454 0.001442 -0.000600 -0.000000 -0.000000 -1.000000
-0.003465 0.003669 -0.000600 0.000000 -0.000000 -1.000000
-0.001205 0.001646 -0.000600 -0.000000 -0.000000 -1.000000
-0.001454 -0.001442 -0.000600 0.000000 -0.000000 -1.000000
-0.003825 -0.003301 -0.000600 0.000000 -0.000000 -1.000000
-0.001668 -0.001202 -0.000600 0.000000 -0.000000 -1.000000
-0.004144 -0.002897 -0.000600 0.000000 0.000000 -1.000000
-0.001840 -0.000929 -0.000600 0.000000 -0.000000 -1.000000
-0.000926 -0.001807 -0.000600 0.000000 -0.000000 -1.000000
-0.002643 -0.004287 -0.000600 0.000000 -0.000000 -1.000000
-0.001205 -0.001646 -0.000600 0.000000 -0.000000 -1.000000
-0.003070 -0.003999 -0.000600 0.000000 0.000000 -1.000000
-0.003465 -0.003669 -0.000600 0.000000 0.000000 -1.000000
-0.004420 -0.002463 -0.000600 0.000000 -0.000000 -1.000000
-0.004651 -0.002002 -0.000600 0.000000 0.000000 -1.000000
-0.001966 -0.000633 -0.000600 0.000000 -0.000000 -1.000000
-0.004832 -0.001521 -0.000600 0.000000 0.000000 -1.000000
-0.004963 -0.001023 -0.000600 0.000000 0.000000 -1.000000
-0.000625 -0.001921 -0.000600 0.000000 -0.000000 -1.000000
-0.001712 -0.004722 -0.000600 0.000000 -0.000000 -1.000000
-0.002189 -0.004529 -0.000600 0.000000 0.000000 -1.000000
0.000011 -0.001998 -0.000600 0.000000 0.000000 -1.000000
-0.000198 -0.004998 -0.000600 0.000000 0.000000 -1.000000
-0.000310 -0.001985 -0.000600 0.000000 0.000000 -1.000000
-0.000711 -0.004959 -0.000600 0.000000 0.000000 -1.000000
-0.001217 -0.004866 -0.000600 0.000000 0.000000 -1.000000
0.000640 -0.001870 -0.000600 0.000000 0.000000 -1.000000
0.001328 -0.004801 -0.000600 0.000000 0.000000 -1.000000
0.000331 -0.001960 -0.000600 0.000000 0.000000 -1.000000
0.000827 -0.004919 -0.000600 0.000000 0.000000 -1.000000
0.000317 -0.004985 -0.000600 0.000000 0.000000 -1.000000
0.001621 -0.001069 -0.000600 0.000000 0.000000 -1.000000
0.003851 -0.003103 -0.000600 0.000000 0.000000 -1.000000
0.001428 -0.001326 -0.000600 0.000000 0.000000 -1.000000
0.003512 -0.003490 -0.000600 0.000000 0.000000 -1.000000
0.001196 -0.001549 -0.000600 0.000000 0.000000 -1.000000
0.003134 -0.003839 -0.000600 0.000000 0.000000 -1.000000
0.002722 -0.004148 -0.000600 0.000000 0.000000 -1.000000
0.000931 -0.001732 -0.000600 0.000000 0.000000 -1.000000
0.002281 -0.004413 -0.000600 0.000000 0.000000 -1.000000
0.001815 -0.004632 -0.000600 0.000000 0.000000 -1.000000
0.001771 -0.000784 -0.000600 0.000000 0.000000 -1.000000
0.004403 -0.002236 -0.000600 0.000000 0.000000 -1.000000
0.004150 -0.002684 -0.000600 0.000000 0.000000 -1.000000
0.000331 0.001959 -0.000600 -0.000000 0.000000 -1.000000
0.001328 0.004801 -0.000600 -0.000000 0.000000 -1.000000
0.000640 0.001870 -0.000600 -0.000000 0.000000 -1.000000
0.001815 0.004631 -0.000600 -0.000000 0.000000 -1.000000
0.000931 0.001732 -0.000600 -0.000000 0.000000 -1.000000
-0.000310 0.001985 -0.000600 -0.000000 0.000000 -1.000000
-0.000198 0.004998 -0.000600 -0.000000 0.000000 -1.000000
0.000011 0.001998 -0.000600 -0.000000 0.000000 -1.000000
0.000317 0.004985 -0.000600 -0.000000 -0.000000 -1.000000
0.000827 0.004919 -0.000600 -0.000000 -0.000000 -1.000000
0.002281 0.004413 -0.000600 0.000000 0.000000 -1.000000
0.002722 0.004148 -0.000600 -0.000000 0.000000 -1.000000
0.001196 0.001549 -0.000600 -0.000000 0.000000 -1.000000
0.003134 0.003839 -0.000600 -0.000000 0.000000 -1.000000
0.001428 0.001326 -0.000600 -0.000000 0.000000 -1.000000
-0.000926 0.001807 -0.000600 -0.000000 -0.000000 -1.000000
-0.001712 0.004722 -0.000600 -0.000000 -0.000000 -1.000000
-0.000625 0.001921 -0.000600 -0.000000 -0.000000 -1.000000
-0.001217 0.004866 -0.000600 0.000000 -0.000000 -1.000000
-0.000711 0.004958 -0.000600 0.000000 -0.000000 -1.000000
-0.003070 0.003999 -0.000600 -0.000000 0.000000 -1.000000
-0.002643 0.004286 -0.000600 0.000000 -0.000000 -1.000000
-0.002189 0.004528 -0.000600 0.000000 -0.000000 -1.000000
0.001621 0.001069 -0.000600 -0.000000 0.000000 -1.000000
0.004403 0.002235 -0.000600 -0.000000 0.000000 -1.000000
0.001771 0.000784 -0.000600 -0.000000 0.000000 -1.000000
0.004609 0.001764 -0.000600 -0.000000 0.000000 -1.000000
0.001873 0.000479 -0.000600 -0.000000 0.000000 -1.000000
0.003512 0.003490 -0.000600 0.000000 0.000000 -1.000000
0.003851 0.003103 -0.000600 -0.000000 0.000000 -1.000000
0.004150 0.002683 -0.000600 -0.000000 0.000000 -1.000000
0.001924 -0.000161 -0.000600 0.000000 0.000000 -1.000000
0.004871 -0.000770 -0.000600 0.000000 0.000000 -1.000000
0.001873 -0.000479 -0.000600 0.000000 0.000000 -1.000000
0.004766 -0.001273 -0.000600 0.000000 0.000000 -1.000000
0.004609 -0.001764 -0.000600 0.000000 0.000000 -1.000000
0.004766 0.001273 -0.000600 0.000000 0.000000 -1.000000
0.004871 0.000769 -0.000600 -0.000000 0.000000 -1.000000
0.001924 0.000161 -0.000600 -0.000000 0.000000 -1.000000
0.004924 0.000257 -0.000600 -0.000000 0.000000 -1.000000
0.001931 0.000000 -0.000600 -0.000000 0.000000 -1.000000
0.004931 0.000000 -0.000600 -0.000000 0.000000 -1.000000
0.004924 -0.000257 -0.000600 -0.000000 0.000000 -1.000000
0.004924 0.000257 0.000600 0.999629 0.027227 -0.000000
0.004931 0.000000 0.000600 0.999629 0.027227 -0.000000
0.004931 0.000000 -0.000600 0.999629 0.027227 -0.000000
0.004931 0.000000 -0.000600 0.999629 -0.027227 0.000000
0.004931 0.000000 0.000600 0.999629 -0.027227 0.000000
0.004924 -0.000257 -0.000600 0.999629 -0.027227 0.000000
0.004924 -0.000257 0.000600 0.999629 -0.027227 0.000000
0.004924 -0.000257 -0.000600 0.994705 -0.102766 0.000000
0.004924 -0.000257 0.000600 0.994705 -0.102766 0.000000
0.004871 -0.000770 0.000600 0.994705 -0.102766 0.000000
0.004871 -0.000770 -0.000600 0.994705 -0.102766 0.000000
0.004871 -0.000770 -0.000600 0.978899 -0.204343 0.000000
0.004871 -0.000770 0.000600 0.978899 -0.204343 0.000000
0.004766 -0.001273 0.000600 0.978899 -0.204343 0.000000
0.004766 -0.001273 -0.000600 0.978899 -0.204343 0.000000
0.004766 -0.001273 -0.000600 0.952491 -0.304565 0.000000
0.004766 -0.001273 0.000600 0.952491 -0.304565 0.000000
0.004609 -0.001764 0.000600 0.952491 -0.304565 0.000000
0.004609 -0.001764 -0.000600 0.952491 -0.304565 0.000000
0.004609 -0.001764 -0.000600 0.916514 -0.400003 0.000000
0.004609 -0.001764 0.000600 0.916514 -0.400003 0.000000
0.004403 -0.002236 0.000600 0.916514 -0.400003 0.000000
0.004403 -0.002236 -0.000600 0.916514 -0.400003 0.000000
0.004403 -0.002236 -0.000600 0.870744 -0.491737 0.000000
0.004403 -0.002236 0.000600 0.870744 -0.491737 0.000000
0.004150 -0.002684 0.000600 0.870744 -0.491737 0.000000
0.004150 -0.002684 -0.000600 0.870744 -0.491737 0.000000
0.004150 -0.002684 -0.000600 0.813996 -0.580871 0.000000
0.004150 -0.002684 0.000600 0.813996 -0.580871 0.000000
0.003851 -0.003103 0.000600 0.813996 -0.580871 0.000000
0.003851 -0.003103 -0.000600 0.813996 -0.580871 0.000000
0.003851 -0.003103 -0.000600 0.752216 -0.658917 0.000000
0.003851 -0.003103 0.000600 0.752216 -0.658917 0.000000
0.003512 -0.003490 0.000600 0.752216 -0.658917 0.000000
0.003512 -0.003490 -0.000600 0.752216 -0.658917 0.000000
0.003512 -0.003490 -0.000600 0.678360 -0.734730 0.000000
0.003512 -0.003490 0.000600 0.678360 -0.734730 0.000000
0.003134 -0.003839 0.000600 0.678360 -0.734730 0.000000
0.003134 -0.003839 -0.000600 0.678360 -0.734730 0.000000
0.003134 -0.003839 -0.000600 0.600000 -0.800000 0.000000
0.003134 -0.003839 0.000600 0.600000 -0.800000 0.000000
0.002722 -0.004148 0.000600 0.600000 -0.800000 0.000000
0.002722 -0.004148 -0.000600 0.600000 -0.800000 0.000000
0.002722 -0.004148 -0.000600 0.515067 -0.857150 0.000000
0.002722 -0.004148 0.000600 0.515067 -0.857150 0.000000
0.002281 -0.004413 0.000600 0.515067 -0.857150 0.000000
0.002281 -0.004413 -0.000600 0.515067 -0.857150 0.000000
0.002281 -0.004413 -0.000600 0.425329 -0.905039 0.000000
0.002281 -0.004413 0.000600 0.425329 -0.905039 0.000000
0.001815 -0.004632 0.000600 0.425329 -0.905039 0.000000
0.001815 -0.004632 -0.000600 0.425329 -0.905039 0.000000
0.001815 -0.004632 -0.000600 0.327844 -0.944732 0.000000
0.001815 -0.004632 0.000600 0.327844 -0.944732 0.000000
0.001328 -0.004801 0.000600 0.327844 -0.944732 0.000000
0.001328 -0.004801 -0.000600 0.327844 -0.944732 0.000000
0.001328 -0.004801 -0.000600 0.229256 -0.973366 0.000000
0.001328 -0.004801 0.000600 0.229256 -0.973366 0.000000
0.000827 -0.004919 0.000600 0.229256 -0.973366 0.000000
0.000827 -0.004919 -0.000600 0.229256 -0.973366 0.000000
0.000827 -0.004919 -0.000600 0.128342 -0.991730 0.000000
0.000827 -0.004919 0.000600 0.128342 -0.991730 0.000000
0.000317 -0.004985 0.000600 0.128342 -0.991730 0.000000
0.000317 -0.004985 -0.000600 0.128342 -0.991730 0.000000
0.000317 -0.004985 -0.000600 0.025234 -0.999682 0.000000
0.000317 -0.004985 0.000600 0.025234 -0.999682 0.000000
-0.000198 -0.004998 0.000600 0.025234 -0.999682 0.000000
-0.000198 -0.004998 -0.000600 0.025234 -0.999682 0.000000
-0.000198 -0.004998 -0.000600 -0.075805 -0.997123 -0.000000
-0.000198 -0.004998 0.000600 -0.075805 -0.997123 -0.000000
-0.000711 -0.004959 0.000600 -0.075805 -0.997123 -0.000000
-0.000711 -0.004959 -0.000600 -0.075805 -0.997123 0.000000
-0.000711 -0.004959 -0.000600 -0.180767 -0.983526 -0.000000
-0.000711 -0.004959 0.000600 -0.180767 -0.983526 -0.000000
-0.001217 -0.004866 0.000600 -0.180767 -0.983526 -0.000000
-0.001217 -0.004866 -0.000600 -0.180767 -0.983526 0.000000
-0.001217 -0.004866 -0.000600 -0.279329 -0.960195 -0.000000
-0.001217 -0.004866 0.000600 -0.279329 -0.960195 -0.000000
-0.001712 -0.004722 0.000600 -0.279329 -0.960195 -0.000000
-0.001712 -0.004722 -0.000600 -0.279329 -0.960195 0.000000
-0.001712 -0.004722 -0.000600 -0.375074 -0.926995 -0.000000
-0.001712 -0.004722 0.000600 -0.375074 -0.926995 -0.000000
-0.002189 -0.004529 0.000600 -0.375074 -0.926995 -0.000000
-0.002189 -0.004529 -0.000600 -0.375074 -0.926995 0.000000
-0.002189 -0.004529 -0.000600 -0.470386 -0.882461 -0.000000
-0.002189 -0.004529 0.000600 -0.470386 -0.882461 -0.000000
-0.002643 -0.004287 0.000600 -0.470386 -0.882461 -0.000000
-0.002643 -0.004287 -0.000600 -0.470386 -0.882461 0.000000
-0.002643 -0.004287 -0.000600 -0.559173 -0.829051 -0.000000
-0.002643 -0.004287 0.000600 -0.559173 -0.829051 -0.000000
-0.003070 -0.003999 0.000600 -0.559173 -0.829051 -0.000000
-0.003070 -0.003999 -0.000600 -0.559173 -0.829051 0.000000
-0.003070 -0.003999 -0.000600 -0.641140 -0.767424 -0.000000
-0.003070 -0.003999 0.000600 -0.641140 -0.767424 -0.000000
-0.003465 -0.003669 0.000600 -0.641140 -0.767424 -0.000000
-0.003465 -0.003669 -0.000600 -0.641140 -0.767424 0.000000
-0.003465 -0.003669 -0.000600 -0.714834 -0.699294 -0.000000
-0.003465 -0.003669 0.000600 -0.714834 -0.699294 -0.000000
-0.003825 -0.003301 0.000600 -0.714834 -0.699294 -0.000000
-0.003825 -0.003301 -0.000600 -0.714834 -0.699294 0.000000
-0.003825 -0.003301 -0.000600 -0.784833 -0.619708 -0.000000
-0.003825 -0.003301 0.000600 -0.784833 -0.619708 -0.000000
-0.004144 -0.002897 0.000600 -0.784833 -0.619708 -0.000000
-0.004144 -0.002897 -0.000600 -0.784833 -0.619708 0.000000
-0.004144 -0.002897 -0.000600 -0.843822 -0.536623 -0.000000
-0.004144 -0.002897 0.000600 -0.843822 -0.536623 -0.000000
-0.004420 -0.002463 0.000600 -0.843822 -0.536623 -0.000000
-0.004420 -0.002463 -0.000600 -0.843822 -0.536623 0.000000
-0.004420 -0.002463 -0.000600 -0.894039 -0.447989 -0.000000
-0.004420 -0.002463 0.000600 -0.894039 -0.447989 -0.000000
-0.004651 -0.002002 0.000600 -0.894039 -0.447989 -0.000000
-0.004651 -0.002002 -0.000600 -0.894039 -0.447989 0.000000
-0.004651 -0.002002 -0.000600 -0.935929 -0.352189 -0.000000
-0.004651 -0.002002 0.000600 -0.935929 -0.352189 -0.000000
-0.004832 -0.001521 0.000600 -0.935929 -0.352189 -0.000000
-0.004832 -0.001521 -0.000600 -0.935929 -0.352189 0.000000
-0.004832 -0.001521 -0.000600 -0.967099 -0.254398 -0.000000
-0.004832 -0.001521 0.000600 -0.967099 -0.254398 -0.000000
-0.004963 -0.001023 0.000600 -0.967099 -0.254398 -0.000000
-0.004963 -0.001023 -0.000600 -0.967099 -0.254398 0.000000
-0.004963 -0.001023 -0.000600 -0.987873 -0.155264 -0.000000
-0.004963 -0.001023 0.000600 -0.987873 -0.155264 -0.000000
-0.005043 -0.000514 0.000600 -0.987873 -0.155264 -0.000000
-0.005043 -0.000514 -0.000600 -0.987873 -0.155264 0.000000
-0.005043 -0.000514 -0.000600 -0.998723 -0.050519 -0.000000
-0.005043 -0.000514 0.000600 -0.998723 -0.050519 -0.000000
-0.005069 0.000000 0.000600 -0.998723 -0.050519 -0.000000
-0.005069 0.000000 -0.000600 -0.998723 -0.050519 0.000000
-0.005069 0.000000 -0.000600 -0.998723 0.050519 0.000000
-0.005069 0.000000 0.000600 -0.998723 0.050519 0.000000
-0.005043 0.000514 0.000600 -0.998723 0.050519 0.000000
-0.005043 0.000514 -0.000600 -0.998723 0.050519 0.000000
-0.005043 0.000514 -0.000600 -0.987873 0.155264 0.000000
-0.005043 0.000514 0.000600 -0.987873 0.155264 0.000000
-0.004963 0.001023 0.000600 -0.987873 0.155264 0.000000
-0.004963 0.001023 -0.000600 -0.987873 0.155264 0.000000
-0.004963 0.001023 -0.000600 -0.966974 0.254877 0.000000
-0.004963 0.001023 0.000600 -0.966974 0.254877 0.000000
-0.004832 0.001520 0.000600 -0.966974 0.254877 0.000000
-0.004832 0.001520 -0.000600 -0.966974 0.254877 0.000000
-0.004832 0.001520 -0.000600 -0.936170 0.351548 0.000000
-0.004832 0.001520 0.000600 -0.936170 0.351548 0.000000
-0.004651 0.002002 0.000600 -0.936170 0.351548 0.000000
-0.004651 0.002002 -0.000600 -0.936170 0.351548 0.000000
-0.004651 0.002002 -0.000600 -0.894039 0.447990 0.000000
-0.004651 0.002002 0.000600 -0.894039 0.447990 0.000000
-0.004420 0.002463 0.000600 -0.894039 0.447990 0.000000
-0.004420 0.002463 -0.000600 -0.894039 0.447990 0.000000
-0.004420 0.002463 -0.000600 -0.843822 0.536623 0.000000
-0.004420 0.002463 0.000600 -0.843822 0.536623 0.000000
-0.004144 0.002897 0.000600 -0.843822 0.536623 0.000000
-0.004144 0.002897 -0.000600 -0.843822 0.536623 0.000000
-0.004144 0.002897 -0.000600 -0.784833 0.619707 0.000000
-0.004144 0.002897 0.000600 -0.784833 0.619707 0.000000
-0.003825 0.003301 0.000600 -0.784833 0.619707 0.000000
-0.003825 0.003301 -0.000600 -0.784833 0.619707 0.000000
-0.003825 0.003301 -0.000600 -0.714834 0.699294 0.000000
-0.003825 0.003301 0.000600 -0.714834 0.699294 0.000000
-0.003465 0.003669 0.000600 -0.714834 0.699294 0.000000
-0.003465 0.003669 -0.000600 -0.714834 0.699294 0.000000
-0.003465 0.003669 -0.000600 -0.641139 0.767424 0.000000
-0.003465 0.003669 0.000600 -0.641139 0.767424 0.000000
-0.003070 0.003999 0.000600 -0.641139 0.767424 0.000000
-0.003070 0.003999 -0.000600 -0.641139 0.767424 0.000000
-0.003070 0.003999 -0.000600 -0.557836 0.829951 0.000000
-0.003070 0.003999 0.000600 -0.557836 0.829951 0.000000
-0.002643 0.004286 0.000600 -0.557836 0.829951 0.000000
-0.002643 0.004286 -0.000600 -0.557836 0.829951 0.000000
-0.002643 0.004286 -0.000600 -0.470386 0.882461 0.000000
-0.002643 0.004286 0.000600 -0.470386 0.882461 0.000000
-0.002189 0.004528 0.000600 -0.470386 0.882461 0.000000
-0.002189 0.004528 -0.000600 -0.470386 0.882461 0.000000
-0.002189 0.004528 -0.000600 -0.376742 0.926318 0.000000
-0.002189 0.004528 0.000600 -0.376742 0.926318 0.000000
-0.001712 0.004722 0.000600 -0.376742 0.926318 0.000000
-0.001712 0.004722 -0.000600 -0.376742 0.926318 0.000000
-0.001712 0.004722 -0.000600 -0.279330 0.960195 0.000000
-0.001712 0.004722 0.000600 -0.279330 0.960195 0.000000
-0.001217 0.004866 0.000600 -0.279330 0.960195 0.000000
-0.001217 0.004866 -0.000600 -0.279330 0.960195 0.000000
-0.001217 0.004866 -0.000600 -0.178885 0.983870 0.000000
-0.001217 0.004866 0.000600 -0.178885 0.983870 0.000000
-0.000711 0.004958 0.000600 -0.178885 0.983870 0.000000
-0.000711 0.004958 -0.000600 -0.178885 0.983870 0.000000
-0.000711 0.004958 -0.000600 -0.077737 0.996974 0.000000
-0.000711 0.004958 0.000600 -0.077737 0.996974 0.000000
-0.000198 0.004998 0.000600 -0.077737 0.996974 0.000000
-0.000198 0.004998 -0.000600 -0.077737 0.996974 0.000000
-0.000198 0.004998 -0.000600 0.025235 0.999682 0.000000
-0.000198 0.004998 0.000600 0.025235 0.999682 0.000000
0.000317 0.004985 0.000600 0.025235 0.999682 0.000000
0.000317 0.004985 -0.000600 0.025235 0.999682 -0.000000
0.000317 0.004985 -0.000600 0.128342 0.991730 0.000000
0.000317 0.004985 0.000600 0.128342 0.991730 0.000000
0.000827 0.004919 0.000600 0.128342 0.991730 0.000000
0.000827 0.004919 -0.000600 0.128342 0.991730 -0.000000
0.000827 0.004919 -0.000600 0.229255 0.973366 0.000000
0.000827 0.004919 0.000600 0.229255 0.973366 0.000000
0.001328 0.004801 0.000600 0.229255 0.973366 0.000000
0.001328 0.004801 -0.000600 0.229255 0.973366 -0.000000
0.001328 0.004801 -0.000600 0.329573 0.944130 0.000000
0.001328 0.004801 0.000600 0.329573 0.944130 0.000000
0.001815 0.004631 0.000600 0.329573 0.944130 0.000000
0.001815 0.004631 -0.000600 0.329573 0.944130 -0.000000
0.001815 0.004631 -0.000600 0.423737 0.905785 0.000000
0.001815 0.004631 0.000600 0.423737 0.905785 0.000000
0.002281 0.004413 0.000600 0.423737 0.905785 0.000000
0.002281 0.004413 -0.000600 0.423737 0.905785 -0.000000
0.002281 0.004413 -0.000600 0.515068 0.857149 0.000000
0.002281 0.004413 0.000600 0.515068 0.857149 0.000000
0.002722 0.004148 0.000600 0.515068 0.857149 0.000000
0.002722 0.004148 -0.000600 0.515068 0.857149 -0.000000
0.002722 0.004148 -0.000600 0.600000 0.800000 0.000000
0.002722 0.004148 0.000600 0.600000 0.800000 0.000000
0.003134 0.003839 0.000600 0.600000 0.800000 0.000000
0.003134 0.003839 -0.000600 0.600000 0.800000 -0.000000
0.003134 0.003839 -0.000600 0.678360 0.734729 0.000000
0.003134 0.003839 0.000600 0.678360 0.734729 0.000000
0.003512 0.003490 0.000600 0.678360 0.734729 0.000000
0.003512 0.003490 -0.000600 0.678360 0.734729 -0.000000
0.003512 0.003490 -0.000600 0.752216 0.658917 0.000000
0.003512 0.003490 0.000600 0.752216 0.658917 0.000000
0.003851 0.003103 0.000600 0.752216 0.658917 0.000000
0.003851 0.003103 -0.000600 0.752216 0.658917 -0.000000
0.003851 0.003103 -0.000600 0.814650 0.579953 0.000000
0.003851 0.003103 0.000600 0.814650 0.579953 0.000000
0.004150 0.002683 0.000600 0.814650 0.579953 0.000000
0.004150 0.002683 -0.000600 0.814650 0.579953 -0.000000
0.004150 0.002683 -0.000600 0.870744 0.491737 0.000000
0.004150 0.002683 0.000600 0.870744 0.491737 0.000000
0.004403 0.002235 0.000600 0.870744 0.491737 0.000000
0.004403 0.002235 -0.000600 0.870744 0.491737 -0.000000
0.004403 0.002235 -0.000600 0.916202 0.400715 0.000000
0.004403 0.002235 0.000600 0.916202 0.400715 0.000000
0.004609 0.001764 0.000600 0.916202 0.400715 0.000000
0.004609 0.001764 -0.000600 0.916202 0.400715 -0.000000
0.004609 0.001764 -0.000600 0.952491 0.304566 0.000000
0.004609 0.001764 0.000600 0.952491 0.304566 0.000000
0.004766 0.001273 0.000600 0.952491 0.304566 0.000000
0.004766 0.001273 -0.000600 0.952491 0.304566 -0.000000
0.004766 0.001273 -0.000600 0.978980 0.203954 0.000000
0.004766 0.001273 0.000600 0.978980 0.203954 0.000000
0.004871 0.000769 0.000600 0.978980 0.203954 0.000000
0.004871 0.000769 -0.000600 0.978980 0.203954 -0.000000
0.004871 0.000769 -0.000600 0.994685 0.102965 0.000000
0.004871 0.000769 0.000600 0.994685 0.102965 0.000000
0.004924 0.000257 0.000600 0.994685 0.102965 0.000000
0.004924 0.000257 -0.000600 0.994685 0.102965 -0.000000
0.004924 0.000257 -0.000600 0.999629 0.027227 0.000000
-0.002069 0.000000 0.000600 0.996736 -0.080732 0.000000
-0.002069 0.000000 -0.000600 0.996736 -0.080732 0.000000
-0.002043 0.000321 0.000600 0.996736 -0.080732 0.000000
-0.002043 0.000321 -0.000600 0.996736 -0.080732 0.000000
-0.002043 0.000321 0.000600 0.970870 -0.239606 0.000000
-0.002043 0.000321 -0.000600 0.970870 -0.239606 0.000000
-0.001966 0.000633 0.000600 0.970870 -0.239606 0.000000
-0.001966 0.000633 -0.000600 0.970870 -0.239606 0.000000
-0.001966 0.000633 0.000600 0.920107 -0.391666 0.000000
-0.001966 0.000633 -0.000600 0.920107 -0.391666 0.000000
-0.001840 0.000929 0.000600 0.920107 -0.391666 0.000000
-0.001840 0.000929 -0.000600 0.920107 -0.391666 0.000000
-0.001840 0.000929 0.000600 0.845193 -0.534461 0.000000
-0.001840 0.000929 -0.000600 0.845193 -0.534461 0.000000
-0.001668 0.001201 0.000600 0.845193 -0.534461 0.000000
-0.001668 0.001201 -0.000600 0.845193 -0.534461 0.000000
-0.001668 0.001201 0.000600 0.747752 -0.663978 0.000000
-0.001668 0.001201 -0.000600 0.747752 -0.663978 0.000000
-0.001454 0.001442 0.000600 0.747752 -0.663978 0.000000
-0.001454 0.001442 -0.000600 0.747752 -0.663978 0.000000
-0.001454 0.001442 0.000600 0.633745 -0.773542 0.000000
-0.001454 0.001442 -0.000600 0.633745 -0.773542 0.000000
-0.001205 0.001646 0.000600 0.633745 -0.773542 0.000000
-0.001205 0.001646 -0.000600 0.633745 -0.773542 0.000000
-0.001205 0.001646 0.000600 0.499812 -0.866134 0.000000
-0.001205 0.001646 -0.000600 0.499812 -0.866134 0.000000
-0.000926 0.001807 0.000600 0.499812 -0.866134 0.000000
-0.000926 0.001807 -0.000600 0.499812 -0.866134 0.000000
-0.000926 0.001807 0.000600 0.354186 -0.935175 0.000000
-0.000926 0.001807 -0.000600 0.354186 -0.935175 0.000000
-0.000625 0.001921 0.000600 0.354186 -0.935175 0.000000
-0.000625 0.001921 -0.000600 0.354186 -0.935175 0.000000
-0.000625 0.001921 0.000600 0.199107 -0.979978 0.000000
-0.000625 0.001921 -0.000600 0.199107 -0.979978 0.000000
-0.000310 0.001985 0.000600 0.199107 -0.979978 0.000000
-0.000310 0.001985 -0.000600 0.199107 -0.979978 0.000000
-0.000310 0.001985 0.000600 0.040466 -0.999181 0.000000
-0.000310 0.001985 -0.000600 0.040466 -0.999181 0.000000
0.000011 0.001998 0.000600 0.040466 -0.999181 0.000000
0.000011 0.001998 -0.000600 0.040466 -0.999181 0.000000
0.000011 0.001998 0.000600 -0.120980 -0.992655 0.000000
0.000011 0.001998 -0.000600 -0.120980 -0.992655 0.000000
0.000331 0.001959 0.000600 -0.120980 -0.992655 0.000000
0.000331 0.001959 -0.000600 -0.120980 -0.992655 0.000000
0.000331 0.001959 0.000600 -0.276774 -0.960935 0.000000
0.000331 0.001959 -0.000600 -0.276774 -0.960935 0.000000
0.000640 0.001870 0.000600 -0.276774 -0.960935 0.000000
0.000640 0.001870 -0.000600 -0.276774 -0.960935 0.000000
0.000640 0.001870 0.000600 -0.428487 -0.903548 0.000000
0.000640 0.001870 -0.000600 -0.428487 -0.903548 0.000000
0.000931 0.001732 0.000600 -0.428487 -0.903548 0.000000
0.000931 0.001732 -0.000600 -0.428487 -0.903548 0.000000
0.000931 0.001732 0.000600 -0.568241 -0.822862 0.000000
0.000931 0.001732 -0.000600 -0.568241 -0.822862 0.000000
0.001196 0.001549 0.000600 -0.568241 -0.822862 0.000000
0.001196 0.001549 -0.000600 -0.568241 -0.822862 0.000000
0.001196 0.001549 0.000600 -0.692984 -0.720953 0.000000
0.001196 0.001549 -0.000600 -0.692984 -0.720953 0.000000
0.001428 0.001326 0.000600 -0.692984 -0.720953 0.000000
0.001428 0.001326 -0.000600 -0.692984 -0.720953 0.000000
0.001428 0.001326 0.000600 -0.799626 -0.600498 0.000000
0.001428 0.001326 -0.000600 -0.799626 -0.600498 0.000000
0.001621 0.001069 0.000600 -0.799626 -0.600498 0.000000
0.001621 0.001069 -0.000600 -0.799626 -0.600498 0.000000
0.001621 0.001069 0.000600 -0.884919 -0.465746 0.000000
0.001621 0.001069 -0.000600 -0.884919 -0.465746 0.000000
0.001771 0.000784 0.000600 -0.884919 -0.465746 0.000000
0.001771 0.000784 -0.000600 -0.884919 -0.465746 0.000000
0.001771 0.000784 0.000600 -0.948372 -0.317160 0.000000
0.001771 0.000784 -0.000600 -0.948372 -0.317160 0.000000
0.001873 0.000479 0.000600 -0.948372 -0.317160 0.000000
0.001873 0.000479 -0.000600 -0.948372 -0.317160 0.000000
0.001873 0.000479 0.000600 -0.987382 -0.158354 0.000000
0.001873 0.000479 -0.000600 -0.987382 -0.158354 0.000000
0.001924 0.000161 0.000600 -0.987382 -0.158354 0.000000
0.001924 0.000161 -0.000600 -0.987382 -0.158354 0.000000
0.001924 0.000161 0.000600 -0.999056 -0.043439 0.000000
0.001924 0.000161 -0.000600 -0.999056 -0.043439 0.000000
0.001931 0.000000 0.000600 -0.999056 -0.043439 0.000000
0.001931 0.000000 -0.000600 -0.999056 -0.043439 0.000000
0.001931 0.000000 0.000600 -0.999056 0.043439 0.000000
0.001931 0.000000 -0.000600 -0.999056 0.043439 0.000000
0.001924 -0.000161 0.000600 -0.999056 0.043439 0.000000
0.001924 -0.000161 -0.000600 -0.999056 0.043439 0.000000
0.001924 -0.000161 0.000600 -0.987382 0.158354 0.000000
0.001924 -0.000161 -0.000600 -0.987382 0.158354 0.000000
0.001873 -0.000479 0.000600 -0.987382 0.158354 0.000000
0.001873 -0.000479 -0.000600 -0.987382 0.158354 0.000000
0.001873 -0.000479 0.000600 -0.948372 0.317160 0.000000
0.001873 -0.000479 -0.000600 -0.948372 0.317160 0.000000
0.001771 -0.000784 0.000600 -0.948372 0.317160 0.000000
0.001771 -0.000784 -0.000600 -0.948372 0.317160 0.000000
0.001771 -0.000784 0.000600 -0.884919 0.465746 0.000000
0.001771 -0.000784 -0.000600 -0.884919 0.465746 0.000000
0.001621 -0.001069 0.000600 -0.884919 0.465746 0.000000
0.001621 -0.001069 -0.000600 -0.884919 0.465746 0.000000
0.001621 -0.001069 0.000600 -0.799626 0.600498 0.000000
0.001621 -0.001069 -0.000600 -0.799626 0.600498 0.000000
0.001428 -0.001326 0.000600 -0.799626 0.600498 0.000000
0.001428 -0.001326 -0.000600 -0.799626 0.600498 0.000000
0.001428 -0.001326 0.000600 -0.692985 0.720952 0.000000
0.001428 -0.001326 -0.000600 -0.692985 0.720952 0.000000
0.001196 -0.001549 0.000600 -0.692985 0.720952 0.000000
0.001196 -0.001549 -0.000600 -0.692985 0.720952 0.000000
0.001196 -0.001549 0.000600 -0.568241 0.822862 0.000000
0.001196 -0.001549 -0.000600 -0.568241 0.822862 0.000000
0.000931 -0.001732 0.000600 -0.568241 0.822862 0.000000
0.000931 -0.001732 -0.000600 -0.568241 0.822862 0.000000
0.000931 -0.001732 0.000600 -0.428486 0.903548 0.000000
0.000931 -0.001732 -0.000600 -0.428486 0.903548 0.000000
0.000640 -0.001870 0.000600 -0.428486 0.903548 0.000000
0.000640 -0.001870 -0.000600 -0.428486 0.903548 0.000000
0.000640 -0.001870 0.000600 -0.279642 0.960104 0.000000
0.000640 -0.001870 -0.000600 -0.279642 0.960104 0.000000
0.000331 -0.001960 0.000600 -0.279642 0.960104 0.000000
0.000331 -0.001960 -0.000600 -0.279642 0.960104 0.000000
0.000331 -0.001960 0.000600 -0.117922 0.993023 0.000000
0.000331 -0.001960 -0.000600 -0.117922 0.993023 0.000000
0.000011 -0.001998 0.000600 -0.117922 0.993023 0.000000
0.000011 -0.001998 -0.000600 -0.117922 0.993023 0.000000
0.000011 -0.001998 0.000600 0.040465 0.999181 -0.000000
0.000011 -0.001998 -0.000600 0.040465 0.999181 -0.000000
-0.000310 -0.001985 0.000600 0.040465 0.999181 -0.000000
-0.000310 -0.001985 -0.000600 0.040465 0.999181 0.000000
-0.000310 -0.001985 0.000600 0.199107 0.979978 -0.000000
-0.000310 -0.001985 -0.000600 0.199107 0.979978 -0.000000
-0.000625 -0.001921 0.000600 0.199107 0.979978 -0.000000
-0.000625 -0.001921 -0.000600 0.199107 0.979978 0.000000
-0.000625 -0.001921 0.000600 0.354187 0.935175 -0.000000
-0.000625 -0.001921 -0.000600 0.354187 0.935175 -0.000000
-0.000926 -0.001807 0.000600 0.354187 0.935175 -0.000000
-0.000926 -0.001807 -0.000600 0.354187 0.935175 0.000000
-0.000926 -0.001807 0.000600 0.499812 0.866134 -0.000000
-0.000926 -0.001807 -0.000600 0.499812 0.866134 -0.000000
-0.001205 -0.001646 0.000600 0.499812 0.866134 -0.000000
-0.001205 -0.001646 -0.000600 0.499812 0.866134 0.000000
-0.001205 -0.001646 0.000600 0.633745 0.773542 -0.000000
-0.001205 -0.001646 -0.000600 0.633745 0.773542 -0.000000
-0.001454 -0.001442 0.000600 0.633745 0.773542 -0.000000
-0.001454 -0.001442 -0.000600 0.633745 0.773542 0.000000
-0.001454 -0.001442 0.000600 0.746379 0.665521 -0.000000
-0.001454 -0.001442 -0.000600 0.746379 0.665521 -0.000000
-0.001668 -0.001202 0.000600 0.746379 0.665521 -0.000000
-0.001668 -0.001202 -0.000600 0.746379 0.665521 0.000000
-0.001668 -0.001202 0.000600 0.846077 0.533060 -0.000000
-0.001668 -0.001202 -0.000600 0.846077 0.533060 -0.000000
-0.001840 -0.000929 0.000600 0.846077 0.533060 -0.000000
-0.001840 -0.000929 -0.000600 0.846077 0.533060 0.000000
-0.001840 -0.000929 0.000600 0.920107 0.391667 -0.000000
-0.001840 -0.000929 -0.000600 0.920107 0.391667 -0.000000
-0.001966 -0.000633 0.000600 0.920107 0.391667 -0.000000
-0.001966 -0.000633 -0.000600 0.920107 0.391667 0.000000
-0.001966 -0.000633 0.000600 0.970870 0.239606 -0.000000
-0.001966 -0.000633 -0.000600 0.970870 0.239606 -0.000000
-0.002043 -0.000321 0.000600 0.970870 0.239606 -0.000000
-0.002043 -0.000321 -0.000600 0.970870 0.239606 0.000000
-0.002043 -0.000321 0.000600 0.996736 0.080732 -0.000000
-0.002043 -0.000321 -0.000600 0.996736 0.080732 -0.000000
-0.002069 0.000000 0.000600 0.996736 0.080732 -0.000000
-0.002069 0.000000 -0.000600 0.996736 0.080732 0.000000
3 0 1 2
3 2 1 3
3 2 3 4
3 5 6 7
3 7 6 8
3 7 8 9
3 10 11 12
3 12 11 13
3 13 0 12
3 0 13 14
3 0 14 1
3 15 16 17
3 17 16 18
3 17 18 10
3 10 18 19
3 10 19 11
3 8 20 9
3 9 20 21
3 9 21 22
3 22 21 23
3 22 23 24
3 24 23 25
3 24 25 26
3 27 28 5
3 5 28 29
3 5 29 6
3 3 30 4
3 4 30 31
3 4 31 32
3 32 31 33
3 32 33 27
3 27 33 34
3 27 34 28
3 35 36 15
3 15 36 37
3 15 37 16
3 38 39 40
3 40 39 41
3 40 41 42
3 43 44 45
3 45 44 46
3 45 46 38
3 38 46 47
3 38 47 39
3 48 49 50
3 50 49 51
3 50 51 52
3 41 53 42
3 42 53 54
3 42 54 55
3 55 54 56
3 55 56 35
3 35 56 57
3 35 57 36
3 58 59 43
3 43 59 60
3 43 60 44
3 61 62 63
3 63 62 64
3 63 64 65
3 66 67 68
3 68 67 69
3 68 69 58
3 58 69 70
3 58 70 59
3 51 71 52
3 52 71 72
3 52 72 73
3 73 72 74
3 73 74 66
3 66 74 75
3 66 75 67
3 64 76 65
3 65 76 77
3 65 77 48
3 48 77 78
3 48 78 49
3 79 80 81
3 81 80 82
3 81 82 83
3 82 84 83
3 83 84 85
3 83 85 86
3 86 85 87
3 86 87 61
3 61 87 88
3 61 88 62
3 89 90 91
3 91 90 92
3 91 92 79
3 79 92 93
3 79 93 80
3 94 95 89
3 89 95 96
3 89 96 90
3 25 97 26
3 26 97 98
3 26 98 99
3 99 98 100
3 99 100 94
3 94 100 101
3 94 101 95
3 102 103 104
3 105 106 107
3 107 106 108
3 107 108 109
3 104 110 102
3 102 110 111
3 102 111 112
3 112 111 113
3 112 113 105
3 105 113 114
3 105 114 106
3 108 115 109
3 109 115 116
3 109 116 117
3 117 116 118
3 117 118 119
3 120 121 122
3 122 121 123
3 122 123 124
3 125 126 127
3 127 126 128
3 127 128 120
3 120 128 129
3 120 129 121
3 123 130 124
3 124 130 131
3 124 131 132
3 132 131 133
3 132 133 103
3 103 133 134
3 103 134 104
3 135 136 125
3 125 136 137
3 125 137 126
3 138 139 140
3 140 139 141
3 140 141 135
3 135 141 142
3 135 142 136
3 143 144 145
3 145 144 146
3 145 146 138
3 138 146 147
3 138 147 139
3 148 149 150
3 150 149 151
3 150 151 152
3 151 153 152
3 152 153 154
3 152 154 155
3 155 154 156
3 155 156 143
3 143 156 157
3 143 157 144
3 158 159 148
3 148 159 160
3 148 160 149
3 161 162 163
3 163 162 164
3 163 164 165
3 166 167 168
3 168 167 169
3 168 169 161
3 161 169 170
3 161 170 162
3 164 171 165
3 165 171 172
3 165 172 173
3 173 172 174
3 173 174 175
3 176 177 178
3 178 177 179
3 178 179 166
3 166 179 180
3 166 180 167
3 118 181 119
3 119 181 182
3 119 182 176
3 176 182 183
3 176 183 177
3 184 185 186
3 186 185 187
3 186 187 188
3 174 189 175
3 175 189 190
3 175 190 184
3 184 190 191
3 184 191 185
3 192 193 194
3 194 193 195
3 194 195 158
3 158 195 196
3 158 196 159
3 187 197 188
3 188 197 198
3 188 198 199
3 199 198 200
3 199 200 201
3 201 200 202
3 201 202 192
3 192 202 203
3 192 203 193
3 204 205 206
3 207 208 209
3 208 210 209
3 211 212 213
3 211 213 214
3 215 216 217
3 215 217 218
3 219 220 221
3 219 221 222
3 223 224 225
3 223 225 226
3 227 228 229
3 227 229 230
3 231 232 233
3 231 233 234
3 235 236 237
3 235 237 238
3 239 240 241
3 239 241 242
3 243 244 245
3 243 245 246
3 247 248 249
3 247 249 250
3 251 252 253
3 251 253 254
3 255 256 257
3 255 257 258
3 259 260 261
3 259 261 262
3 263 264 265
3 263 265 266
3 267 268 269
3 267 269 270
3 271 272 273
3 271 273 274
3 275 276 277
3 275 277 278
3 279 280 281
3 279 281 282
3 283 284 285
3 283 285 286
3 287 288 289
3 287 289 290
3 291 292 293
3 291 293 294
3 295 296 297
3 295 297 298
3 299 300 301
3 299 301 302
3 303 304 305
3 303 305 306
3 307 308 309
3 307 309 310
3 311 312 313
3 311 313 314
3 315 316 317
3 315 317 318
3 319 320 321
3 319 321 322
3 323 324 325
3 323 325 326
3 327 328 329
3 327 329 330
3 331 332 333
3 331 333 334
3 335 336 337
3 335 337 338
3 339 340 341
3 339 341 342
3 343 344 345
3 343 345 346
3 347 348 349
3 347 349 350
3 351 352 353
3 351 353 354
3 355 356 357
3 355 357 358
3 359 360 361
3 359 361 362
3 363 364 365
3 363 365 366
3 367 368 369
3 367 369 370
3 371 372 373
3 371 373 374
3 375 376 377
3 375 377 378
3 379 380 381
3 379 381 382
3 383 384 385
3 383 385 386
3 387 388 389
3 387 389 390
3 391 392 393
3 391 393 394
3 395 396 397
3 395 397 398
3 399 400 401
3 399 401 402
3 403 404 405
3 403 405 406
3 407 408 409
3 407 409 410
3 411 412 413
3 411 413 414
3 415 416 417
3 415 417 418
3 419 420 421
3 419 421 422
3 423 424 425
3 423 425 426
3 427 428 429
3 427 429 430
3 431 432 433
3 431 433 434
3 435 436 437
3 435 437 438
3 439 440 441
3 439 441 442
3 443 444 445
3 443 445 446
3 447 448 449
3 447 449 450
3 451 204 206
3 452 453 454
3 454 453 455
3 456 457 458
3 458 457 459
3 460 461 462
3 462 461 463
3 464 465 466
3 466 465 467
3 468 469 470
3 470 469 471
3 472 473 474
3 474 473 475
3 476 477 478
3 478 477 479
3 480 481 482
3 482 481 483
3 484 485 486
3 486 485 487
3 488 489 490
3 490 489 491
3 492 493 494
3 494 493 495
3 496 497 498
3 498 497 499
3 500 501 502
3 502 501 503
3 504 505 506
3 506 505 507
3 508 509 510
3 510 509 511
3 512 513 514
3 514 513 515
3 516 517 518
3 518 517 519
3 520 521 522
3 522 521 523
3 524 525 526
3 526 525 527
3 528 529 530
3 530 529 531
3 532 533 534
3 534 533 535
3 536 537 538
3 538 537 539
3 540 541 542
3 542 541 543
3 544 545 546
3 546 545 547
3 548 549 550
3 550 549 551
3 552 553 554
3 554 553 555
3 556 557 558
3 558 557 559
3 560 561 562
3 562 561 563
3 564 565 566
3 566 565 567
3 568 569 570
3 570 569 571
3 572 573 574
3 574 573 575
3 576 577 578
3 578 577 579
3 580 581 582
3 582 581 583
3 584 585 586
3 586 585 587
3 588 589 590
3 590 589 591
3 592 593 594
3 594 593 595
3 596 597 598
3 598 597 599
3 600 601 602
3 602 601 603
3 604 605 606
3 606 605 607
3 608 609 610
3 610 609 611
