solid finger1
   facet normal -1.000000e+000 -1.387779e-016 0.000000e+000
      outer loop
         vertex -1.200000e+001 -1.250000e+001 4.700000e+001
         vertex -1.200000e+001 1.250000e+001 4.700000e+001
         vertex -1.200000e+001 -1.250000e+001 0.000000e+000
      endloop
   endfacet
   facet normal -1.000000e+000 -1.387779e-016 0.000000e+000
      outer loop
         vertex -1.200000e+001 -1.250000e+001 0.000000e+000
         vertex -1.200000e+001 1.250000e+001 4.700000e+001
         vertex -1.200000e+001 1.250000e+001 0.000000e+000
      endloop
   endfacet
   facet normal 0.000000e+000 -1.000000e+000 0.000000e+000
      outer loop
         vertex 5.215406e-008 -1.250000e+001 4.700000e+001
         vertex -1.200000e+001 -1.250000e+001 4.700000e+001
         vertex 5.215406e-008 -1.250000e+001 0.000000e+000
      endloop
   endfacet
   facet normal 0.000000e+000 -1.000000e+000 0.000000e+000
      outer loop
         vertex 5.215406e-008 -1.250000e+001 0.000000e+000
         vertex -1.200000e+001 -1.250000e+001 4.700000e+001
         vertex -1.200000e+001 -1.250000e+001 0.000000e+000
      endloop
   endfacet
   facet normal 1.000000e+000 1.387779e-016 0.000000e+000
      outer loop
         vertex 5.215406e-008 1.250000e+001 4.700000e+001
         vertex 5.215406e-008 -1.250000e+001 4.700000e+001
         vertex 5.215406e-008 1.250000e+001 0.000000e+000
      endloop
   endfacet
   facet normal 1.000000e+000 1.387779e-016 0.000000e+000
      outer loop
         vertex 5.215406e-008 1.250000e+001 0.000000e+000
         vertex 5.215406e-008 -1.250000e+001 4.700000e+001
         vertex 5.215406e-008 -1.250000e+001 0.000000e+000
      endloop
   endfacet
   facet normal 0.000000e+000 1.000000e+000 0.000000e+000
      outer loop
         vertex -1.200000e+001 1.250000e+001 4.700000e+001
         vertex 5.215406e-008 1.250000e+001 4.700000e+001
         vertex -1.200000e+001 1.250000e+001 0.000000e+000
      endloop
   endfacet
   facet normal 0.000000e+000 1.000000e+000 0.000000e+000
      outer loop
         vertex -1.200000e+001 1.250000e+001 0.000000e+000
         vertex 5.215406e-008 1.250000e+001 4.700000e+001
         vertex 5.215406e-008 1.250000e+001 0.000000e+000
      endloop
   endfacet
   facet normal 0.000000e+000 0.000000e+000 1.000000e+000
      outer loop
         vertex 5.215406e-008 -1.250000e+001 4.700000e+001
         vertex 5.215406e-008 1.250000e+001 4.700000e+001
         vertex -1.200000e+001 -1.250000e+001 4.700000e+001
      endloop
   endfacet
   facet normal 0.000000e+000 0.000000e+000 1.000000e+000
      outer loop
         vertex -1.200000e+001 -1.250000e+001 4.700000e+001
         vertex 5.215406e-008 1.250000e+001 4.700000e+001
         vertex -1.200000e+001 1.250000e+001 4.700000e+001
      endloop
   endfacet
   facet normal 0.000000e+000 0.000000e+000 -1.000000e+000
      outer loop
         vertex 5.215406e-008 1.250000e+001 0.000000e+000
         vertex 5.215406e-008 -1.250000e+001 0.000000e+000
         vertex -1.200000e+001 1.250000e+001 0.000000e+000
      endloop
   endfacet
   facet normal 0.000000e+000 0.000000e+000 -1.000000e+000
      outer loop
         vertex -1.200000e+001 1.250000e+001 0.000000e+000
         vertex 5.215406e-008 -1.250000e+001 0.000000e+000
         vertex -1.200000e+001 -1.250000e+001 0.000000e+000
      endloop
   endfacet
endsolid